<?xml version="1.0" encoding="UTF-8"?>
<!DOCTYPE svg PUBLIC "-//W3C//DTD SVG 1.1//EN" "http://www.w3.org/Graphics/SVG/1.1/DTD/svg11.dtd">
<svg xmlns="http://www.w3.org/2000/svg" version="1.1"  viewBox="0 0 512 512" style="shape-rendering:geometricPrecision; text-rendering:geometricPrecision; image-rendering:optimizeQuality; fill-rule:evenodd; clip-rule:evenodd" xmlns:xlink="http://www.w3.org/1999/xlink">
<g><path style="opacity:0.966"  d="M 96.5,39.5 C 111.367,37.0115 121.534,42.6782 127,56.5C 127.5,64.1594 127.666,71.8261 127.5,79.5C 138.167,79.5 148.833,79.5 159.5,79.5C 159.334,71.8261 159.5,64.1594 160,56.5C 166.356,41.2416 177.523,36.0749 193.5,41C 200.149,44.3141 204.649,49.4808 207,56.5C 207.5,64.1594 207.666,71.8261 207.5,79.5C 218.167,79.5 228.833,79.5 239.5,79.5C 239.334,71.8261 239.5,64.1594 240,56.5C 246.356,41.2416 257.523,36.0749 273.5,41C 280.149,44.3141 284.649,49.4808 287,56.5C 287.5,64.1594 287.666,71.8261 287.5,79.5C 298.167,79.5 308.833,79.5 319.5,79.5C 319.334,71.8261 319.5,64.1594 320,56.5C 326.356,41.2416 337.523,36.0749 353.5,41C 360.149,44.3141 364.649,49.4808 367,56.5C 367.5,64.1594 367.666,71.8261 367.5,79.5C 378.167,79.5 388.833,79.5 399.5,79.5C 399.334,71.8261 399.5,64.1594 400,56.5C 406.356,41.2416 417.523,36.0749 433.5,41C 440.149,44.3141 444.649,49.4808 447,56.5C 447.5,64.1594 447.666,71.8261 447.5,79.5C 463.131,77.5573 473.631,83.8906 479,98.5C 479.333,113.833 479.667,129.167 480,144.5C 485.333,237.658 490.5,330.825 495.5,424C 497.236,439.903 490.57,450.236 475.5,455C 464.172,455.5 452.838,455.667 441.5,455.5C 440.552,467.621 434.218,475.454 422.5,479C 293.167,479.667 163.833,479.667 34.5,479C 25,476.167 18.8333,470 16,460.5C 15.3333,454.5 15.3333,448.5 16,442.5C 26.3333,342.833 36.6667,243.167 47,143.5C 47.3333,128.5 47.6667,113.5 48,98.5C 53.2777,83.7546 63.7777,77.4213 79.5,79.5C 79.0901,70.7502 79.5901,62.0836 81,53.5C 84.4922,46.8344 89.6589,42.1678 96.5,39.5 Z M 100.5,56.5 C 106.326,55.4887 109.826,57.822 111,63.5C 111.667,74.5 111.667,85.5 111,96.5C 109.134,103.347 104.968,105.18 98.5,102C 97.283,100.352 96.4497,98.519 96,96.5C 95.3333,85.5 95.3333,74.5 96,63.5C 96.5303,60.415 98.0303,58.0817 100.5,56.5 Z M 180.5,56.5 C 186.326,55.4887 189.826,57.822 191,63.5C 191.667,74.5 191.667,85.5 191,96.5C 189.134,103.347 184.968,105.18 178.5,102C 177.283,100.352 176.45,98.519 176,96.5C 175.333,85.5 175.333,74.5 176,63.5C 176.53,60.415 178.03,58.0817 180.5,56.5 Z M 260.5,56.5 C 266.326,55.4887 269.826,57.822 271,63.5C 271.667,74.5 271.667,85.5 271,96.5C 269.134,103.347 264.968,105.18 258.5,102C 257.283,100.352 256.45,98.519 256,96.5C 255.333,85.5 255.333,74.5 256,63.5C 256.53,60.415 258.03,58.0817 260.5,56.5 Z M 340.5,56.5 C 346.326,55.4887 349.826,57.822 351,63.5C 351.667,74.5 351.667,85.5 351,96.5C 349.134,103.347 344.968,105.18 338.5,102C 337.283,100.352 336.45,98.519 336,96.5C 335.333,85.5 335.333,74.5 336,63.5C 336.53,60.415 338.03,58.0817 340.5,56.5 Z M 420.5,56.5 C 426.326,55.4887 429.826,57.822 431,63.5C 431.667,74.5 431.667,85.5 431,96.5C 429.134,103.347 424.968,105.18 418.5,102C 417.283,100.352 416.45,98.519 416,96.5C 415.333,85.5 415.333,74.5 416,63.5C 416.53,60.415 418.03,58.0817 420.5,56.5 Z M 73.5,95.5 C 75.5,95.5 77.5,95.5 79.5,95.5C 80.3104,101.193 80.3104,106.859 79.5,112.5C 79.1506,115.971 80.484,118.471 83.5,120C 96.8333,120.667 110.167,120.667 123.5,120C 126.516,118.471 127.849,115.971 127.5,112.5C 126.69,106.859 126.69,101.193 127.5,95.5C 138.167,95.5 148.833,95.5 159.5,95.5C 159.15,99.5463 159.817,103.38 161.5,107C 157.899,113.208 159.233,117.874 165.5,121C 177.833,121.667 190.167,121.667 202.5,121C 208.758,117.391 210.092,112.391 206.5,106C 207.286,102.542 207.62,99.0418 207.5,95.5C 218.167,95.5 228.833,95.5 239.5,95.5C 239.15,99.5463 239.817,103.38 241.5,107C 239.477,110.183 238.977,113.683 240,117.5C 241.319,119.487 243.152,120.654 245.5,121C 257.5,121.667 269.5,121.667 281.5,121C 283.848,120.654 285.681,119.487 287,117.5C 288.023,113.683 287.523,110.183 285.5,107C 287.183,103.38 287.85,99.5463 287.5,95.5C 298.167,95.5 308.833,95.5 319.5,95.5C 319.15,99.5463 319.817,103.38 321.5,107C 319.477,110.183 318.977,113.683 320,117.5C 321.319,119.487 323.152,120.654 325.5,121C 337.5,121.667 349.5,121.667 361.5,121C 363.848,120.654 365.681,119.487 367,117.5C 368.023,113.683 367.523,110.183 365.5,107C 367.183,103.38 367.85,99.5463 367.5,95.5C 378.167,95.5 388.833,95.5 399.5,95.5C 399.15,99.5463 399.817,103.38 401.5,107C 399.477,110.183 398.977,113.683 400,117.5C 401.319,119.487 403.152,120.654 405.5,121C 417.5,121.667 429.5,121.667 441.5,121C 443.848,120.654 445.681,119.487 447,117.5C 448.023,113.683 447.523,110.183 445.5,107C 447.183,103.38 447.85,99.5463 447.5,95.5C 450.91,95.4571 454.243,95.9571 457.5,97C 459.667,97.8333 461.167,99.3333 462,101.5C 463.412,113.104 463.912,124.771 463.5,136.5C 330.167,136.5 196.833,136.5 63.5,136.5C 63.3335,126.161 63.5002,115.828 64,105.5C 64.679,99.6569 67.8457,96.3236 73.5,95.5 Z M 63.5,152.5 C 196.167,152.5 328.833,152.5 461.5,152.5C 449.663,253.197 437.496,353.863 425,454.5C 424.042,459.79 420.876,462.624 415.5,463C 290.833,463.667 166.167,463.667 41.5,463C 37.5615,462.786 34.7282,460.953 33,457.5C 32.3333,452.833 32.3333,448.167 33,443.5C 43.0371,346.461 53.2038,249.461 63.5,152.5 Z M 257.5,191.5 C 261.994,191.163 264.828,193.163 266,197.5C 270.798,212.896 275.798,228.229 281,243.5C 281.833,244.333 282.667,245.167 283.5,246C 301.768,247.294 320.101,247.961 338.5,248C 341.689,249.544 342.855,252.044 342,255.5C 340.878,257.624 339.378,259.457 337.5,261C 324.221,269.89 311.388,279.39 299,289.5C 297.85,291.754 297.516,294.087 298,296.5C 303.368,312.271 308.535,328.104 313.5,344C 311.622,349.774 307.956,351.441 302.5,349C 291.167,340.667 279.833,332.333 268.5,324C 265.774,321.97 262.774,320.47 259.5,319.5C 256.515,319.993 253.848,321.16 251.5,323C 239.167,332 226.833,341 214.5,350C 207.215,350.962 204.382,347.795 206,340.5C 210.868,326.229 215.535,311.895 220,297.5C 221.098,293.495 220.265,289.995 217.5,287C 203.72,277.553 190.22,267.72 177,257.5C 175.817,253.726 176.651,250.559 179.5,248C 197.167,247.667 214.833,247.333 232.5,247C 234.939,246.226 236.773,244.726 238,242.5C 242.798,227.104 247.798,211.771 253,196.5C 254.025,194.313 255.525,192.646 257.5,191.5 Z M 467.5,243.5 C 470.99,287.63 473.823,331.963 476,376.5C 477.407,395.152 478.073,413.818 478,432.5C 476.833,435 475,436.833 472.5,438C 463.173,438.5 453.839,438.666 444.5,438.5C 452.249,373.509 459.916,308.509 467.5,243.5 Z M 363.5,383.5 C 368.128,383.116 372.461,383.95 376.5,386C 373.651,389.016 370.651,391.85 367.5,394.5C 364.349,391.85 361.349,389.016 358.5,386C 360.175,385.015 361.842,384.181 363.5,383.5 Z M 345.5,397.5 C 351.298,402.797 356.965,408.297 362.5,414C 365.833,416 369.167,416 372.5,414C 378,408.5 383.5,403 389,397.5C 393.613,412.012 389.113,422.512 375.5,429C 357.229,432.707 346.896,425.374 344.5,407C 344.656,403.8 344.989,400.633 345.5,397.5 Z"/></g>
<g><path style="opacity:0.93"   d="M 254.5,174.5 C 266.403,173.533 275.236,178.2 281,188.5C 285.603,202.141 290.103,215.808 294.5,229.5C 310.156,230.333 325.823,230.833 341.5,231C 354.76,235.337 360.593,244.504 359,258.5C 358.144,262.544 356.478,266.211 354,269.5C 341.379,278.888 328.879,288.388 316.5,298C 321.979,313.103 326.646,328.436 330.5,344C 327.305,362.842 316.305,370.176 297.5,366C 284.656,357.152 271.823,348.318 259,339.5C 246.271,348.451 233.437,357.284 220.5,366C 198.287,369.454 187.787,359.954 189,337.5C 194.045,324.041 198.045,310.375 201,296.5C 187.794,287.561 175.127,277.894 163,267.5C 155.413,252.224 158.913,240.391 173.5,232C 190.1,230.71 206.767,230.043 223.5,230C 228.665,215.172 233.832,200.339 239,185.5C 242.955,180.033 248.122,176.366 254.5,174.5 Z M 257.5,191.5 C 255.525,192.646 254.025,194.313 253,196.5C 247.798,211.771 242.798,227.104 238,242.5C 236.773,244.726 234.939,246.226 232.5,247C 214.833,247.333 197.167,247.667 179.5,248C 176.651,250.559 175.817,253.726 177,257.5C 190.22,267.72 203.72,277.553 217.5,287C 220.265,289.995 221.098,293.495 220,297.5C 215.535,311.895 210.868,326.229 206,340.5C 204.382,347.795 207.215,350.962 214.5,350C 226.833,341 239.167,332 251.5,323C 253.848,321.16 256.515,319.993 259.5,319.5C 262.774,320.47 265.774,321.97 268.5,324C 279.833,332.333 291.167,340.667 302.5,349C 307.956,351.441 311.622,349.774 313.5,344C 308.535,328.104 303.368,312.271 298,296.5C 297.516,294.087 297.85,291.754 299,289.5C 311.388,279.39 324.221,269.89 337.5,261C 339.378,259.457 340.878,257.624 342,255.5C 342.855,252.044 341.689,249.544 338.5,248C 320.101,247.961 301.768,247.294 283.5,246C 282.667,245.167 281.833,244.333 281,243.5C 275.798,228.229 270.798,212.896 266,197.5C 264.828,193.163 261.994,191.163 257.5,191.5 Z"/></g>
<g><path style="opacity:0.94"   d="M 412.5,350.5 C 421.705,350.206 425.205,354.54 423,363.5C 415.833,370.667 408.667,377.833 401.5,385C 409.645,400.233 409.479,415.4 401,430.5C 389.176,445.149 374.009,450.315 355.5,446C 333.812,437.14 324.645,420.974 328,397.5C 335.219,375.474 350.385,365.307 373.5,367C 379.38,368.469 385.046,370.136 390.5,372C 397.729,364.603 405.062,357.437 412.5,350.5 Z M 363.5,383.5 C 361.842,384.181 360.175,385.015 358.5,386C 361.349,389.016 364.349,391.85 367.5,394.5C 370.651,391.85 373.651,389.016 376.5,386C 372.461,383.95 368.128,383.116 363.5,383.5 Z M 345.5,397.5 C 344.989,400.633 344.656,403.8 344.5,407C 346.896,425.374 357.229,432.707 375.5,429C 389.113,422.512 393.613,412.012 389,397.5C 383.5,403 378,408.5 372.5,414C 369.167,416 365.833,416 362.5,414C 356.965,408.297 351.298,402.797 345.5,397.5 Z"/></g>
<g><path style="opacity:0.981"  d="M 83.5,351.5 C 107.502,351.333 131.502,351.5 155.5,352C 157.333,352.5 158.5,353.667 159,355.5C 159.667,358.167 159.667,360.833 159,363.5C 158.5,365.333 157.333,366.5 155.5,367C 131.5,367.667 107.5,367.667 83.5,367C 80.484,365.471 79.1506,362.971 79.5,359.5C 79.2824,355.934 80.6157,353.268 83.5,351.5 Z"/></g>
<g><path style="opacity:0.931"  d="M 131.5,383.5 C 137.621,383.09 143.621,383.59 149.5,385C 154.196,395.45 150.863,400.283 139.5,399.5C 129.665,401.166 125.832,397.166 128,387.5C 128.69,385.65 129.856,384.316 131.5,383.5 Z"/></g>
<g><path style="opacity:0.96"   d="M 75.5,384.5 C 86.1719,384.333 96.8385,384.5 107.5,385C 109.333,385.5 110.5,386.667 111,388.5C 111.667,391.167 111.667,393.833 111,396.5C 110.5,398.333 109.333,399.5 107.5,400C 96.8333,400.667 86.1667,400.667 75.5,400C 72.484,398.471 71.1506,395.971 71.5,392.5C 71.2824,388.934 72.6157,386.268 75.5,384.5 Z"/></g>
<g><path style="opacity:0.972"  d="M 67.5,416.5 C 83.5035,416.333 99.5035,416.5 115.5,417C 117.333,417.5 118.5,418.667 119,420.5C 119.667,423.167 119.667,425.833 119,428.5C 118.5,430.333 117.333,431.5 115.5,432C 99.5,432.667 83.5,432.667 67.5,432C 64.484,430.471 63.1506,427.971 63.5,424.5C 63.2824,420.934 64.6157,418.268 67.5,416.5 Z"/></g>
</svg>
