<?xml version="1.0" encoding="UTF-8"?>
<!DOCTYPE svg PUBLIC "-//W3C//DTD SVG 1.1//EN" "http://www.w3.org/Graphics/SVG/1.1/DTD/svg11.dtd">
<svg xmlns="http://www.w3.org/2000/svg" version="1.1" viewBox="0 0 512 512" style="shape-rendering:geometricPrecision; text-rendering:geometricPrecision; image-rendering:optimizeQuality; fill-rule:evenodd; clip-rule:evenodd" xmlns:xlink="http://www.w3.org/1999/xlink">
<g><path style="opacity:0.934" d="M 140.5,17.5 C 183.483,13.9465 221.816,25.2799 255.5,51.5C 289.174,25.1167 327.507,13.95 370.5,18C 380.908,18.7593 391.241,20.0926 401.5,22C 404.057,22.6853 405.891,24.1853 407,26.5C 407.167,61.3333 407.333,96.1667 407.5,131C 407.661,166.583 407.161,202.083 406,237.5C 404.147,239.592 401.814,240.592 399,240.5C 347.896,232.117 301.396,242.95 259.5,273C 256.036,273.817 252.702,273.483 249.5,272C 208.111,242.697 162.278,232.197 112,240.5C 108.196,240.6 105.529,238.934 104,235.5C 103.333,165.833 103.333,96.1667 104,26.5C 104.935,23.8981 106.768,22.3981 109.5,22C 119.944,20.2391 130.277,18.7391 140.5,17.5 Z M 144.5,32.5 C 183.356,29.6206 217.522,40.6206 247,65.5C 247.667,127.5 247.667,189.5 247,251.5C 207.507,227.422 164.674,218.089 118.5,223.5C 118.5,160.833 118.5,98.1667 118.5,35.5C 127.344,34.8099 136.011,33.8099 144.5,32.5 Z M 344.5,32.5 C 360.567,32.5056 376.567,33.5056 392.5,35.5C 392.5,98.1667 392.5,160.833 392.5,223.5C 346.328,218.088 303.495,227.422 264,251.5C 263.333,189.5 263.333,127.5 264,65.5C 287.177,45.607 314.01,34.607 344.5,32.5 Z"/></g>
<g><path style="opacity:0.916" d="M 141.5,64.5 C 174.147,63.4244 204.48,71.091 232.5,87.5C 236.718,96.9017 233.718,101.068 223.5,100C 197.697,85.9656 170.03,78.9656 140.5,79C 135.003,73.6829 135.336,68.8495 141.5,64.5 Z"/></g>
<g><path style="opacity:0.921" d="M 351.5,64.5 C 358.947,64.0714 366.281,64.5714 373.5,66C 377.423,70.2606 377.423,74.594 373.5,79C 351.979,79.1479 330.979,82.4813 310.5,89C 302.438,91.8647 294.771,95.5314 287.5,100C 277.507,101.206 274.34,97.0393 278,87.5C 300.784,74.0703 325.284,66.4036 351.5,64.5 Z"/></g>
<g><path style="opacity:0.941" d="M 46.5,81.5 C 58.8378,81.3335 71.1712,81.5001 83.5,82C 90.5672,84.6358 92.0672,89.1358 88,95.5C 86.9326,96.1905 85.7659,96.6905 84.5,97C 70.8333,97.3333 57.1667,97.6667 43.5,98C 39,99.8333 35.8333,103 34,107.5C 33.5,195.833 33.3333,284.166 33.5,372.5C 181.5,372.5 329.5,372.5 477.5,372.5C 477.667,284.166 477.5,195.833 477,107.5C 475.167,103 472,99.8333 467.5,98C 453.5,97.6667 439.5,97.3333 425.5,97C 419.433,92.7345 419.099,88.0678 424.5,83C 440.167,82.3333 455.833,82.3333 471.5,83C 481.667,86.5 488.5,93.3333 492,103.5C 492.667,207.167 492.667,310.833 492,414.5C 488.162,427.172 479.662,434.339 466.5,436C 417.834,436.5 369.168,436.667 320.5,436.5C 320.5,450.5 320.5,464.5 320.5,478.5C 335.17,478.333 349.837,478.5 364.5,479C 368.696,481.981 369.529,485.814 367,490.5C 366.097,491.701 364.931,492.535 363.5,493C 291.5,493.667 219.5,493.667 147.5,493C 143.139,490.774 141.639,487.274 143,482.5C 143.833,481 145,479.833 146.5,479C 161.163,478.5 175.83,478.333 190.5,478.5C 190.5,464.5 190.5,450.5 190.5,436.5C 141.832,436.667 93.1655,436.5 44.5,436C 32.8645,434.357 24.6978,428.191 20,417.5C 18.3399,312.89 18.0066,208.223 19,103.5C 23.6278,90.3613 32.7945,83.028 46.5,81.5 Z M 73.5,294.5 C 81.4962,299.839 89.1629,305.672 96.5,312C 88.9095,317.713 81.4095,323.546 74,329.5C 73.5001,317.838 73.3335,306.171 73.5,294.5 Z M 33.5,387.5 C 181.5,387.5 329.5,387.5 477.5,387.5C 477.666,395.174 477.5,402.841 477,410.5C 475.141,415.026 471.974,418.192 467.5,420C 326.167,420.667 184.833,420.667 43.5,420C 39.0256,418.192 35.859,415.026 34,410.5C 33.5003,402.841 33.3336,395.174 33.5,387.5 Z M 205.5,436.5 C 238.833,436.5 272.167,436.5 305.5,436.5C 305.5,450.5 305.5,464.5 305.5,478.5C 272.167,478.5 238.833,478.5 205.5,478.5C 205.5,464.5 205.5,450.5 205.5,436.5 Z"/></g>
<g><path style="opacity:0.918" d="M 140.5,118.5 C 172.986,116.828 203.319,123.995 231.5,140C 234.394,142.909 235.227,146.409 234,150.5C 232.38,152.726 230.214,154.06 227.5,154.5C 200.697,140.133 172.031,132.966 141.5,133C 135.367,128.613 135.033,123.78 140.5,118.5 Z"/></g>
<g><path style="opacity:0.923" d="M 345.5,118.5 C 354.839,118.334 364.173,118.5 373.5,119C 376.394,121.909 377.227,125.409 376,129.5C 374.786,131.049 373.286,132.215 371.5,133C 349.143,132.671 327.476,136.337 306.5,144C 298.798,147.519 291.131,151.019 283.5,154.5C 276.956,152.969 274.789,148.969 277,142.5C 289.294,133.84 302.794,127.673 317.5,124C 326.873,121.644 336.206,119.811 345.5,118.5 Z"/></g>
<g><path style="opacity:0.918" d="M 141.5,171.5 C 174.021,170.38 204.354,177.88 232.5,194C 236.868,203.617 233.868,207.95 223.5,207C 197.775,192.652 170.109,185.652 140.5,186C 135.195,180.737 135.528,175.904 141.5,171.5 Z"/></g>
<g><path style="opacity:0.919" d="M 351.5,171.5 C 359.279,171.068 366.946,171.568 374.5,173C 377.367,177.591 377.034,181.924 373.5,186C 348.197,185.827 323.864,190.494 300.5,200C 296.007,202.079 291.674,204.412 287.5,207C 277.507,208.206 274.34,204.039 278,194.5C 300.784,181.07 325.284,173.404 351.5,171.5 Z"/></g>
<g><path style="opacity:0.916" d="M 65.5,274.5 C 68.1873,274.336 70.854,274.503 73.5,275C 87.2986,284.32 100.465,294.486 113,305.5C 115.714,311.847 114.547,317.347 109.5,322C 98.881,329.618 88.5476,337.618 78.5,346C 69.4954,351.864 62.6621,350.031 58,340.5C 57.3333,321.5 57.3333,302.5 58,283.5C 58.9227,279.086 61.4227,276.086 65.5,274.5 Z M 73.5,294.5 C 73.3335,306.171 73.5001,317.838 74,329.5C 81.4095,323.546 88.9095,317.713 96.5,312C 89.1629,305.672 81.4962,299.839 73.5,294.5 Z"/></g>
<g><path style="opacity:0.954" d="M 177.5,290.5 C 186.807,290.372 190.474,295.039 188.5,304.5C 275.501,304.333 362.501,304.5 449.5,305C 455.062,310.163 454.729,314.829 448.5,319C 361.834,319.5 275.167,319.667 188.5,319.5C 188.837,323.308 188.337,326.974 187,330.5C 182.375,334.646 178.041,334.313 174,329.5C 173.502,326.183 173.335,322.85 173.5,319.5C 160.496,319.667 147.496,319.5 134.5,319C 128.337,314.816 128.004,310.149 133.5,305C 146.829,304.5 160.163,304.333 173.5,304.5C 173.335,301.15 173.502,297.817 174,294.5C 174.69,292.65 175.856,291.316 177.5,290.5 Z"/></g>
</svg>
