<?xml version="1.0" encoding="UTF-8"?>
<!DOCTYPE svg PUBLIC "-//W3C//DTD SVG 1.1//EN" "http://www.w3.org/Graphics/SVG/1.1/DTD/svg11.dtd">
<svg xmlns="http://www.w3.org/2000/svg" version="1.1" viewBox="0 0 512 512" style="shape-rendering:geometricPrecision; text-rendering:geometricPrecision; image-rendering:optimizeQuality; fill-rule:evenodd; clip-rule:evenodd" xmlns:xlink="http://www.w3.org/1999/xlink">
<g><path style="opacity:0.926" d="M 274.5,-0.5 C 284.833,-0.5 295.167,-0.5 305.5,-0.5C 372.742,12.5818 410.409,53.2484 418.5,121.5C 457.904,129.066 486.07,151.066 503,187.5C 507.048,197.29 509.881,207.29 511.5,217.5C 511.5,227.167 511.5,236.833 511.5,246.5C 500.434,302.231 466.767,334.564 410.5,343.5C 410.167,338.167 409.833,332.833 409.5,327.5C 448.102,322.06 474.935,301.393 490,265.5C 504.934,212.608 488.768,172.441 441.5,145C 429.079,139.478 416.079,136.311 402.5,135.5C 402.942,82.5065 379.275,45.0065 331.5,23C 283.374,6.65799 241.541,16.4913 206,52.5C 194.834,65.8223 186.501,80.8223 181,97.5C 160.763,83.2805 141.43,84.2805 123,100.5C 114.776,110.679 111.276,122.345 112.5,135.5C 65.8839,137.622 34.7173,160.622 19,204.5C 9.06133,243.929 18.8947,277.429 48.5,305C 63.8361,317.839 81.5028,325.339 101.5,327.5C 101.167,332.833 100.833,338.167 100.5,343.5C 44.2419,334.573 10.5753,302.24 -0.5,246.5C -0.5,236.833 -0.5,227.167 -0.5,217.5C 10.1885,163.644 42.5218,131.144 96.5,120C 104.838,86.0004 126.504,70.0004 161.5,72C 165.225,72.8541 168.892,73.5208 172.5,74C 193.856,31.825 227.856,6.99164 274.5,-0.5 Z"/></g>
<g><path style="opacity:0.938" d="M 271.5,109.5 C 276.833,109.5 282.167,109.5 287.5,109.5C 287.5,115.833 287.5,122.167 287.5,128.5C 293.833,128.5 300.167,128.5 306.5,128.5C 306.5,165.833 306.5,203.167 306.5,240.5C 301.167,240.5 295.833,240.5 290.5,240.5C 290.5,208.5 290.5,176.5 290.5,144.5C 265.5,144.5 240.5,144.5 215.5,144.5C 215.5,219.167 215.5,293.833 215.5,368.5C 236.5,368.5 257.5,368.5 278.5,368.5C 278.5,373.833 278.5,379.167 278.5,384.5C 252.167,384.5 225.833,384.5 199.5,384.5C 199.5,299.167 199.5,213.833 199.5,128.5C 223.5,128.5 247.5,128.5 271.5,128.5C 271.5,122.167 271.5,115.833 271.5,109.5 Z"/></g>
<g><path style="opacity:0.918" d="M 225.5,167.5 C 243.833,167.5 262.167,167.5 280.5,167.5C 280.5,172.833 280.5,178.167 280.5,183.5C 262.167,183.5 243.833,183.5 225.5,183.5C 225.5,178.167 225.5,172.833 225.5,167.5 Z"/></g>
<g><path style="opacity:0.93"  d="M 181.5,178.5 C 182.822,178.33 183.989,178.663 185,179.5C 186.737,183.542 188.57,187.542 190.5,191.5C 190.291,192.086 189.957,192.586 189.5,193C 169.257,202.705 149.09,212.539 129,222.5C 128.5,271.166 128.333,319.832 128.5,368.5C 148.167,368.5 167.833,368.5 187.5,368.5C 187.5,373.833 187.5,379.167 187.5,384.5C 151.165,384.667 114.832,384.5 78.5,384C 77.5286,378.928 77.1953,373.762 77.5,368.5C 89.1667,368.5 100.833,368.5 112.5,368.5C 112.333,316.499 112.5,264.499 113,212.5C 135.971,201.264 158.805,189.931 181.5,178.5 Z"/></g>
<g><path style="opacity:0.978" d="M 225.5,197.5 C 243.833,197.5 262.167,197.5 280.5,197.5C 280.5,202.5 280.5,207.5 280.5,212.5C 262.167,212.5 243.833,212.5 225.5,212.5C 225.5,207.5 225.5,202.5 225.5,197.5 Z"/></g>
<g><path style="opacity:0.931" d="M 342.5,216.5 C 343.873,216.343 345.207,216.51 346.5,217C 363.667,232.167 380.833,247.333 398,262.5C 398.5,297.832 398.667,333.165 398.5,368.5C 410.167,368.5 421.833,368.5 433.5,368.5C 433.805,373.762 433.471,378.928 432.5,384C 385.168,384.5 337.835,384.667 290.5,384.5C 290.333,343.832 290.5,303.165 291,262.5C 308.361,247.301 325.528,231.968 342.5,216.5 Z M 343.5,237.5 C 356.736,247.893 369.569,258.893 382,270.5C 382.5,303.165 382.667,335.832 382.5,368.5C 357.167,368.5 331.833,368.5 306.5,368.5C 306.333,335.832 306.5,303.165 307,270.5C 319.362,259.634 331.528,248.634 343.5,237.5 Z"/></g>
<g><path style="opacity:0.918" d="M 225.5,226.5 C 243.833,226.5 262.167,226.5 280.5,226.5C 280.5,231.833 280.5,237.167 280.5,242.5C 262.167,242.5 243.833,242.5 225.5,242.5C 225.5,237.167 225.5,231.833 225.5,226.5 Z"/></g>
<g><path style="opacity:0.888" d="M 470.5,231.5 C 475.833,231.5 481.167,231.5 486.5,231.5C 486.625,237.203 486.292,242.87 485.5,248.5C 480.244,247.815 475.077,246.815 470,245.5C 470.378,240.92 470.545,236.254 470.5,231.5 Z"/></g>
<g><path style="opacity:0.931" d="M 141.5,232.5 C 146.833,232.5 152.167,232.5 157.5,232.5C 157.5,272.833 157.5,313.167 157.5,353.5C 152.167,353.5 146.833,353.5 141.5,353.5C 141.5,313.167 141.5,272.833 141.5,232.5 Z"/></g>
<g><path style="opacity:0.879" d="M 169.5,232.5 C 174.833,232.5 180.167,232.5 185.5,232.5C 185.5,237.833 185.5,243.167 185.5,248.5C 180.167,248.5 174.833,248.5 169.5,248.5C 169.5,243.167 169.5,237.833 169.5,232.5 Z"/></g>
<g><path style="opacity:0.867" d="M 467.5,253.5 C 472.9,254.739 477.9,256.739 482.5,259.5C 480.97,264.892 478.637,269.892 475.5,274.5C 470.795,272.153 466.462,269.32 462.5,266C 464.468,261.924 466.135,257.757 467.5,253.5 Z"/></g>
<g><path style="opacity:0.918" d="M 225.5,255.5 C 243.833,255.5 262.167,255.5 280.5,255.5C 280.5,260.833 280.5,266.167 280.5,271.5C 262.167,271.5 243.833,271.5 225.5,271.5C 225.5,266.167 225.5,260.833 225.5,255.5 Z"/></g>
<g><path style="opacity:0.879" d="M 169.5,257.5 C 174.833,257.5 180.167,257.5 185.5,257.5C 185.5,262.833 185.5,268.167 185.5,273.5C 180.167,273.5 174.833,273.5 169.5,273.5C 169.5,268.167 169.5,262.833 169.5,257.5 Z"/></g>
<g><path style="opacity:0.903" d="M 456.5,273.5 C 461.628,275.904 466.295,279.071 470.5,283C 459.046,298.604 444.046,309.437 425.5,315.5C 423.396,311.768 421.896,307.768 421,303.5C 420.219,302.056 420.386,300.723 421.5,299.5C 436.053,294.6 447.72,285.933 456.5,273.5 Z"/></g>
<g><path style="opacity:0.926" d="M 169.5,282.5 C 174.833,282.5 180.167,282.5 185.5,282.5C 185.5,306.167 185.5,329.833 185.5,353.5C 180.167,353.5 174.833,353.5 169.5,353.5C 169.5,329.833 169.5,306.167 169.5,282.5 Z"/></g>
<g><path style="opacity:0.918" d="M 225.5,284.5 C 243.833,284.5 262.167,284.5 280.5,284.5C 280.5,289.833 280.5,295.167 280.5,300.5C 262.167,300.5 243.833,300.5 225.5,300.5C 225.5,295.167 225.5,289.833 225.5,284.5 Z"/></g>
<g><path style="opacity:0.865" d="M 319.5,284.5 C 325.5,284.5 331.5,284.5 337.5,284.5C 337.5,289.833 337.5,295.167 337.5,300.5C 331.5,300.5 325.5,300.5 319.5,300.5C 319.5,295.167 319.5,289.833 319.5,284.5 Z"/></g>
<g><path style="opacity:0.914" d="M 351.5,284.5 C 357.167,284.5 362.833,284.5 368.5,284.5C 368.5,289.833 368.5,295.167 368.5,300.5C 362.833,300.5 357.167,300.5 351.5,300.5C 351.5,295.167 351.5,289.833 351.5,284.5 Z"/></g>
<g><path style="opacity:0.865" d="M 319.5,314.5 C 325.5,314.5 331.5,314.5 337.5,314.5C 337.5,319.833 337.5,325.167 337.5,330.5C 331.5,330.5 325.5,330.5 319.5,330.5C 319.5,325.167 319.5,319.833 319.5,314.5 Z"/></g>
<g><path style="opacity:0.914" d="M 351.5,314.5 C 357.167,314.5 362.833,314.5 368.5,314.5C 368.5,319.833 368.5,325.167 368.5,330.5C 362.833,330.5 357.167,330.5 351.5,330.5C 351.5,325.167 351.5,319.833 351.5,314.5 Z"/></g>
<g><path style="opacity:0.927" d="M 180.5,511.5 C 175.5,511.5 170.5,511.5 165.5,511.5C 146.455,504.076 139.621,490.409 145,470.5C 148.785,462.214 154.951,456.548 163.5,453.5C 164.332,442.849 164.832,432.182 165,421.5C 175.347,410.986 185.847,400.652 196.5,390.5C 200.5,393.833 204.167,397.5 207.5,401.5C 198.848,410.652 190.014,419.652 181,428.5C 180.5,436.827 180.334,445.16 180.5,453.5C 197.284,459.041 204.451,470.708 202,488.5C 199.082,500.248 191.915,507.915 180.5,511.5 Z M 168.5,468.5 C 181.631,467.464 187.464,473.464 186,486.5C 182.219,494.305 176.053,497.138 167.5,495C 155.445,485.676 155.778,476.842 168.5,468.5 Z"/></g>
<g><path style="opacity:0.926" d="M 345.5,511.5 C 340.5,511.5 335.5,511.5 330.5,511.5C 312.343,504.19 305.51,490.857 310,471.5C 313.717,461.9 320.55,455.9 330.5,453.5C 330.666,445.16 330.5,436.827 330,428.5C 320.986,419.652 312.152,410.652 303.5,401.5C 306.833,397.5 310.5,393.833 314.5,390.5C 325.153,400.652 335.653,410.986 346,421.5C 346.168,432.182 346.668,442.849 347.5,453.5C 365.282,461.4 371.449,474.733 366,493.5C 361.744,502.598 354.911,508.598 345.5,511.5 Z M 333.5,468.5 C 347.375,467.863 353.208,474.196 351,487.5C 345.642,495.932 338.476,497.765 329.5,493C 321.98,483.312 323.313,475.145 333.5,468.5 Z"/></g>
<g><path style="opacity:0.929" d="M 247.5,395.5 C 252.833,395.5 258.167,395.5 263.5,395.5C 263.333,406.172 263.5,416.839 264,427.5C 282.469,435.441 288.802,449.108 283,468.5C 274.163,484.449 260.997,489.616 243.5,484C 227.551,475.163 222.384,461.997 228,444.5C 231.819,436.013 238.153,430.347 247,427.5C 247.5,416.839 247.667,406.172 247.5,395.5 Z M 252.5,442.5 C 267.131,443.436 271.965,450.77 267,464.5C 259.333,472.5 251.667,472.5 244,464.5C 239.48,454.216 242.313,446.883 252.5,442.5 Z"/></g>
</svg>
