<?xml version="1.0" encoding="UTF-8"?>
<!DOCTYPE svg PUBLIC "-//W3C//DTD SVG 1.1//EN" "http://www.w3.org/Graphics/SVG/1.1/DTD/svg11.dtd">
<svg xmlns="http://www.w3.org/2000/svg" version="1.1" viewBox="0 0 512 512" style="shape-rendering:geometricPrecision; text-rendering:geometricPrecision; image-rendering:optimizeQuality; fill-rule:evenodd; clip-rule:evenodd" xmlns:xlink="http://www.w3.org/1999/xlink">
<g><path style="opacity:0.965" d="M 187.5,25.5 C 196.755,24.3757 203.255,28.0424 207,36.5C 207.333,54.1667 207.667,71.8333 208,89.5C 208.118,94.5187 209.451,99.1854 212,103.5C 234.667,128.833 257.333,154.167 280,179.5C 290.271,195.75 289.938,211.75 279,227.5C 276.463,230.372 273.63,232.872 270.5,235C 260.729,239.034 250.895,242.867 241,246.5C 239.97,256.152 238.97,265.818 238,275.5C 235.183,282.302 231.016,288.135 225.5,293C 211.768,299.865 197.768,306.198 183.5,312C 194.982,318.494 205.482,326.327 215,335.5C 221.568,346.391 223.235,358.058 220,370.5C 213.586,382.329 206.92,393.996 200,405.5C 194.395,412.714 187.228,417.548 178.5,420C 157.876,421.274 137.209,421.941 116.5,422C 109.508,423.742 104.008,427.575 100,433.5C 92.5888,448.656 84.9221,463.656 77,478.5C 68,487.833 59,487.833 50,478.5C 47.5758,473.43 46.9091,468.097 48,462.5C 55.6667,447.167 63.3333,431.833 71,416.5C 80.8779,401.47 94.7112,392.304 112.5,389C 131.833,388.667 151.167,388.333 170.5,388C 176.708,379.087 182.541,369.921 188,360.5C 189.041,357.364 188.207,354.864 185.5,353C 168.233,342.118 151.4,330.618 135,318.5C 129.458,306.084 132.958,297.25 145.5,292C 165.167,283.667 184.833,275.333 204.5,267C 205.893,265.829 206.727,264.329 207,262.5C 207.333,255.167 207.667,247.833 208,240.5C 210.441,231.069 215.608,223.569 223.5,218C 233.637,213.625 243.804,209.458 254,205.5C 254.667,203.833 254.667,202.167 254,200.5C 232.703,176.201 211.037,152.201 189,128.5C 182.177,120.382 177.843,111.049 176,100.5C 175.333,79.1667 175.333,57.8333 176,36.5C 178.437,31.2262 182.271,27.5595 187.5,25.5 Z"/></g>
<g><path style="opacity:0.96"  d="M 392.5,196.5 C 398.275,195.775 403.608,196.941 408.5,200C 454.419,241.756 471.585,293.256 460,354.5C 451.694,390.981 432.528,420.147 402.5,442C 385.889,443.389 379.055,435.889 382,419.5C 390,410.833 398,402.167 406,393.5C 433.79,353.691 438.123,311.358 419,266.5C 409.66,249.48 397.66,234.48 383,221.5C 378.429,210.067 381.595,201.734 392.5,196.5 Z"/></g>
<g><path style="opacity:0.959" d="M 348.5,239.5 C 354.675,238.643 360.342,239.81 365.5,243C 395.942,271.333 406.442,305.833 397,346.5C 390.96,368.793 378.46,386.293 359.5,399C 348.709,401.748 341.542,397.915 338,387.5C 337.113,382.928 337.78,378.595 340,374.5C 370.469,347.167 375.469,315.833 355,280.5C 350.367,274.865 345.367,269.532 340,264.5C 335.185,253.442 338.019,245.108 348.5,239.5 Z"/></g>
<g><path style="opacity:0.957" d="M 295.5,271.5 C 301.105,270.908 306.439,271.741 311.5,274C 333.006,294.19 338.173,318.023 327,345.5C 322.603,354.564 316.103,361.731 307.5,367C 294.691,369.768 287.025,364.768 284.5,352C 285.207,345.085 288.374,339.585 294,335.5C 302.858,321.164 300.858,308.497 288,297.5C 282.305,286.421 284.805,277.755 295.5,271.5 Z"/></g>
</svg>
