<?xml version="1.0" encoding="UTF-8"?>
<!DOCTYPE svg PUBLIC "-//W3C//DTD SVG 1.1//EN" "http://www.w3.org/Graphics/SVG/1.1/DTD/svg11.dtd">
<svg xmlns="http://www.w3.org/2000/svg" version="1.1" viewBox="0 0 512 512" style="shape-rendering:geometricPrecision; text-rendering:geometricPrecision; image-rendering:optimizeQuality; fill-rule:evenodd; clip-rule:evenodd" xmlns:xlink="http://www.w3.org/1999/xlink">
<g><path style="opacity:0.972" d="M 206.5,15.5 C 256.854,10.9885 298.021,27.9885 330,66.5C 364.543,57.6795 392.21,67.6795 413,96.5C 419.009,106.36 422.509,117.026 423.5,128.5C 466.02,138.521 490.187,165.187 496,208.5C 497.168,250.64 478.668,280.473 440.5,298C 434.291,300.136 427.958,301.802 421.5,303C 368.834,303.5 316.168,303.667 263.5,303.5C 263.183,306.572 263.516,309.572 264.5,312.5C 270.833,315.5 275.5,320.167 278.5,326.5C 325.496,327.333 372.496,327.833 419.5,328C 421.333,328.5 422.5,329.667 423,331.5C 423.5,343.495 423.667,355.495 423.5,367.5C 439.17,367.333 454.837,367.5 470.5,368C 478.667,370.833 484.167,376.333 487,384.5C 487.5,405.497 487.667,426.497 487.5,447.5C 490.961,447.146 493.461,448.479 495,451.5C 495.667,460.5 495.667,469.5 495,478.5C 492.167,486.667 486.667,492.167 478.5,495C 436.5,495.667 394.5,495.667 352.5,495C 344.333,492.167 338.833,486.667 336,478.5C 335.333,469.5 335.333,460.5 336,451.5C 337.539,448.479 340.039,447.146 343.5,447.5C 343.333,426.497 343.5,405.497 344,384.5C 346.833,376.333 352.333,370.833 360.5,368C 376.163,367.5 391.83,367.333 407.5,367.5C 407.5,359.5 407.5,351.5 407.5,343.5C 364.495,343.167 321.495,343.5 278.5,344.5C 275.5,350.833 270.833,355.5 264.5,358.5C 263.516,361.428 263.183,364.428 263.5,367.5C 272.25,367.09 280.916,367.59 289.5,369C 295,371.833 299.167,376 302,381.5C 303.645,413.773 303.978,446.106 303,478.5C 300.649,485.519 296.149,490.686 289.5,494C 278.235,495.134 266.901,495.634 255.5,495.5C 244.099,495.634 232.765,495.134 221.5,494C 214.851,490.686 210.351,485.519 208,478.5C 207.022,446.106 207.355,413.773 209,381.5C 211.833,376 216,371.833 221.5,369C 230.084,367.59 238.75,367.09 247.5,367.5C 247.817,364.428 247.484,361.428 246.5,358.5C 240.167,355.5 235.5,350.833 232.5,344.5C 189.505,343.5 146.505,343.167 103.5,343.5C 103.5,346.167 103.5,348.833 103.5,351.5C 121.836,351.333 140.17,351.5 158.5,352C 166.667,354.833 172.167,360.333 175,368.5C 175.667,394.5 175.667,420.5 175,446.5C 172.167,454.667 166.667,460.167 158.5,463C 145.504,463.5 132.504,463.667 119.5,463.5C 119.5,468.833 119.5,474.167 119.5,479.5C 124.833,479.5 130.167,479.5 135.5,479.5C 135.5,484.833 135.5,490.167 135.5,495.5C 108.833,495.5 82.1667,495.5 55.5,495.5C 55.5,490.167 55.5,484.833 55.5,479.5C 60.8333,479.5 66.1667,479.5 71.5,479.5C 71.5,474.167 71.5,468.833 71.5,463.5C 58.4957,463.667 45.4957,463.5 32.5,463C 24.3333,460.167 18.8333,454.667 16,446.5C 15.3333,420.5 15.3333,394.5 16,368.5C 18.8333,360.333 24.3333,354.833 32.5,352C 50.8303,351.5 69.1636,351.333 87.5,351.5C 87.3337,344.825 87.5004,338.158 88,331.5C 88.5,329.667 89.6667,328.5 91.5,328C 138.504,327.833 185.504,327.333 232.5,326.5C 235.5,320.167 240.167,315.5 246.5,312.5C 247.484,309.572 247.817,306.572 247.5,303.5C 195.166,303.667 142.832,303.5 90.5,303C 51.5313,295.698 27.0313,272.865 17,234.5C 10.554,196.147 22.7207,165.314 53.5,142C 64.515,134.829 76.515,130.329 89.5,128.5C 97.6356,84.3684 121.302,51.535 160.5,30C 175.286,23.0135 190.62,18.1801 206.5,15.5 Z M 220.5,31.5 C 251.121,31.7591 278.121,41.5924 301.5,61C 309.253,68.4165 316.587,76.0832 323.5,84C 326.167,84.6667 328.833,84.6667 331.5,84C 357.163,75.6243 378.663,81.791 396,102.5C 403.695,113.931 407.695,126.598 408,140.5C 409.214,142.049 410.714,143.215 412.5,144C 450.43,149.264 472.597,170.764 479,208.5C 480.378,241.926 466.212,266.092 436.5,281C 427.561,284.788 418.227,286.788 408.5,287C 306.5,287.667 204.5,287.667 102.5,287C 63.3999,283.232 40.2333,262.065 33,223.5C 31.4256,185.758 48.2589,160.258 83.5,147C 88.7608,145.615 94.0941,144.615 99.5,144C 101.286,143.215 102.786,142.049 104,140.5C 113.208,83.6268 145.708,48.1268 201.5,34C 207.988,33.2164 214.322,32.383 220.5,31.5 Z M 252.5,208.5 C 261.85,208.365 264.517,212.532 260.5,221C 251.956,224.322 248.123,221.489 249,212.5C 249.69,210.65 250.856,209.316 252.5,208.5 Z M 252.5,328.5 C 261.85,328.365 264.517,332.532 260.5,341C 251.956,344.322 248.123,341.489 249,332.5C 249.69,330.65 250.856,329.316 252.5,328.5 Z M 39.5,367.5 C 77.8945,367.018 116.228,367.518 154.5,369C 157.094,370.339 158.594,372.506 159,375.5C 159.5,388.829 159.667,402.163 159.5,415.5C 116.833,415.5 74.1667,415.5 31.5,415.5C 31.3334,402.163 31.5001,388.829 32,375.5C 32.6804,370.989 35.1804,368.323 39.5,367.5 Z M 231.5,383.5 C 247.503,383.333 263.503,383.5 279.5,384C 284,384.5 286.5,387 287,391.5C 287.667,418.167 287.667,444.833 287,471.5C 286.5,476 284,478.5 279.5,479C 263.5,479.667 247.5,479.667 231.5,479C 227,478.5 224.5,476 224,471.5C 223.333,444.833 223.333,418.167 224,391.5C 224.68,386.989 227.18,384.323 231.5,383.5 Z M 367.5,383.5 C 399.502,383.333 431.502,383.5 463.5,384C 468,384.5 470.5,387 471,391.5C 471.5,410.164 471.667,428.83 471.5,447.5C 434.167,447.5 396.833,447.5 359.5,447.5C 359.333,428.83 359.5,410.164 360,391.5C 360.68,386.989 363.18,384.323 367.5,383.5 Z M 31.5,431.5 C 74.1667,431.5 116.833,431.5 159.5,431.5C 159.887,436.08 159.053,440.414 157,444.5C 155.352,445.717 153.519,446.55 151.5,447C 114.167,447.667 76.8333,447.667 39.5,447C 35,446.5 32.5,444 32,439.5C 31.5026,436.854 31.3359,434.187 31.5,431.5 Z M 87.5,463.5 C 92.8333,463.5 98.1667,463.5 103.5,463.5C 103.5,468.833 103.5,474.167 103.5,479.5C 98.1667,479.5 92.8333,479.5 87.5,479.5C 87.5,474.167 87.5,468.833 87.5,463.5 Z M 351.5,463.5 C 394.167,463.5 436.833,463.5 479.5,463.5C 479.887,468.08 479.053,472.414 477,476.5C 475.352,477.717 473.519,478.55 471.5,479C 434.167,479.667 396.833,479.667 359.5,479C 355,478.5 352.5,476 352,471.5C 351.503,468.854 351.336,466.187 351.5,463.5 Z"/></g>
<g><path style="opacity:0.929" d="M 239.5,95.5 C 281.116,91.6468 316.783,104.147 346.5,133C 342.652,137.016 338.652,140.849 334.5,144.5C 297.498,111.111 255.832,103.611 209.5,122C 197.46,128.017 186.46,135.517 176.5,144.5C 172.348,140.849 168.348,137.016 164.5,133C 185.264,112.023 210.264,99.5234 239.5,95.5 Z"/></g>
<g><path style="opacity:0.925" d="M 241.5,127.5 C 266.019,124.797 288.685,129.964 309.5,143C 314.773,146.473 319.439,150.639 323.5,155.5C 319.849,159.652 316.016,163.652 312,167.5C 284.799,142.994 254.299,137.827 220.5,152C 212.715,156.309 205.548,161.476 199,167.5C 194.984,163.652 191.151,159.652 187.5,155.5C 202.479,140.344 220.479,131.01 241.5,127.5 Z"/></g>
<g><path style="opacity:0.922" d="M 244.5,159.5 C 266.559,156.591 285.559,162.758 301.5,178C 297.333,182.167 293.167,186.333 289,190.5C 273.813,175.999 256.313,172.499 236.5,180C 231.107,182.726 226.274,186.226 222,190.5C 217.833,186.333 213.667,182.167 209.5,178C 219.556,168.641 231.222,162.474 244.5,159.5 Z"/></g>
<g><path style="opacity:0.932" d="M 248.5,191.5 C 263.367,189.012 273.534,194.678 279,208.5C 281.982,223.376 276.482,233.543 262.5,239C 247.624,241.982 237.457,236.482 232,222.5C 229.146,207.533 234.646,197.199 248.5,191.5 Z M 252.5,208.5 C 250.856,209.316 249.69,210.65 249,212.5C 248.123,221.489 251.956,224.322 260.5,221C 264.517,212.532 261.85,208.365 252.5,208.5 Z"/></g>
<g><path style="opacity:1" d="M 239.5,455.5 C 250.167,455.5 260.833,455.5 271.5,455.5C 271.5,460.833 271.5,466.167 271.5,471.5C 260.833,471.5 250.167,471.5 239.5,471.5C 239.5,466.167 239.5,460.833 239.5,455.5 Z"/></g>
</svg>
