<svg xmlns="http://www.w3.org/2000/svg" version="1.1" xmlns:xlink="http://www.w3.org/1999/xlink"  x="0" y="0" viewBox="0 0 64 64" style="enable-background:new 0 0 512 512" xml:space="preserve" class=""><g><path d="M20 28v10c0 3.31 2.69 6 6 6h12c3.31 0 6-2.69 6-6V28c0-3.31-2.69-6-6-6H26c-3.31 0-6 2.69-6 6zm22 0v10c0 2.21-1.79 4-4 4H26c-2.21 0-4-1.79-4-4V28c0-2.21 1.79-4 4-4h12c2.21 0 4 1.79 4 4z"  opacity="1"></path><path d="M39.3 35.5h-1.5v-5h1.5v-2h-5v2h1.5v5h-1.5v2h5zM26.75 37.5l.44-2h2.62l.44 2h2.05l-1.83-8.22a.997.997 0 0 0-.98-.78h-2c-.47 0-.87.33-.98.78l-1.83 8.22h2.05zm1.56-7h.4l.67 3h-1.73l.67-3z"  opacity="1"  ></path><path d="M32 63c5.87 0 11.59-1.65 16.53-4.77l-1.07-1.69A28.906 28.906 0 0 1 31.99 61c-15.99 0-29-13.01-29-29 0-7 2.56-13.78 7.12-19.02l-.34 2.97 1.99.23.7-6.06a.97.97 0 0 0-.33-.86c-.24-.22-.58-.3-.9-.23l-5.94 1.41.46 1.95 2.79-.67A31.154 31.154 0 0 0 1 32c0 17.09 13.91 31 31 31zM32 1c-5.88 0-11.59 1.65-16.53 4.77l1.07 1.69C21.16 4.54 26.51 3 32.01 3c15.99 0 29 13.01 29 29 0 7-2.56 13.78-7.12 19.02l.34-2.97-1.99-.23-.7 6.06c-.04.32.08.65.33.86.18.16.42.25.66.25.08 0 .16 0 .23-.03l5.94-1.41-.46-1.95-2.79.67c4.83-5.59 7.56-12.82 7.56-20.28 0-17.09-13.91-31-31-31z" opacity="1"  ></path><path d="M44.71 13h-3.42c-.55 0-1 .45-1 1v.72c-.42.14-.82.3-1.22.5l-.51-.51a.996.996 0 0 0-1.41 0l-2.43 2.43a.996.996 0 0 0 0 1.41l.51.51c-.22.44-.41.91-.57 1.43l1.91.59c.14-.46.3-.85.49-1.21.35-.65.25-1.46-.22-2.03l1.03-1.03c.57.47 1.38.57 2.03.23.46-.24.93-.42 1.47-.56.56-.17.94-.67.94-1.25v-.25h1.42v.23c0 .62.44 1.16 1 1.28.49.13.97.31 1.41.55.65.35 1.46.25 2.03-.22l1.03 1.03c-.47.57-.57 1.38-.23 2.02.19.37.35.75.47 1.12.22.72.85 1.22 1.59 1.28v1.43c-.74.06-1.36.55-1.6 1.29-.1.33-.24.68-.45 1.11-.35.65-.25 1.46.22 2.03l-1.03 1.03c-.57-.47-1.38-.57-2.02-.23-.37.19-.75.35-1.13.47l.6 1.91c.44-.14.88-.32 1.33-.54l.52.51c.19.2.45.29.71.29s.51-.1.71-.29l2.43-2.43a.996.996 0 0 0 0-1.41l-.51-.51c.23-.47.39-.86.5-1.22h.72c.55 0 1-.45 1-1v-3.42c0-.55-.45-1-1-1h-.72c-.14-.41-.3-.81-.5-1.22l.51-.51a.996.996 0 0 0 0-1.41l-2.43-2.43a.996.996 0 0 0-1.41 0l-.51.51c-.39-.2-.79-.36-1.22-.5v-.72c0-.55-.45-1-1-1z"  opacity="1"></path><path d="m44.7 25.46 1.1 1.67c1.38-.91 2.2-2.45 2.2-4.12 0-2.76-2.24-5-5-5-1.67 0-3.21.82-4.12 2.2l1.67 1.1c.54-.81 1.46-1.3 2.46-1.3 1.65 0 3 1.35 3 3 0 1-.49 1.92-1.3 2.46zM14 45.33h.4c.08.24.18.47.28.69l-.28.28a.996.996 0 0 0 0 1.41l1.88 1.88c.19.19.44.29.71.29s.52-.11.71-.29l.29-.28c.22.11.46.21.69.29v.4c0 .55.45 1 1 1h2.66c.55 0 1-.45 1-1v-.4c.24-.08.47-.18.69-.28l.28.28c.38.38 1.04.38 1.41 0l1.88-1.88a.996.996 0 0 0 0-1.41l-.29-.29c.12-.24.21-.47.29-.7l-1.9-.64c-.06.19-.16.4-.28.64-.27.53-.23 1.17.08 1.66l-.52.52c-.49-.31-1.14-.35-1.68-.07-.25.13-.52.25-.82.34-.58.18-1 .66-1.12 1.23h-.73c-.12-.57-.54-1.05-1.14-1.24-.27-.08-.55-.19-.81-.34-.53-.27-1.17-.23-1.66.08l-.52-.52c.31-.49.35-1.14.07-1.69-.13-.24-.25-.51-.33-.81-.18-.58-.66-1-1.23-1.12v-.7c.54-.02 1.02-.39 1.17-.93.1-.39.24-.73.41-1.06.27-.53.23-1.17-.08-1.66l.52-.52c.49.32 1.14.35 1.66.08.24-.12.45-.22.64-.28l-.63-1.9c-.22.07-.45.17-.7.29l-.29-.29c-.38-.38-1.04-.38-1.41 0l-1.88 1.88a.996.996 0 0 0 0 1.41l.29.29c-.11.22-.2.45-.29.69h-.4c-.55 0-1 .45-1 1v2.66c0 .55.45 1 1 1z"  opacity="1" ></path><path d="M17.5 43c0 1.93 1.57 3.5 3.5 3.5 1.1 0 2.14-.52 2.8-1.4l-1.6-1.2a1.498 1.498 0 1 1-2.1-2.1l-1.2-1.6c-.88.66-1.4 1.71-1.4 2.8z" opacity="1"></path></g></svg>