<?xml version="1.0" encoding="UTF-8"?>
<!DOCTYPE svg PUBLIC "-//W3C//DTD SVG 1.1//EN" "http://www.w3.org/Graphics/SVG/1.1/DTD/svg11.dtd">
<svg xmlns="http://www.w3.org/2000/svg" version="1.1" viewBox="0 0 512 512" style="shape-rendering:geometricPrecision; text-rendering:geometricPrecision; image-rendering:optimizeQuality; fill-rule:evenodd; clip-rule:evenodd" xmlns:xlink="http://www.w3.org/1999/xlink">
<g><path style="opacity:0.954"  d="M 433.5,-0.5 C 447.167,-0.5 460.833,-0.5 474.5,-0.5C 485.057,1.80232 495.723,4.13566 506.5,6.5C 505.109,11.844 503.609,17.1774 502,22.5C 501.275,23.0585 500.442,23.3918 499.5,23.5C 435.282,5.84522 379.448,20.1786 332,66.5C 308.005,92.4982 293.671,123.165 289,158.5C 287.93,176.15 287.264,193.816 287,211.5C 275.884,236.853 264.384,262.019 252.5,287C 274.711,289.883 288.878,302.049 295,323.5C 295.333,341.167 295.667,358.833 296,376.5C 296.346,378.848 297.513,380.681 299.5,382C 325.438,383.306 351.438,383.973 377.5,384C 393.369,387.869 403.202,397.702 407,413.5C 407.5,440.831 407.667,468.165 407.5,495.5C 442.167,495.5 476.833,495.5 511.5,495.5C 511.5,500.833 511.5,506.167 511.5,511.5C 471.5,511.5 431.5,511.5 391.5,511.5C 391.667,481.831 391.5,452.165 391,422.5C 389.614,409.448 382.447,401.948 369.5,400C 344.833,399.667 320.167,399.333 295.5,399C 287.667,396.5 282.5,391.333 280,383.5C 279.667,367.167 279.333,350.833 279,334.5C 277.934,319.766 270.434,309.933 256.5,305C 250.889,304.679 245.555,303.346 240.5,301C 234.587,295.557 233.087,289.057 236,281.5C 247.941,255.952 259.607,230.286 271,204.5C 266.399,129.548 294.566,70.7144 355.5,28C 379.621,13.0948 405.621,3.59481 433.5,-0.5 Z"/></g>
<g><path style="opacity:0.923"  d="M 307.5,166.5 C 321.504,166.333 335.504,166.5 349.5,167C 351.878,167.511 354.212,168.178 356.5,169C 366.195,174.083 375.028,180.25 383,187.5C 384.447,196.72 380.614,200.553 371.5,199C 363.803,193.487 355.803,188.487 347.5,184C 333.765,183.946 320.098,183.28 306.5,182C 303.572,178.743 302.738,174.909 304,170.5C 304.69,168.65 305.856,167.316 307.5,166.5 Z"/></g>
<g><path style="opacity:1"  d="M 319.5,199.5 C 330.167,199.5 340.833,199.5 351.5,199.5C 351.5,204.833 351.5,210.167 351.5,215.5C 340.833,215.5 330.167,215.5 319.5,215.5C 319.5,210.167 319.5,204.833 319.5,199.5 Z"/></g>
<g><path style="opacity:0.939"  d="M -0.5,348.5 C -0.5,345.167 -0.5,341.833 -0.5,338.5C 0.626561,337.878 1.62656,337.045 2.5,336C 13.1822,335.832 23.8489,335.332 34.5,334.5C 41.9388,319.956 49.1054,305.289 56,290.5C 59.6814,287.64 63.8481,286.807 68.5,288C 70.0488,289.214 71.2155,290.714 72,292.5C 75.6667,308.833 79.3333,325.167 83,341.5C 89.427,307.607 95.427,273.607 101,239.5C 102.786,231.339 107.62,228.839 115.5,232C 117.041,233.579 118.208,235.413 119,237.5C 129.616,270.015 140.616,302.349 152,334.5C 159.941,317.619 167.608,300.619 175,283.5C 178.308,279.673 182.474,278.506 187.5,280C 189.259,281.008 190.426,282.508 191,284.5C 198.333,306.5 205.667,328.5 213,350.5C 220.83,351.085 228.664,351.918 236.5,353C 239.428,356.257 240.262,360.091 239,364.5C 238.5,366.333 237.333,367.5 235.5,368C 224.833,368.667 214.167,368.667 203.5,368C 201.951,366.786 200.785,365.286 200,363.5C 194.46,346.379 188.626,329.379 182.5,312.5C 174.671,329.491 166.838,346.491 159,363.5C 155.692,367.327 151.526,368.494 146.5,367C 144.951,365.786 143.785,364.286 143,362.5C 133.732,333.363 124.066,304.363 114,275.5C 107.892,311.816 101.892,348.149 96,384.5C 93.5714,391.125 89.0714,392.959 82.5,390C 80.9512,388.786 79.7845,387.286 79,385.5C 72.8442,363.21 66.8442,340.877 61,318.5C 56.6058,328.289 51.9391,337.955 47,347.5C 46.1667,349 45,350.167 43.5,351C 29.8333,351.667 16.1667,351.667 2.5,351C 1.62656,349.955 0.626561,349.122 -0.5,348.5 Z"/></g>
</svg>
