<?xml version="1.0" encoding="UTF-8"?>
<!DOCTYPE svg PUBLIC "-//W3C//DTD SVG 1.1//EN" "http://www.w3.org/Graphics/SVG/1.1/DTD/svg11.dtd">
<svg xmlns="http://www.w3.org/2000/svg" version="1.1" viewBox="0 0 512 512" style="shape-rendering:geometricPrecision; text-rendering:geometricPrecision; image-rendering:optimizeQuality; fill-rule:evenodd; clip-rule:evenodd" xmlns:xlink="http://www.w3.org/1999/xlink">
<g><path style="opacity:1" d="M 15.5,15.5 C 68.8333,15.5 122.167,15.5 175.5,15.5C 175.5,58.1667 175.5,100.833 175.5,143.5C 159.5,143.5 143.5,143.5 127.5,143.5C 127.5,148.833 127.5,154.167 127.5,159.5C 132.833,159.5 138.167,159.5 143.5,159.5C 143.5,164.833 143.5,170.167 143.5,175.5C 111.5,175.5 79.5,175.5 47.5,175.5C 47.5,170.167 47.5,164.833 47.5,159.5C 52.8333,159.5 58.1667,159.5 63.5,159.5C 63.5,154.167 63.5,148.833 63.5,143.5C 47.5,143.5 31.5,143.5 15.5,143.5C 15.5,100.833 15.5,58.1667 15.5,15.5 Z M 31.5,31.5 C 74.1667,31.5 116.833,31.5 159.5,31.5C 159.5,52.8333 159.5,74.1667 159.5,95.5C 116.833,95.5 74.1667,95.5 31.5,95.5C 31.5,74.1667 31.5,52.8333 31.5,31.5 Z M 31.5,111.5 C 74.1667,111.5 116.833,111.5 159.5,111.5C 159.5,116.833 159.5,122.167 159.5,127.5C 116.833,127.5 74.1667,127.5 31.5,127.5C 31.5,122.167 31.5,116.833 31.5,111.5 Z M 79.5,143.5 C 90.1667,143.5 100.833,143.5 111.5,143.5C 111.5,148.833 111.5,154.167 111.5,159.5C 100.833,159.5 90.1667,159.5 79.5,159.5C 79.5,154.167 79.5,148.833 79.5,143.5 Z"/></g>
<g><path style="opacity:0.997" d="M 207.5,15.5 C 239.5,15.5 271.5,15.5 303.5,15.5C 303.5,68.8333 303.5,122.167 303.5,175.5C 271.5,175.5 239.5,175.5 207.5,175.5C 207.5,122.167 207.5,68.8333 207.5,15.5 Z M 223.5,31.5 C 244.833,31.5 266.167,31.5 287.5,31.5C 287.5,63.5 287.5,95.5 287.5,127.5C 266.167,127.5 244.833,127.5 223.5,127.5C 223.5,95.5 223.5,63.5 223.5,31.5 Z M 223.5,143.5 C 232.839,143.334 242.173,143.5 251.5,144C 248.484,145.529 247.151,148.029 247.5,151.5C 247.151,154.971 248.484,157.471 251.5,159C 242.173,159.5 232.839,159.666 223.5,159.5C 223.5,154.167 223.5,148.833 223.5,143.5 Z M 259.5,144.5 C 268.652,143.506 277.985,143.173 287.5,143.5C 287.5,148.833 287.5,154.167 287.5,159.5C 278.161,159.666 268.827,159.5 259.5,159C 262.516,157.471 263.849,154.971 263.5,151.5C 263.919,147.988 262.586,145.654 259.5,144.5 Z"/></g>
<g><path style="opacity:1" d="M 335.5,15.5 C 388.833,15.5 442.167,15.5 495.5,15.5C 495.5,68.8333 495.5,122.167 495.5,175.5C 442.167,175.5 388.833,175.5 335.5,175.5C 335.5,122.167 335.5,68.8333 335.5,15.5 Z M 351.5,31.5 C 394.167,31.5 436.833,31.5 479.5,31.5C 479.5,42.1667 479.5,52.8333 479.5,63.5C 436.833,63.5 394.167,63.5 351.5,63.5C 351.5,52.8333 351.5,42.1667 351.5,31.5 Z M 351.5,79.5 C 394.167,79.5 436.833,79.5 479.5,79.5C 479.5,106.167 479.5,132.833 479.5,159.5C 436.833,159.5 394.167,159.5 351.5,159.5C 351.5,132.833 351.5,106.167 351.5,79.5 Z"/></g>
<g><path style="opacity:0.892" d="M 363.5,39.5 C 374.86,38.71 378.193,43.5434 373.5,54C 362.964,57.997 358.464,54.497 360,43.5C 360.69,41.6498 361.856,40.3164 363.5,39.5 Z"/></g>
<g><path style="opacity:0.888" d="M 387.5,39.5 C 398.86,38.71 402.193,43.5434 397.5,54C 386.964,57.997 382.464,54.497 384,43.5C 384.69,41.6498 385.856,40.3164 387.5,39.5 Z"/></g>
<g><path style="opacity:0.89" d="M 411.5,39.5 C 422.86,38.71 426.193,43.5434 421.5,54C 410.964,57.997 406.464,54.497 408,43.5C 408.69,41.6498 409.856,40.3164 411.5,39.5 Z"/></g>
<g><path style="opacity:1" d="M 87.5,191.5 C 92.8333,191.5 98.1667,191.5 103.5,191.5C 103.5,202.167 103.5,212.833 103.5,223.5C 151.5,223.5 199.5,223.5 247.5,223.5C 247.5,212.833 247.5,202.167 247.5,191.5C 252.833,191.5 258.167,191.5 263.5,191.5C 263.5,202.167 263.5,212.833 263.5,223.5C 311.5,223.5 359.5,223.5 407.5,223.5C 407.5,212.833 407.5,202.167 407.5,191.5C 412.833,191.5 418.167,191.5 423.5,191.5C 423.5,207.5 423.5,223.5 423.5,239.5C 370.167,239.5 316.833,239.5 263.5,239.5C 263.5,250.167 263.5,260.833 263.5,271.5C 258.167,271.5 252.833,271.5 247.5,271.5C 247.5,260.833 247.5,250.167 247.5,239.5C 194.167,239.5 140.833,239.5 87.5,239.5C 87.5,223.5 87.5,207.5 87.5,191.5 Z"/></g>
<g><path style="opacity:0.949" d="M 176.5,287.5 C 197.569,286.914 218.569,287.748 239.5,290C 253.845,291.892 267.179,296.559 279.5,304C 282.762,306.592 285.262,309.759 287,313.5C 287.333,330.5 287.667,347.5 288,364.5C 292.668,360.997 297.668,357.997 303,355.5C 303.5,348.842 303.666,342.175 303.5,335.5C 319.5,335.5 335.5,335.5 351.5,335.5C 351.334,342.175 351.5,348.842 352,355.5C 357.332,357.997 362.332,360.997 367,364.5C 372.25,361.459 377.417,358.292 382.5,355C 383.5,354.333 384.5,354.333 385.5,355C 393.5,368.667 401.5,382.333 409.5,396C 403.966,399.698 398.299,403.198 392.5,406.5C 391.167,412.5 391.167,418.5 392.5,424.5C 398.299,427.802 403.966,431.302 409.5,435C 401.954,447.255 394.787,459.755 388,472.5C 387.101,474.327 385.767,475.66 384,476.5C 378.349,473.173 372.683,469.84 367,466.5C 362.578,469.964 357.744,472.797 352.5,475C 351.521,481.744 351.188,488.578 351.5,495.5C 335.5,495.5 319.5,495.5 303.5,495.5C 303.666,488.825 303.5,482.158 303,475.5C 297.668,473.003 292.668,470.003 288,466.5C 284.459,475.706 277.959,481.872 268.5,485C 253.685,490.63 238.351,493.963 222.5,495C 191.855,498.018 161.855,495.018 132.5,486C 123.588,482.976 116.754,477.476 112,469.5C 111.333,417.5 111.333,365.5 112,313.5C 116.754,305.524 123.588,300.024 132.5,297C 146.957,292.211 161.624,289.044 176.5,287.5 Z M 197.5,303.5 C 219.781,303.326 241.448,306.826 262.5,314C 265.726,315.106 268.393,316.939 270.5,319.5C 266.824,323.009 262.491,325.509 257.5,327C 231.291,334.113 204.624,336.447 177.5,334C 161.044,332.97 145.378,328.97 130.5,322C 127.833,320.333 127.833,318.667 130.5,317C 145.01,309.963 160.344,305.963 176.5,305C 183.679,304.829 190.679,304.329 197.5,303.5 Z M 127.5,339.5 C 143.103,346.189 159.436,350.023 176.5,351C 203.839,353.154 230.839,351.154 257.5,345C 262.258,343.749 266.758,341.915 271,339.5C 271.829,344.533 271.662,349.533 270.5,354.5C 266.003,361.177 261.67,368.01 257.5,375C 219.935,385.811 182.268,386.144 144.5,376C 138.357,374.346 132.857,371.512 128,367.5C 127.5,358.173 127.334,348.839 127.5,339.5 Z M 319.5,351.5 C 324.833,351.5 330.167,351.5 335.5,351.5C 335.171,357.206 335.505,362.872 336.5,368.5C 347.474,371.735 356.974,377.402 365,385.5C 369.333,382.833 373.667,380.167 378,377.5C 380.75,381.332 383.25,385.332 385.5,389.5C 381.881,392.65 377.881,395.316 373.5,397.5C 373.167,398.333 372.833,399.167 372.5,400C 375.167,410.333 375.167,420.667 372.5,431C 372.833,431.833 373.167,432.667 373.5,433.5C 377.417,435.708 381.25,438.041 385,440.5C 383.636,445.088 381.469,449.422 378.5,453.5C 373.918,450.959 369.418,448.293 365,445.5C 356.974,453.598 347.474,459.265 336.5,462.5C 335.505,468.128 335.171,473.794 335.5,479.5C 330.167,479.5 324.833,479.5 319.5,479.5C 319.829,473.794 319.495,468.128 318.5,462.5C 307.526,459.265 298.026,453.598 290,445.5C 285.667,448.167 281.333,450.833 277,453.5C 274.25,449.668 271.75,445.668 269.5,441.5C 273.119,438.35 277.119,435.684 281.5,433.5C 281.833,432.667 282.167,431.833 282.5,431C 279.833,420.667 279.833,410.333 282.5,400C 282.167,399.167 281.833,398.333 281.5,397.5C 277.583,395.292 273.75,392.959 270,390.5C 271.339,385.777 273.672,381.444 277,377.5C 281.333,380.167 285.667,382.833 290,385.5C 298.026,377.402 307.526,371.735 318.5,368.5C 319.495,362.872 319.829,357.206 319.5,351.5 Z M 127.5,387.5 C 143.103,394.189 159.436,398.023 176.5,399C 191.833,399.667 207.167,399.667 222.5,399C 230.129,398.387 237.629,397.22 245,395.5C 250.7,399.364 256.533,403.031 262.5,406.5C 263.662,411.131 263.828,415.798 263,420.5C 235.295,430.376 206.795,433.543 177.5,430C 164.157,428.998 151.157,426.331 138.5,422C 134.581,420.46 131.081,418.293 128,415.5C 127.5,406.173 127.334,396.839 127.5,387.5 Z M 322.5,400.5 C 339.765,400.257 345.598,408.257 340,424.5C 333.749,431.011 326.582,432.177 318.5,428C 311.989,421.749 310.823,414.582 315,406.5C 317.114,403.879 319.614,401.879 322.5,400.5 Z M 127.5,435.5 C 143.103,442.189 159.436,446.023 176.5,447C 191.833,447.667 207.167,447.667 222.5,447C 231.829,446.239 240.996,444.739 250,442.5C 254.833,450.833 259.667,459.167 264.5,467.5C 251.194,473.493 237.194,476.993 222.5,478C 193.999,480.841 165.999,478.174 138.5,470C 134.581,468.46 131.081,466.293 128,463.5C 127.5,454.173 127.334,444.839 127.5,435.5 Z"/></g>
<g><path style="opacity:0.93" d="M 319.5,383.5 C 347.978,381.811 361.145,395.144 359,423.5C 352.645,442.438 339.478,450.272 319.5,447C 300.556,440.632 292.723,427.466 296,407.5C 299.349,394.985 307.182,386.985 319.5,383.5 Z M 322.5,400.5 C 319.614,401.879 317.114,403.879 315,406.5C 310.823,414.582 311.989,421.749 318.5,428C 326.582,432.177 333.749,431.011 340,424.5C 345.598,408.257 339.765,400.257 322.5,400.5 Z"/></g>
</svg>
