<?xml version="1.0" encoding="UTF-8"?>
<!DOCTYPE svg PUBLIC "-//W3C//DTD SVG 1.1//EN" "http://www.w3.org/Graphics/SVG/1.1/DTD/svg11.dtd">
<svg xmlns="http://www.w3.org/2000/svg" version="1.1" viewBox="0 0 512 512" style="shape-rendering:geometricPrecision; text-rendering:geometricPrecision; image-rendering:optimizeQuality; fill-rule:evenodd; clip-rule:evenodd" xmlns:xlink="http://www.w3.org/1999/xlink">
<g><path style="opacity:0.926" d="M 511.5,198.5 C 511.5,209.5 511.5,220.5 511.5,231.5C 504.019,280.81 478.352,317.31 434.5,341C 426.377,344.728 418.044,347.895 409.5,350.5C 409.475,355.378 409.308,360.378 409,365.5C 404.182,379.631 394.348,385.465 379.5,383C 376.215,382.241 373.215,380.908 370.5,379C 361.31,368.778 352.477,358.278 344,347.5C 338.545,339.846 337.212,331.513 340,322.5C 346.746,309.341 353.746,296.341 361,283.5C 370.767,274.695 381.601,273.195 393.5,279C 400.253,284.676 404.253,291.842 405.5,300.5C 446.396,281.733 465.563,249.733 463,204.5C 455.824,161.991 431.324,135.491 389.5,125C 342.267,118.864 308.1,137.03 287,179.5C 272.418,220.003 280.585,255.17 311.5,285C 318.12,289.23 324.287,294.063 330,299.5C 336.707,311.211 335.541,322.044 326.5,332C 319.627,337.099 311.96,338.765 303.5,337C 290.276,330.121 278.443,321.287 268,310.5C 263.667,305.167 259.333,299.833 255,294.5C 221.249,340.612 175.749,360.445 118.5,354C 68.8275,344.983 32.9941,317.817 11,272.5C 5.58633,259.495 1.75299,246.161 -0.5,232.5C -0.5,221.167 -0.5,209.833 -0.5,198.5C 9.65329,138.511 43.6533,99.0109 101.5,80C 101.048,73.8639 101.548,67.6972 103,61.5C 110.498,47.8857 121.665,43.719 136.5,49C 138.5,50.3333 140.5,51.6667 142.5,53C 151,63.5 159.5,74 168,84.5C 173.12,92.8179 173.786,101.485 170,110.5C 163.412,122.007 157.079,133.674 151,145.5C 140.4,156.729 128.566,158.229 115.5,150C 109.645,144.443 106.478,137.61 106,129.5C 62.2831,149.918 43.2831,184.251 49,232.5C 51.1443,242.267 54.4777,251.6 59,260.5C 59.4524,268.708 55.6191,271.875 47.5,270C 43.5183,265.874 40.685,261.041 39,255.5C 23.1742,208.947 32.6742,168.447 67.5,134C 81.3648,122.567 97.0315,114.567 114.5,110C 117.833,109.333 121.167,109.333 124.5,110C 126.871,111.743 128.205,114.077 128.5,117C 127.42,120.662 125.92,124.162 124,127.5C 122.601,136.87 126.434,140.37 135.5,138C 142.967,126.238 149.8,114.071 156,101.5C 156.706,99.0288 156.373,96.6954 155,94.5C 148.093,86.3492 141.426,78.0159 135,69.5C 132.795,66.9598 130.295,64.7932 127.5,63C 120.131,62.7019 116.965,66.2019 118,73.5C 120.821,76.976 122.987,80.8093 124.5,85C 124.097,87.8872 122.764,90.2205 120.5,92C 76.0655,100.777 44.2321,125.61 25,166.5C 6.67738,214.93 14.0107,258.93 47,298.5C 86.0127,337.71 131.846,348.544 184.5,331C 227.203,312.954 253.037,281.12 262,235.5C 263.032,222.837 264.032,210.171 265,197.5C 275.359,149.953 304.192,120.453 351.5,109C 399.338,102.511 436.838,119.011 464,158.5C 484.962,197.054 484.629,235.388 463,273.5C 445.148,300.364 420.315,316.197 388.5,321C 384.376,320.018 382.376,317.352 382.5,313C 383.58,309.338 385.08,305.838 387,302.5C 387.6,292.437 383.267,289.437 374,293.5C 366.693,305.781 360.193,318.448 354.5,331.5C 354.622,333.791 355.455,335.791 357,337.5C 364.714,347.092 372.547,356.592 380.5,366C 387.575,369.129 391.909,366.963 393.5,359.5C 392.026,355.175 389.859,351.175 387,347.5C 386.461,343.41 387.961,340.243 391.5,338C 449.788,325.046 484.288,289.213 495,230.5C 498.152,201.114 492.152,173.781 477,148.5C 476.902,139.623 481.069,136.789 489.5,140C 497.326,151.49 503.159,163.99 507,177.5C 508.589,184.621 510.089,191.621 511.5,198.5 Z M 272.5,259.5 C 282.5,280.341 297.334,297.008 317,309.5C 319.163,318.341 315.663,322.174 306.5,321C 288.785,310.285 274.785,295.951 264.5,278C 268.044,272.197 270.711,266.03 272.5,259.5 Z"/></g>
<g><path style="opacity:0.926" d="M 368.5,74.5 C 408.073,74.403 441.906,88.0697 470,115.5C 471.82,123.669 468.653,127.502 460.5,127C 447.859,116.005 433.859,107.005 418.5,100C 363.877,81.2811 316.71,92.7811 277,134.5C 254.468,163.105 244.135,195.771 246,232.5C 236.247,279.587 208.08,309.087 161.5,321C 125.868,327.386 94.3679,318.886 67,295.5C 63.34,285.32 66.84,281.154 77.5,283C 108.341,308.911 142.341,313.911 179.5,298C 221.506,274.029 237.673,238.195 228,190.5C 224.744,180.656 220.411,171.322 215,162.5C 214.253,152.952 218.42,149.785 227.5,153C 231.398,158.571 234.898,164.405 238,170.5C 240.636,164.266 243.469,158.099 246.5,152C 235.5,134.333 221.167,120 203.5,109C 194.421,108.902 191.421,113.069 194.5,121.5C 197.91,124.288 201.41,126.955 205,129.5C 207.677,136.477 205.344,140.81 198,142.5C 178.121,135.195 172.454,121.861 181,102.5C 191.029,91.5701 202.529,89.7368 215.5,97C 230.966,107.633 244.299,120.466 255.5,135.5C 283.617,97.6061 321.284,77.2727 368.5,74.5 Z"/></g>
<g><path style="opacity:0.93"  d="M 83.5,399.5 C 92.6431,399.007 101.643,399.841 110.5,402C 121.84,408.674 127.173,418.674 126.5,432C 126.759,446.498 120.426,456.832 107.5,463C 99.2209,464.497 90.8875,464.831 82.5,464C 80.3333,463.167 78.8333,461.667 78,459.5C 77.3333,441.167 77.3333,422.833 78,404.5C 79.3516,402.251 81.1849,400.584 83.5,399.5 Z M 93.5,415.5 C 105.2,414.7 110.867,420.2 110.5,432C 110.847,443.821 105.18,449.321 93.5,448.5C 93.5,437.5 93.5,426.5 93.5,415.5 Z"/></g>
<g><path style="opacity:0.929" d="M 147.5,399.5 C 155.507,399.334 163.507,399.5 171.5,400C 176.924,402.017 178.758,405.85 177,411.5C 175.833,412.667 174.667,413.833 173.5,415C 168.177,415.499 162.844,415.666 157.5,415.5C 157.5,418.5 157.5,421.5 157.5,424.5C 162.511,424.334 167.511,424.501 172.5,425C 177.833,429.667 177.833,434.333 172.5,439C 167.599,440.325 162.599,440.825 157.5,440.5C 157.5,443.167 157.5,445.833 157.5,448.5C 162.844,448.334 168.177,448.501 173.5,449C 177.212,451.602 178.378,455.102 177,459.5C 176.167,461.667 174.667,463.167 172.5,464C 163.833,464.667 155.167,464.667 146.5,464C 144.714,463.215 143.214,462.049 142,460.5C 141.333,441.833 141.333,423.167 142,404.5C 143.107,401.887 144.94,400.22 147.5,399.5 Z"/></g>
<g><path style="opacity:0.918" d="M 198.5,399.5 C 201.939,399.589 204.772,400.922 207,403.5C 210.531,413.092 213.864,422.759 217,432.5C 220.735,422.461 224.569,412.461 228.5,402.5C 238.207,397.929 242.707,400.929 242,411.5C 236.667,427.5 231.333,443.5 226,459.5C 220.969,465.676 215.636,466.009 210,460.5C 204.136,444.576 198.47,428.576 193,412.5C 190.955,406.236 192.789,401.903 198.5,399.5 Z"/></g>
<g><path style="opacity:0.925" d="M 281.5,399.5 C 302.337,400.504 314.003,411.338 316.5,432C 312.36,458.239 297.36,468.239 271.5,462C 251.078,449.904 246.578,433.404 258,412.5C 264.122,404.86 271.955,400.527 281.5,399.5 Z M 282.5,415.5 C 297.373,417.924 302.54,426.257 298,440.5C 289.305,450.699 280.305,451.032 271,441.5C 265.281,428.605 269.114,419.938 282.5,415.5 Z"/></g>
<g><path style="opacity:0.928" d="M 337.5,399.5 C 343.176,399.334 348.843,399.501 354.5,400C 371.456,404.295 377.29,414.795 372,431.5C 366.084,440.76 357.584,444.76 346.5,443.5C 346.666,448.844 346.499,454.177 346,459.5C 343.017,464.568 338.851,465.735 333.5,463C 332.107,461.829 331.273,460.329 331,458.5C 330.333,440.833 330.333,423.167 331,405.5C 332.436,402.558 334.603,400.558 337.5,399.5 Z M 346.5,415.5 C 352.178,414.339 356.178,416.339 358.5,421.5C 356.178,426.661 352.178,428.661 346.5,427.5C 346.5,423.5 346.5,419.5 346.5,415.5 Z"/></g>
<g><path style="opacity:0.92"  d="M 407.5,399.5 C 414.667,399.527 421.334,401.361 427.5,405C 434.057,410.143 434.057,415.143 427.5,420C 425.167,420.667 422.833,420.667 420.5,420C 417.543,417.688 414.209,416.188 410.5,415.5C 408.1,416.018 406.1,417.185 404.5,419C 412.339,422.281 420.005,425.948 427.5,430C 437.591,444.062 434.925,455.062 419.5,463C 407.363,466.108 396.863,463.274 388,454.5C 384.34,444.961 387.507,440.794 397.5,442C 401.294,445.305 405.627,447.472 410.5,448.5C 413.598,448.452 415.932,447.119 417.5,444.5C 416.687,443.186 415.687,442.019 414.5,441C 408.051,438.609 401.718,435.942 395.5,433C 385.92,422.433 386.587,412.433 397.5,403C 400.85,401.514 404.184,400.347 407.5,399.5 Z"/></g>
</svg>
