<?xml version="1.0" encoding="UTF-8"?>
<!DOCTYPE svg PUBLIC "-//W3C//DTD SVG 1.1//EN" "http://www.w3.org/Graphics/SVG/1.1/DTD/svg11.dtd">
<svg xmlns="http://www.w3.org/2000/svg" version="1.1" viewBox="0 0 512 512" style="shape-rendering:geometricPrecision; text-rendering:geometricPrecision; image-rendering:optimizeQuality; fill-rule:evenodd; clip-rule:evenodd" xmlns:xlink="http://www.w3.org/1999/xlink">
<g><path style="opacity:0.943" d="M 22.5,-0.5 C 42.5,-0.5 62.5,-0.5 82.5,-0.5C 90.4148,2.92439 95.2481,8.92439 97,17.5C 97.4995,23.4908 97.6662,29.4908 97.5,35.5C 135.5,35.5 173.5,35.5 211.5,35.5C 211.334,28.1591 211.5,20.8258 212,13.5C 214.687,6.98101 219.187,2.31434 225.5,-0.5C 231.167,-0.5 236.833,-0.5 242.5,-0.5C 248.885,10.6429 245.552,15.8096 232.5,15C 230.671,15.2735 229.171,16.1068 228,17.5C 227.333,34.8333 227.333,52.1667 228,69.5C 229.171,70.8932 230.671,71.7265 232.5,72C 247.833,72.6667 263.167,72.6667 278.5,72C 280.329,71.7265 281.829,70.8932 283,69.5C 283.667,52.1667 283.667,34.8333 283,17.5C 281.829,16.1068 280.329,15.2735 278.5,15C 265.926,15.677 262.593,10.5104 268.5,-0.5C 274.167,-0.5 279.833,-0.5 285.5,-0.5C 291.813,2.31434 296.313,6.98101 299,13.5C 299.5,20.8258 299.666,28.1591 299.5,35.5C 337.5,35.5 375.5,35.5 413.5,35.5C 412.934,27.0004 413.767,18.667 416,10.5C 419.148,5.50941 423.314,1.84275 428.5,-0.5C 448.5,-0.5 468.5,-0.5 488.5,-0.5C 495.237,2.40736 499.737,7.40736 502,14.5C 502.667,33.8333 502.667,53.1667 502,72.5C 499.928,79.5731 495.428,84.4064 488.5,87C 481.174,87.4997 473.841,87.6663 466.5,87.5C 466.5,123.833 466.5,160.167 466.5,196.5C 474.253,196.104 481.92,196.604 489.5,198C 494.92,199.788 498.753,203.288 501,208.5C 502.632,229.102 502.965,249.769 502,270.5C 499.319,277.935 494.152,282.768 486.5,285C 477.833,285.333 469.167,285.667 460.5,286C 433.682,307.574 406.682,328.908 379.5,350C 369.219,351.228 365.886,347.061 369.5,337.5C 391.023,320.143 412.689,302.976 434.5,286C 422.767,284.599 415.933,278.099 414,266.5C 413.501,260.509 413.334,254.509 413.5,248.5C 375.5,248.5 337.5,248.5 299.5,248.5C 304.39,277.276 292.39,289.609 263.5,285.5C 263.5,311.833 263.5,338.167 263.5,364.5C 278.729,363.15 293.062,365.983 306.5,373C 309.63,375.128 312.463,377.628 315,380.5C 323.742,373.214 332.575,366.047 341.5,359C 346.494,355.334 350.994,355.834 355,360.5C 355.817,363.964 355.483,367.298 354,370.5C 343.852,378.151 334.019,386.151 324.5,394.5C 326.369,397.94 327.535,401.607 328,405.5C 329.986,427.831 329.986,450.165 328,472.5C 322.21,493.124 309.044,506.124 288.5,511.5C 266.5,511.5 244.5,511.5 222.5,511.5C 201.956,506.124 188.79,493.124 183,472.5C 180.723,448.447 181.057,424.447 184,400.5C 185.766,395.802 187.933,391.302 190.5,387C 143.833,353.333 97.1667,319.667 50.5,286C 15.2049,291.035 1.20491,276.035 8.5,241C 8.36725,230.098 8.86725,219.265 10,208.5C 12.2468,203.288 16.0802,199.788 21.5,198C 29.0804,196.604 36.747,196.104 44.5,196.5C 44.5,160.167 44.5,123.833 44.5,87.5C 37.1591,87.6663 29.8258,87.4997 22.5,87C 15.5724,84.4064 11.0724,79.5731 9,72.5C 8.33333,53.1667 8.33333,33.8333 9,14.5C 11.2632,7.40736 15.7632,2.40736 22.5,-0.5 Z M 29.5,14.5 C 44.837,14.3334 60.1703,14.5001 75.5,15C 77.3289,15.2735 78.8289,16.1068 80,17.5C 81.6369,34.075 81.9703,50.7417 81,67.5C 80.5348,68.9308 79.7014,70.0975 78.5,71C 62.2337,72.6217 45.9004,72.955 29.5,72C 27.6711,71.7265 26.1711,70.8932 25,69.5C 24.3333,52.1667 24.3333,34.8333 25,17.5C 26.4087,16.2189 27.9087,15.2189 29.5,14.5 Z M 435.5,14.5 C 450.837,14.3334 466.17,14.5001 481.5,15C 483.329,15.2735 484.829,16.1068 486,17.5C 486.667,34.8333 486.667,52.1667 486,69.5C 485.5,70 485,70.5 484.5,71C 468.234,72.6217 451.9,72.955 435.5,72C 433.671,71.7265 432.171,70.8932 431,69.5C 429.363,52.925 429.03,36.2583 430,19.5C 431.107,16.887 432.94,15.2203 435.5,14.5 Z M 97.5,51.5 C 135.5,51.5 173.5,51.5 211.5,51.5C 211.4,59.5845 211.566,67.5845 212,75.5C 192.985,94.0156 173.818,112.349 154.5,130.5C 135.095,112.051 115.595,93.7175 96,75.5C 97.2704,67.6456 97.7704,59.6456 97.5,51.5 Z M 299.5,51.5 C 337.5,51.5 375.5,51.5 413.5,51.5C 413.23,59.6456 413.73,67.6456 415,75.5C 395.405,93.7175 375.905,112.051 356.5,130.5C 337.182,112.349 318.015,94.0156 299,75.5C 299.434,67.5845 299.6,59.5845 299.5,51.5 Z M 82.5,86.5 C 85.2682,88.0872 87.9348,89.9205 90.5,92C 107.833,108.667 125.167,125.333 142.5,142C 123,160.833 103.5,179.667 84,198.5C 82.9326,197.809 81.7659,197.309 80.5,197C 73.8417,196.5 67.175,196.334 60.5,196.5C 60.5,160.167 60.5,123.833 60.5,87.5C 68.0191,87.825 75.3524,87.4916 82.5,86.5 Z M 223.5,86.5 C 231.445,87.4368 239.445,87.7701 247.5,87.5C 247.5,123.833 247.5,160.167 247.5,196.5C 240.825,196.334 234.158,196.5 227.5,197C 226.234,197.309 225.067,197.809 224,198.5C 204.654,179.987 185.488,161.321 166.5,142.5C 185.521,123.812 204.521,105.145 223.5,86.5 Z M 285.5,86.5 C 289.272,89.0941 292.939,91.9274 296.5,95C 312.374,111.041 328.374,126.875 344.5,142.5C 325.512,161.321 306.346,179.987 287,198.5C 285.933,197.809 284.766,197.309 283.5,197C 276.842,196.5 270.175,196.334 263.5,196.5C 263.5,160.167 263.5,123.833 263.5,87.5C 271.019,87.825 278.352,87.4916 285.5,86.5 Z M 426.5,86.5 C 434.445,87.4368 442.445,87.7701 450.5,87.5C 450.5,123.833 450.5,160.167 450.5,196.5C 443.825,196.334 437.158,196.5 430.5,197C 429.234,197.309 428.067,197.809 427,198.5C 407.5,179.667 388,160.833 368.5,142C 388.335,123.998 407.668,105.498 426.5,86.5 Z M 153.5,153.5 C 173.131,171.963 192.631,190.63 212,209.5C 211.566,217.415 211.4,225.415 211.5,233.5C 173.5,233.5 135.5,233.5 97.5,233.5C 97.9562,225.515 97.2895,217.681 95.5,210C 115.033,191.299 134.366,172.466 153.5,153.5 Z M 356.5,153.5 C 376.298,172.13 395.964,190.963 415.5,210C 413.71,217.681 413.044,225.515 413.5,233.5C 375.5,233.5 337.5,233.5 299.5,233.5C 299.6,225.415 299.434,217.415 299,209.5C 318.366,190.966 337.533,172.299 356.5,153.5 Z M 27.5,212.5 C 44.17,212.333 60.8367,212.5 77.5,213C 78.4162,213.374 79.2496,213.874 80,214.5C 81.1391,223.07 81.6391,231.736 81.5,240.5C 81.3333,248.5 81.1667,256.5 81,264.5C 80.6905,265.766 80.1905,266.933 79.5,268C 62.2579,269.638 44.9245,269.971 27.5,269C 26.6667,268.167 25.8333,267.333 25,266.5C 24.3333,249.5 24.3333,232.5 25,215.5C 26.045,214.627 26.8783,213.627 27.5,212.5 Z M 230.5,212.5 C 247.17,212.333 263.837,212.5 280.5,213C 281.308,213.308 281.975,213.808 282.5,214.5C 283.652,231.789 283.819,249.123 283,266.5C 282.692,267.308 282.192,267.975 281.5,268.5C 264.544,269.652 247.544,269.819 230.5,269C 229.692,268.692 229.025,268.192 228.5,267.5C 227.347,249.877 227.181,232.211 228,214.5C 228.995,213.934 229.828,213.267 230.5,212.5 Z M 433.5,212.5 C 450.17,212.333 466.837,212.5 483.5,213C 484.333,213.833 485.167,214.667 486,215.5C 486.667,232.5 486.667,249.5 486,266.5C 485.167,267.333 484.333,268.167 483.5,269C 466.833,269.667 450.167,269.667 433.5,269C 432.584,268.626 431.75,268.126 431,267.5C 429.362,250.591 429.029,233.591 430,216.5C 430.69,214.65 431.856,213.316 433.5,212.5 Z M 97.5,248.5 C 135.5,248.5 173.5,248.5 211.5,248.5C 206.61,277.276 218.61,289.609 247.5,285.5C 247.5,312.167 247.5,338.833 247.5,365.5C 237.443,365.135 227.443,365.635 217.5,367C 211.804,368.93 206.637,371.764 202,375.5C 160.833,345.667 119.667,315.833 78.5,286C 86.9904,284.342 92.8237,279.509 96,271.5C 97.3115,263.895 97.8115,256.228 97.5,248.5 Z M 231.5,380.5 C 249.871,380.098 268.204,380.598 286.5,382C 303.14,386.975 311.973,398.142 313,415.5C 313.883,433.531 313.55,451.531 312,469.5C 307.025,486.14 295.858,494.973 278.5,496C 260.469,496.883 242.469,496.55 224.5,495C 207.86,490.025 199.027,478.858 198,461.5C 197.117,443.469 197.45,425.469 199,407.5C 204.003,391.319 214.836,382.319 231.5,380.5 Z M 232.5,407.5 C 247.837,407.333 263.17,407.5 278.5,408C 281.276,408.066 283.442,409.232 285,411.5C 286.607,428.113 286.941,444.78 286,461.5C 285.934,464.276 284.768,466.442 282.5,468C 265.887,469.607 249.22,469.941 232.5,469C 229.724,468.934 227.558,467.768 226,465.5C 224.393,448.887 224.059,432.22 225,415.5C 225.68,410.989 228.18,408.323 232.5,407.5 Z"/></g>
<g><path style="opacity:0.954" d="M 225.5,392.5 C 245.503,392.333 265.503,392.5 285.5,393C 295.881,396.385 301.381,403.552 302,414.5C 302.667,430.5 302.667,446.5 302,462.5C 301.187,473.304 295.687,480.47 285.5,484C 265.5,484.667 245.5,484.667 225.5,484C 215.313,480.47 209.813,473.304 209,462.5C 208.333,446.5 208.333,430.5 209,414.5C 209.819,403.531 215.319,396.198 225.5,392.5 Z M 232.5,407.5 C 228.18,408.323 225.68,410.989 225,415.5C 224.059,432.22 224.393,448.887 226,465.5C 227.558,467.768 229.724,468.934 232.5,469C 249.22,469.941 265.887,469.607 282.5,468C 284.768,466.442 285.934,464.276 286,461.5C 286.941,444.78 286.607,428.113 285,411.5C 283.442,409.232 281.276,408.066 278.5,408C 263.17,407.5 247.837,407.333 232.5,407.5 Z"/></g>
</svg>
