<?xml version="1.0" encoding="UTF-8"?>
<!DOCTYPE svg PUBLIC "-//W3C//DTD SVG 1.1//EN" "http://www.w3.org/Graphics/SVG/1.1/DTD/svg11.dtd">
<svg xmlns="http://www.w3.org/2000/svg" version="1.1" viewBox="0 0 512 512" style="shape-rendering:geometricPrecision; text-rendering:geometricPrecision; image-rendering:optimizeQuality; fill-rule:evenodd; clip-rule:evenodd" xmlns:xlink="http://www.w3.org/1999/xlink">
<g><path style="opacity:0.99" d="M 30.5,-0.5 C 38.8333,-0.5 47.1667,-0.5 55.5,-0.5C 55.5,4.83333 55.5,10.1667 55.5,15.5C 47.786,15.2946 40.1194,15.7946 32.5,17C 22.4046,21.0998 16.9046,28.5998 16,39.5C 15.5,138.166 15.3333,236.833 15.5,335.5C 84.8333,335.5 154.167,335.5 223.5,335.5C 223.5,340.833 223.5,346.167 223.5,351.5C 154.167,351.5 84.8333,351.5 15.5,351.5C 15.3336,359.507 15.5003,367.507 16,375.5C 16.9959,386.822 22.8293,394.322 33.5,398C 96.8015,399.478 160.135,399.978 223.5,399.5C 223.5,404.833 223.5,410.167 223.5,415.5C 207.153,415.167 190.82,415.501 174.5,416.5C 173.167,421.167 171.833,425.833 170.5,430.5C 188.154,431.5 205.821,431.833 223.5,431.5C 223.5,436.833 223.5,442.167 223.5,447.5C 202.164,447.333 180.831,447.5 159.5,448C 155,448.5 152.5,451 152,455.5C 151.503,458.146 151.336,460.813 151.5,463.5C 175.5,463.5 199.5,463.5 223.5,463.5C 223.5,468.833 223.5,474.167 223.5,479.5C 194.745,479.983 166.078,479.483 137.5,478C 136.874,477.25 136.374,476.416 136,475.5C 135.333,466.5 135.333,457.5 136,448.5C 138.949,440.383 144.449,434.717 152.5,431.5C 154.149,426.238 155.482,420.904 156.5,415.5C 114.499,415.667 72.4987,415.5 30.5,415C 14.3186,410.651 3.98523,400.484 -0.5,384.5C -0.5,266.5 -0.5,148.5 -0.5,30.5C 4.16667,14.5 14.5,4.16667 30.5,-0.5 Z"/></g>
<g><path style="opacity:0.942" d="M 71.5,-0.5 C 77.1667,-0.5 82.8333,-0.5 88.5,-0.5C 88.5,4.83333 88.5,10.1667 88.5,15.5C 82.8333,15.5 77.1667,15.5 71.5,15.5C 71.5,10.1667 71.5,4.83333 71.5,-0.5 Z"/></g>
<g><path style="opacity:0.989" d="M 103.5,-0.5 C 229.167,-0.5 354.833,-0.5 480.5,-0.5C 496.5,4.16667 506.833,14.5 511.5,30.5C 511.5,148.5 511.5,266.5 511.5,384.5C 506.848,400.651 496.348,410.984 480,415.5C 479.667,437.167 479.333,458.833 479,480.5C 474.651,496.681 464.484,507.015 448.5,511.5C 389.167,511.5 329.833,511.5 270.5,511.5C 254.516,507.015 244.349,496.681 240,480.5C 239.333,367.833 239.333,255.167 240,142.5C 244.167,126.333 254.333,116.167 270.5,112C 329.833,111.333 389.167,111.333 448.5,112C 464.667,116.167 474.833,126.333 479,142.5C 479.333,227.5 479.667,312.5 480,397.5C 489.359,393.141 494.359,385.807 495,375.5C 495.667,263.5 495.667,151.5 495,39.5C 493.483,25.3166 485.65,17.4833 471.5,16C 348.834,15.5 226.167,15.3333 103.5,15.5C 103.5,10.1667 103.5,4.83333 103.5,-0.5 Z M 279.5,127.5 C 332.834,127.333 386.168,127.5 439.5,128C 453.764,129.431 461.431,137.264 462.5,151.5C 445.497,151.333 428.497,151.5 411.5,152C 409.667,152.5 408.5,153.667 408,155.5C 407.279,161.394 405.779,167.06 403.5,172.5C 402.335,173.584 401.002,174.417 399.5,175C 386.167,175.167 372.833,175.333 359.5,175.5C 345.101,175.642 330.768,175.142 316.5,174C 313.388,168.251 311.554,162.084 311,155.5C 310.5,153.667 309.333,152.5 307.5,152C 290.503,151.5 273.503,151.333 256.5,151.5C 257.748,137.253 265.415,129.253 279.5,127.5 Z M 255.5,167.5 C 268.837,167.333 282.171,167.5 295.5,168C 296.82,175.974 300.487,182.641 306.5,188C 308.275,189.439 310.275,190.439 312.5,191C 343.833,191.667 375.167,191.667 406.5,191C 410.758,189.616 414.258,187.116 417,183.5C 419.946,178.664 422.112,173.498 423.5,168C 436.829,167.5 450.163,167.333 463.5,167.5C 463.5,260.833 463.5,354.167 463.5,447.5C 394.167,447.5 324.833,447.5 255.5,447.5C 255.5,354.167 255.5,260.833 255.5,167.5 Z M 359.5,239.5 C 397.687,242.853 421.187,263.186 430,300.5C 433.047,333.239 420.547,358.073 392.5,375C 354.614,390.573 323.447,382.073 299,349.5C 280.319,313.733 285.819,282.233 315.5,255C 328.738,245.533 343.405,240.366 359.5,239.5 Z M 390.5,276.5 C 394.737,279.228 398.571,282.561 402,286.5C 402.667,287.167 402.667,287.833 402,288.5C 382.833,307.667 363.667,326.833 344.5,346C 343.833,346.667 343.167,346.667 342.5,346C 334,337.5 325.5,329 317,320.5C 319.446,315.867 322.946,311.867 327.5,308.5C 331.352,312.186 335.352,315.686 339.5,319C 342.964,319.817 346.298,319.483 349.5,318C 363.369,304.299 377.035,290.465 390.5,276.5 Z M 255.5,463.5 C 324.833,463.5 394.167,463.5 463.5,463.5C 465.03,478.293 459.03,488.46 445.5,494C 416.866,495.142 388.2,495.642 359.5,495.5C 330.8,495.642 302.134,495.142 273.5,494C 259.987,488.499 253.987,478.333 255.5,463.5 Z"/></g>
<g><path style="opacity:0.953" d="M 107.5,31.5 C 120.837,31.3334 134.171,31.5001 147.5,32C 149.333,32.5 150.5,33.6667 151,35.5C 151.333,40.5 151.667,45.5 152,50.5C 156.064,51.9672 160.064,53.6338 164,55.5C 167.822,52.3469 171.655,49.1802 175.5,46C 178.303,45.245 180.97,45.5783 183.5,47C 192.364,55.5298 200.864,64.3631 209,73.5C 209.755,76.3033 209.422,78.9699 208,81.5C 204.783,84.3805 201.95,87.5471 199.5,91C 201.392,94.6754 202.892,98.5088 204,102.5C 209.083,103.307 214.25,103.807 219.5,104C 221.333,104.5 222.5,105.667 223,107.5C 223.667,120.833 223.667,134.167 223,147.5C 222.5,149.333 221.333,150.5 219.5,151C 214.5,151.333 209.5,151.667 204.5,152C 203.033,156.064 201.366,160.064 199.5,164C 202.653,167.822 205.82,171.655 209,175.5C 209.755,178.303 209.422,180.97 208,183.5C 199.47,192.364 190.637,200.864 181.5,209C 178.697,209.755 176.03,209.422 173.5,208C 170.62,204.783 167.453,201.95 164,199.5C 160.325,201.392 156.491,202.892 152.5,204C 151.693,209.083 151.193,214.25 151,219.5C 150.5,221.333 149.333,222.5 147.5,223C 134.167,223.667 120.833,223.667 107.5,223C 105.667,222.5 104.5,221.333 104,219.5C 103.667,214.5 103.333,209.5 103,204.5C 98.9359,203.033 94.9359,201.366 91,199.5C 87.1779,202.653 83.3446,205.82 79.5,209C 76.6967,209.755 74.0301,209.422 71.5,208C 62.6359,199.47 54.1359,190.637 46,181.5C 45.245,178.697 45.5783,176.03 47,173.5C 50.2171,170.62 53.0505,167.453 55.5,164C 53.608,160.325 52.108,156.491 51,152.5C 45.917,151.693 40.7503,151.193 35.5,151C 33.6667,150.5 32.5,149.333 32,147.5C 31.3333,134.167 31.3333,120.833 32,107.5C 32.5,105.667 33.6667,104.5 35.5,104C 40.5,103.667 45.5,103.333 50.5,103C 51.9672,98.9359 53.6338,94.9359 55.5,91C 52.3469,87.1779 49.1802,83.3446 46,79.5C 45.245,76.6967 45.5783,74.0301 47,71.5C 55.5298,62.6359 64.3631,54.1359 73.5,46C 76.3033,45.245 78.9699,45.5783 81.5,47C 84.3805,50.2171 87.5471,53.0505 91,55.5C 94.6754,53.608 98.5088,52.108 102.5,51C 103.307,45.917 103.807,40.7503 104,35.5C 104.69,33.6498 105.856,32.3164 107.5,31.5 Z M 119.5,47.5 C 124.833,47.5 130.167,47.5 135.5,47.5C 135.334,52.1785 135.501,56.8452 136,61.5C 136.5,63.3333 137.667,64.5 139.5,65C 148.634,67.8198 157.467,71.3198 166,75.5C 170.645,73.8678 174.478,71.0345 177.5,67C 181.797,69.1084 185.464,72.2751 188.5,76.5C 186.183,79.3174 183.683,81.9841 181,84.5C 180.5,86 180,87.5 179.5,89C 184.013,98.1971 187.846,107.697 191,117.5C 191.75,118.126 192.584,118.626 193.5,119C 198.155,119.499 202.821,119.666 207.5,119.5C 207.5,124.833 207.5,130.167 207.5,135.5C 202.821,135.334 198.155,135.501 193.5,136C 191.667,136.5 190.5,137.667 190,139.5C 187.18,148.634 183.68,157.467 179.5,166C 181.132,170.645 183.966,174.478 188,177.5C 185.892,181.797 182.725,185.464 178.5,188.5C 175.683,186.183 173.016,183.683 170.5,181C 169,180.5 167.5,180 166,179.5C 156.803,184.013 147.303,187.846 137.5,191C 136.874,191.75 136.374,192.584 136,193.5C 135.501,198.155 135.334,202.821 135.5,207.5C 130.167,207.5 124.833,207.5 119.5,207.5C 119.666,202.821 119.499,198.155 119,193.5C 118.5,191.667 117.333,190.5 115.5,190C 106.366,187.18 97.5327,183.68 89,179.5C 84.3554,181.132 80.5221,183.966 77.5,188C 73.2027,185.892 69.536,182.725 66.5,178.5C 68.8167,175.683 71.3167,173.016 74,170.5C 74.5,169 75,167.5 75.5,166C 70.9872,156.803 67.1538,147.303 64,137.5C 63.2496,136.874 62.4162,136.374 61.5,136C 56.8452,135.501 52.1785,135.334 47.5,135.5C 47.5,130.167 47.5,124.833 47.5,119.5C 52.1785,119.666 56.8452,119.499 61.5,119C 63.3333,118.5 64.5,117.333 65,115.5C 67.8198,106.366 71.3198,97.5327 75.5,89C 73.8678,84.3554 71.0345,80.5221 67,77.5C 69.1084,73.2027 72.2751,69.536 76.5,66.5C 79.3174,68.8167 81.9841,71.3167 84.5,74C 86,74.5 87.5,75 89,75.5C 97.5327,71.3198 106.366,67.8198 115.5,65C 117,64.1667 118.167,63 119,61.5C 119.499,56.8452 119.666,52.1785 119.5,47.5 Z M 121.5,104.5 C 141.958,103.457 151.458,113.124 150,133.5C 142.814,150.009 130.98,154.509 114.5,147C 103.836,137.909 101.669,127.076 108,114.5C 111.579,109.731 116.079,106.397 121.5,104.5 Z"/></g>
<g><path style="opacity:1" d="M 335.5,31.5 C 370.167,31.5 404.833,31.5 439.5,31.5C 439.5,36.8333 439.5,42.1667 439.5,47.5C 404.833,47.5 370.167,47.5 335.5,47.5C 335.5,42.1667 335.5,36.8333 335.5,31.5 Z"/></g>
<g><path style="opacity:1" d="M 455.5,31.5 C 460.833,31.5 466.167,31.5 471.5,31.5C 471.5,36.8333 471.5,42.1667 471.5,47.5C 466.167,47.5 460.833,47.5 455.5,47.5C 455.5,42.1667 455.5,36.8333 455.5,31.5 Z"/></g>
<g><path style="opacity:0.928" d="M 118.5,87.5 C 141.329,84.5469 157.163,93.5469 166,114.5C 171.718,138.897 163.218,156.064 140.5,166C 116.103,171.718 98.936,163.218 89,140.5C 83.4241,113.977 93.2574,96.3104 118.5,87.5 Z M 121.5,104.5 C 116.079,106.397 111.579,109.731 108,114.5C 101.669,127.076 103.836,137.909 114.5,147C 130.98,154.509 142.814,150.009 150,133.5C 151.458,113.124 141.958,103.457 121.5,104.5 Z"/></g>
<g><path style="opacity:1" d="M 327.5,143.5 C 348.833,143.5 370.167,143.5 391.5,143.5C 391.5,148.833 391.5,154.167 391.5,159.5C 370.167,159.5 348.833,159.5 327.5,159.5C 327.5,154.167 327.5,148.833 327.5,143.5 Z"/></g>
<g><path style="opacity:0.96" d="M 195.5,215.5 C 207.5,215.5 219.5,215.5 231.5,215.5C 231.5,220.833 231.5,226.167 231.5,231.5C 223.5,231.5 215.5,231.5 207.5,231.5C 207.666,236.179 207.499,240.845 207,245.5C 206.167,247 205,248.167 203.5,249C 194.366,251.82 185.533,255.32 177,259.5C 172.355,257.868 168.522,255.034 165.5,251C 161.203,253.108 157.536,256.275 154.5,260.5C 156.817,263.317 159.317,265.984 162,268.5C 162.5,270 163,271.5 163.5,273C 158.987,282.197 155.154,291.697 152,301.5C 151.25,302.126 150.416,302.626 149.5,303C 144.845,303.499 140.179,303.666 135.5,303.5C 135.5,311.5 135.5,319.5 135.5,327.5C 130.167,327.5 124.833,327.5 119.5,327.5C 119.333,315.495 119.5,303.495 120,291.5C 120.5,289.667 121.667,288.5 123.5,288C 128.5,287.667 133.5,287.333 138.5,287C 139.967,282.936 141.634,278.936 143.5,275C 140.347,271.178 137.18,267.345 134,263.5C 133.245,260.697 133.578,258.03 135,255.5C 143.53,246.636 152.363,238.136 161.5,230C 164.303,229.245 166.97,229.578 169.5,231C 172.38,234.217 175.547,237.05 179,239.5C 182.675,237.608 186.509,236.108 190.5,235C 191.307,229.917 191.807,224.75 192,219.5C 192.69,217.65 193.856,216.316 195.5,215.5 Z"/></g>
<g><path style="opacity:0.929" d="M 346.5,223.5 C 385.128,220.067 414.961,234.401 436,266.5C 449.417,292.402 451.083,319.068 441,346.5C 420,387.585 386.5,404.752 340.5,398C 302.144,387.977 279.311,363.477 272,324.5C 268.071,285.864 282.238,256.031 314.5,235C 324.632,229.313 335.299,225.479 346.5,223.5 Z M 359.5,239.5 C 343.405,240.366 328.738,245.533 315.5,255C 285.819,282.233 280.319,313.733 299,349.5C 323.447,382.073 354.614,390.573 392.5,375C 420.547,358.073 433.047,333.239 430,300.5C 421.187,263.186 397.687,242.853 359.5,239.5 Z M 390.5,276.5 C 377.035,290.465 363.369,304.299 349.5,318C 346.298,319.483 342.964,319.817 339.5,319C 335.352,315.686 331.352,312.186 327.5,308.5C 322.946,311.867 319.446,315.867 317,320.5C 325.5,329 334,337.5 342.5,346C 343.167,346.667 343.833,346.667 344.5,346C 363.667,326.833 382.833,307.667 402,288.5C 402.667,287.833 402.667,287.167 402,286.5C 398.571,282.561 394.737,279.228 390.5,276.5 Z"/></g>
<g><path style="opacity:0.911" d="M 387.5,255.5 C 390.978,255.184 394.312,255.684 397.5,257C 405.667,265.167 413.833,273.333 422,281.5C 423.483,284.702 423.817,288.036 423,291.5C 398.862,316.639 374.362,341.472 349.5,366C 346.298,367.483 342.964,367.817 339.5,367C 325.029,353.529 310.862,339.696 297,325.5C 295.517,322.298 295.183,318.964 296,315.5C 304.5,305.667 313.667,296.5 323.5,288C 326.167,287.333 328.833,287.333 331.5,288C 335.466,290.964 339.133,294.297 342.5,298C 343.167,298.667 343.833,298.667 344.5,298C 358.728,283.604 373.062,269.438 387.5,255.5 Z M 390.5,276.5 C 377.035,290.465 363.369,304.299 349.5,318C 346.298,319.483 342.964,319.817 339.5,319C 335.352,315.686 331.352,312.186 327.5,308.5C 322.946,311.867 319.446,315.867 317,320.5C 325.5,329 334,337.5 342.5,346C 343.167,346.667 343.833,346.667 344.5,346C 363.667,326.833 382.833,307.667 402,288.5C 402.667,287.833 402.667,287.167 402,286.5C 398.571,282.561 394.737,279.228 390.5,276.5 Z"/></g>
<g><path style="opacity:0.929" d="M 206.5,271.5 C 209.5,271.5 212.5,271.5 215.5,271.5C 215.5,277.167 215.5,282.833 215.5,288.5C 201.185,289.481 193.519,297.148 192.5,311.5C 186.833,311.5 181.167,311.5 175.5,311.5C 176.245,290.654 186.578,277.321 206.5,271.5 Z"/></g>
<g><path style="opacity:1" d="M 31.5,367.5 C 36.8333,367.5 42.1667,367.5 47.5,367.5C 47.5,372.833 47.5,378.167 47.5,383.5C 42.1667,383.5 36.8333,383.5 31.5,383.5C 31.5,378.167 31.5,372.833 31.5,367.5 Z"/></g>
<g><path style="opacity:1" d="M 63.5,367.5 C 79.5,367.5 95.5,367.5 111.5,367.5C 111.5,372.833 111.5,378.167 111.5,383.5C 95.5,383.5 79.5,383.5 63.5,383.5C 63.5,378.167 63.5,372.833 63.5,367.5 Z"/></g>
<g><path style="opacity:1" d="M 327.5,471.5 C 348.833,471.5 370.167,471.5 391.5,471.5C 391.5,476.833 391.5,482.167 391.5,487.5C 370.167,487.5 348.833,487.5 327.5,487.5C 327.5,482.167 327.5,476.833 327.5,471.5 Z"/></g>
</svg>
