<svg xmlns="http://www.w3.org/2000/svg" version="1.1" xmlns:xlink="http://www.w3.org/1999/xlink" viewBox="0 0 512 512" style="enable-background:new 0 0 512 512" xml:space="preserve" class="hovered-paths">
  <g>
    <path d="M501.99 59.71c0-1.56-.6-3.09-1.74-4.24l-43.71-43.71a5.97 5.97 0 0 0-4.24-1.74V10H270.24c-3.31 0-6 2.69-6 6v135.88c-52.41 8.77-92.48 54.44-92.48 109.31 0 51.52 35.34 94.94 83.05 107.31V490h-12.57v-98.89c0-3.31-2.69-6-6-6H190.9c-3.31 0-6 2.69-6 6V490h-12.57V316.79c0-3.31-2.69-6-6-6h-45.34c-3.31 0-6 2.69-6 6V490h-12.57V235.4c0-3.31-2.69-6-6-6H51.07c-3.31 0-6 2.69-6 6V490H22V187c0-3.31-2.69-6-6-6s-6 2.69-6 6v309c0 3.31 2.69 6 6 6h325.03c3.31 0 6-2.69 6-6s-2.69-6-6-6h-28.88V368.02c9.6-2.66 18.69-6.58 27.06-11.58l63.36 74.44c5.58 6.56 13.6 10.36 22.6 10.73.47.02.94.03 1.42.03 9.39 0 18.48-3.75 25.13-10.4a35.617 35.617 0 0 0 10.37-26.55c-.36-8.99-4.17-17.01-10.73-22.59l-42.8-36.43H496c3.31 0 6-2.69 6-6V59.71zm-43.7-29.22 23.22 23.22h-23.22zm-274.53 230.7c0-54.5 44.34-98.84 98.83-98.84s98.84 44.34 98.84 98.84-44.34 98.83-98.84 98.83-98.83-44.33-98.83-98.83zm13.14 135.92h33.34V490H196.9zm-69.92-74.32h33.34V490h-33.34zM57.07 241.4h33.34V490H57.07zM300.15 490h-33.34V370.9c5.16.74 10.43 1.13 15.79 1.13 5.97 0 11.83-.48 17.55-1.4zm70.16-161.14 10.05 8.55-22.46 22.46-8.67-10.18c7.92-5.97 15.02-12.98 21.08-20.83zm79.79 76.31c.26 6.45-2.31 13.03-6.87 17.58-4.56 4.56-11.13 7.13-17.58 6.87-5.61-.23-10.56-2.54-13.94-6.51l-46.01-54.06 23.83-23.83 54.06 46.01c3.97 3.38 6.29 8.33 6.51 13.94zm-55.63-71.51-17.3-14.73c10.31-16.83 16.27-36.6 16.27-57.75 0-61.12-49.72-110.84-110.84-110.84-2.13 0-4.25.07-6.36.19V22h170.05v37.71c0 3.31 2.69 6 6 6H490v267.95zM303.92 75.98c0-3.31 2.69-6 6-6h110.17c3.31 0 6 2.69 6 6s-2.69 6-6 6H309.92c-3.31 0-6-2.69-6-6zm161 44.31c0 3.31-2.69 6-6 6h-149c-3.31 0-6-2.69-6-6s2.69-6 6-6h149c3.32 0 6 2.68 6 6zm0 44.3c0 3.31-2.69 6-6 6H364c-3.31 0-6-2.69-6-6s2.69-6 6-6h94.93c3.31 0 5.99 2.69 5.99 6zm0 44.31c0 3.31-2.69 6-6 6h-46.85c-3.31 0-6-2.69-6-6s2.69-6 6-6h46.85c3.32 0 6 2.69 6 6zm0 44.31c0 3.31-2.69 6-6 6h-51.44c-3.31 0-6-2.69-6-6s2.69-6 6-6h51.44c3.32 0 6 2.68 6 6zm-101.9-36.33c0-44.34-36.08-80.42-80.42-80.42s-80.42 36.08-80.42 80.42 36.08 80.42 80.42 80.42 80.42-36.08 80.42-80.42zm-148.84 0c0-37.73 30.69-68.42 68.42-68.42s68.42 30.69 68.42 68.42-30.69 68.42-68.42 68.42-68.42-30.69-68.42-68.42zm111.13-18.26-51.25 51.25c-1.12 1.13-2.65 1.76-4.24 1.76s-3.12-.63-4.24-1.76l-29.22-29.22a6 6 0 0 1 0-8.48 6 6 0 0 1 8.48 0l24.98 24.98 47-47a6 6 0 0 1 8.48 0 5.96 5.96 0 0 1 .01 8.47z"/>
  </g>
</svg>
