<svg xmlns="http://www.w3.org/2000/svg" version="1.1" xmlns:xlink="http://www.w3.org/1999/xlink" x="0" y="0" viewBox="0 0 60 60" style="enable-background:new 0 0 512 512" xml:space="preserve"><g><g fill-rule="nonzero"><path d="M57 7H45.7l-2.373-2.371a2 2 0 0 0-2.577-.214l-2.474 1.753a16.53 16.53 0 0 0-3.652-1.5l-.5-2.993A2 2 0 0 0 32.153 0h-4.306a2 2 0 0 0-1.973 1.672l-.51 2.986c-1.271.36-2.495.87-3.645 1.522L19.25 4.414a2 2 0 0 0-2.577.215L14.3 7H3a3 3 0 0 0-3 3v37a3 3 0 0 0 3 3h17.987a6.451 6.451 0 0 1-2.287 4.093H18a2.907 2.907 0 1 0 0 5.814h24a2.907 2.907 0 1 0 0-5.814h-.7A6.451 6.451 0 0 1 39.013 50H57a3 3 0 0 0 3-3V10a3 3 0 0 0-3-3zm-38.912-.958 2.47 1.766a1.984 1.984 0 0 0 2.142.106 14.909 14.909 0 0 1 3.207-1.331 2.012 2.012 0 0 0 1.442-1.592L27.847 2h4.306l.5 2.992a2.01 2.01 0 0 0 1.44 1.59c1.117.318 2.193.764 3.207 1.331a1.987 1.987 0 0 0 2.144-.106l2.47-1.764 2.651 2.651.022.022.372.372-1.766 2.47a1.986 1.986 0 0 0-.106 2.142 14.937 14.937 0 0 1 1.332 3.209 2.011 2.011 0 0 0 1.591 1.44l2.991.5v4.306l-2.992.5a2.01 2.01 0 0 0-1.59 1.44 14.955 14.955 0 0 1-1.332 3.205 1.985 1.985 0 0 0 .106 2.144l1.764 2.47-3.045 3.045-2.47-1.766a1.985 1.985 0 0 0-2.142-.106 14.909 14.909 0 0 1-3.207 1.331 2.012 2.012 0 0 0-1.442 1.592L32.153 40h-4.306l-.5-2.992a2.01 2.01 0 0 0-1.44-1.59 14.955 14.955 0 0 1-3.207-1.331 2.028 2.028 0 0 0-1-.264c-.412 0-.814.13-1.149.37l-2.47 1.764-3.045-3.045 1.766-2.47c.45-.632.492-1.469.106-2.142a14.909 14.909 0 0 1-1.331-3.207 2.012 2.012 0 0 0-1.592-1.442L11 23.153v-4.306l2.992-.5a2.01 2.01 0 0 0 1.59-1.44 14.955 14.955 0 0 1 1.331-3.207 1.985 1.985 0 0 0-.106-2.144l-1.764-2.47.371-.371.022-.022zM43.093 57c0 .603-.49 1.092-1.093 1.093H18a1.093 1.093 0 0 1 0-2.186h24c.603 0 1.092.49 1.093 1.093zm-4.317-2.907H21.224A9.135 9.135 0 0 0 22.82 50h14.36a9.135 9.135 0 0 0 1.596 4.093zM57 48H3a1 1 0 0 1-1-1v-2h4a1 1 0 0 0 0-2H2V10a1 1 0 0 1 1-1h10.048c-.021.446.108.886.367 1.25l1.753 2.474a16.53 16.53 0 0 0-1.5 3.652l-2.993.5A2 2 0 0 0 9 18.847v4.306a2 2 0 0 0 1.672 1.973l2.986.51c.36 1.271.87 2.495 1.522 3.645l-1.766 2.469a2 2 0 0 0 .215 2.577l3.044 3.044a2 2 0 0 0 2.577.214l2.474-1.753a16.53 16.53 0 0 0 3.652 1.505l.5 2.993A2 2 0 0 0 27.847 42h4.306a2 2 0 0 0 1.973-1.672l.51-2.986c1.271-.36 2.495-.87 3.645-1.522l2.469 1.766a2 2 0 0 0 2.577-.215l3.044-3.044a2 2 0 0 0 .214-2.577l-1.753-2.474a16.53 16.53 0 0 0 1.505-3.652l2.993-.5A2 2 0 0 0 51 23.153v-4.306a2 2 0 0 0-1.672-1.973l-2.978-.492a16.534 16.534 0 0 0-1.529-3.661l1.766-2.469A2 2 0 0 0 46.952 9H57a1 1 0 0 1 1 1v33H10a1 1 0 0 0 0 2h48v2a1 1 0 0 1-1 1z" opacity="1"></path><path d="M30 34c7.18 0 13-5.82 13-13S37.18 8 30 8s-13 5.82-13 13c.008 7.176 5.824 12.992 13 13zm0-24c6.075 0 11 4.925 11 11s-4.925 11-11 11-11-4.925-11-11c.007-6.072 4.928-10.993 11-11z" opacity="1"></path><path d="m21.293 21.707 4 4a1 1 0 0 0 1.414-1.414L23.414 21l3.293-3.293a1 1 0 0 0-1.414-1.414l-4 4a1 1 0 0 0 0 1.414zM33.293 25.707a1 1 0 0 0 1.414 0l4-4a1 1 0 0 0 0-1.414l-4-4a1 1 0 0 0-1.414 1.414L36.586 21l-3.293 3.293a1 1 0 0 0 0 1.414zM28.758 25.97a1 1 0 0 0 1.211-.728l2-8a1 1 0 0 0-1.94-.484l-2 8a1 1 0 0 0 .729 1.212z" opacity="1"></path></g></g></svg>