<?xml version="1.0" standalone="no"?>
<!DOCTYPE svg PUBLIC "-//W3C//DTD SVG 20010904//EN"
 "http://www.w3.org/TR/2001/REC-SVG-20010904/DTD/svg10.dtd">
<svg version="1.0" xmlns="http://www.w3.org/2000/svg"
 width="360.000000pt" height="360.000000pt" viewBox="0 0 360.000000 360.000000"
 preserveAspectRatio="xMidYMid meet">
<metadata>
Created by potrace 1.16, written by Peter Selinger 2001-2019
</metadata>
<g transform="translate(0.000000,360.000000) scale(0.100000,-0.100000)"
fill="#000000" stroke="none">
<path d="M1742 3058 c-21 -21 -84 -204 -272 -790 l-31 -97 -470 -3 -471 -3
-19 -24 c-56 -69 -33 -111 129 -227 263 -188 577 -416 590 -429 11 -10 -11
-88 -128 -445 -151 -462 -153 -471 -103 -510 52 -41 85 -29 238 83 77 57 243
179 368 270 l228 167 305 -222 c460 -337 433 -318 475 -318 48 0 89 40 89 85
0 16 -63 221 -140 455 -76 234 -136 428 -132 431 8 8 529 386 649 471 46 32
87 67 93 78 19 36 12 80 -19 111 l-29 29 -464 0 -463 0 -63 198 c-183 571
-216 667 -238 689 -31 31 -91 31 -122 1z m229 -518 l146 -435 484 -5 484 -5 3
-22 c3 -18 -59 -65 -385 -298 -213 -153 -390 -280 -393 -282 -5 -5 56 -188
201 -603 49 -140 87 -261 84 -267 -11 -30 -55 -8 -179 86 -267 202 -590 432
-601 427 -6 -2 -155 -105 -331 -229 -175 -123 -330 -230 -344 -238 -14 -8 -29
-20 -33 -26 -11 -18 -66 -16 -74 2 -3 9 41 161 97 338 57 177 120 375 141 440
l37 119 -360 239 c-198 131 -372 250 -386 264 -14 14 -22 31 -18 40 5 13 65
15 490 15 453 0 485 1 490 18 102 351 251 840 259 850 29 36 42 8 188 -428z"/>
</g>
</svg>
