<svg xmlns="http://www.w3.org/2000/svg" version="1.1" xmlns:xlink="http://www.w3.org/1999/xlink" x="0" y="0" viewBox="0 0 512 512" style="enable-background:new 0 0 512 512" xml:space="preserve" class=""><g><path d="M49.377 198.463a7.486 7.486 0 0 0 7.487-7.487V85.212c0-4.111 3.344-7.454 7.454-7.454h278.021c4.135 0 7.487-3.351 7.487-7.487s-3.352-7.487-7.487-7.487H64.318c-12.366 0-22.427 10.061-22.427 22.427v105.764a7.486 7.486 0 0 0 7.486 7.488zM496.299 329.948H470.11V85.212c0-12.366-10.061-22.427-22.427-22.427h-67.109c-4.135 0-7.487 3.351-7.487 7.487s3.352 7.487 7.487 7.487h67.109c4.11 0 7.454 3.344 7.454 7.454v186.184h-47.946c-.308 0-.611.024-.909.061-11.631-11.813-27.792-19.154-45.64-19.154-17.874 0-34.055 7.363-45.69 19.206a7.456 7.456 0 0 0-1.249-.112H56.863v-43.133a7.487 7.487 0 1 0-14.974 0V329.95H15.701C7.043 329.948 0 336.992 0 345.649v.116c0 36.547 29.733 66.28 66.28 66.28h194.564c10.192 21.924 32.412 37.17 58.138 37.17s47.947-15.245 58.139-37.17h68.599c36.547 0 66.28-29.734 66.28-66.28v-.116c0-8.657-7.043-15.701-15.701-15.701zm-41.163-43.579v43.579h-31.87a63.793 63.793 0 0 0 1.461-13.56 63.68 63.68 0 0 0-7.488-30.019zm-94.494-19.093c27.081 0 49.113 22.032 49.113 49.113 0 20.262-12.51 38.324-31.003 45.66-9.286-23.962-32.568-41.006-59.77-41.006-2.431 0-4.828.149-7.189.414a49.771 49.771 0 0 1-.265-5.068c0-27.082 22.032-49.113 49.114-49.113zM66.28 397.073c-28.291 0-51.307-23.016-51.307-51.307v-.116c0-.402.327-.728.728-.728h222.445a7.487 7.487 0 1 0 0-14.974H56.863v-43.579h247.18a63.668 63.668 0 0 0-7.488 30.019c0 2.845.21 5.683.583 8.492-24.613 8.952-42.242 32.579-42.242 60.248 0 4.083.4 8.072 1.133 11.944H66.28zm252.702 37.169c-27.081 0-49.113-22.033-49.113-49.114s22.032-49.113 49.113-49.113 49.113 22.032 49.113 49.113c0 27.082-22.032 49.114-49.113 49.114zm178.045-88.477c0 28.291-23.016 51.307-51.307 51.307h-63.784a64.156 64.156 0 0 0 1.133-11.944c0-2.876-.209-5.703-.578-8.479 15.705-5.692 28.279-17.246 35.501-31.728h78.307c.402 0 .728.327.728.728z"  opacity="1" className=""></path><path d="M295.113 198.463a7.485 7.485 0 0 0 7.355-6.093l13.288-70.101.024-.131a8.987 8.987 0 0 0-1.991-7.322 8.981 8.981 0 0 0-6.88-3.197h-111.86l-1.554-8.231c-1.597-8.466-9.008-14.61-17.623-14.61h-13.994c-4.135 0-7.487 3.351-7.487 7.487s3.352 7.487 7.487 7.487h13.994a2.963 2.963 0 0 1 2.909 2.414l22.157 117.352a7.485 7.485 0 0 0 7.356 6.097h5.051c-2.211 2.472-3.568 5.725-3.568 9.302 0 7.717 6.255 13.972 13.972 13.972s13.972-6.256 13.972-13.972c0-3.578-1.356-6.831-3.568-9.302h30.799c-2.211 2.472-3.568 5.725-3.568 9.302 0 7.717 6.255 13.972 13.972 13.972s13.972-6.256 13.972-13.972c0-3.578-1.356-6.831-3.568-9.302h6.737a7.487 7.487 0 1 0 0-14.974h-78l-3.055-16.178zm-36.989-35.936-1.532 20.962h-14.96l-1.532-20.962zm-19.119-14.973-1.532-20.961h23.277l-1.532 20.961zm32.6 35.936 1.532-20.962h19.749l-3.974 20.962zm24.119-35.936h-21.493l1.532-20.961h23.935zm-73.264-20.961 1.532 20.961h-22.159l-3.958-20.961zm-17.8 35.934h20.426l1.532 20.962h-18.001zM341.491 396.19a7.487 7.487 0 0 0-10.547.92c-.36.429-.744.826-1.144 1.182-2.05 1.826-4.695 2.751-7.864 2.751-6.07 0-11.353-3.418-14.036-8.429h9.707a7.487 7.487 0 1 0 0-14.974H307.9c2.683-5.01 7.966-8.428 14.036-8.428 3.19 0 6.265.939 8.893 2.714a7.487 7.487 0 0 0 8.381-12.407 30.744 30.744 0 0 0-17.275-5.28c-14.45 0-26.61 9.976-29.966 23.401h-2.426a7.487 7.487 0 1 0 0 14.974h2.426c3.355 13.426 15.515 23.402 29.966 23.402 6.854 0 13.017-2.263 17.821-6.541a26.469 26.469 0 0 0 2.656-2.738 7.486 7.486 0 0 0-.921-10.547z" opacity="1"  className=""></path></g></svg>