<?xml version="1.0" encoding="UTF-8"?>
<!DOCTYPE svg PUBLIC "-//W3C//DTD SVG 1.1//EN" "http://www.w3.org/Graphics/SVG/1.1/DTD/svg11.dtd">
<svg xmlns="http://www.w3.org/2000/svg" version="1.1" viewBox="0 0 512 512" style="shape-rendering:geometricPrecision; text-rendering:geometricPrecision; image-rendering:optimizeQuality; fill-rule:evenodd; clip-rule:evenodd" xmlns:xlink="http://www.w3.org/1999/xlink">
<g><path style="opacity:0.974" d="M 38.5,7.5 C 113.834,7.33334 189.167,7.5 264.5,8C 275.53,10.8656 284.196,17.0323 290.5,26.5C 323.264,5.1631 357.93,1.6631 394.5,16C 439.316,39.1188 459.483,75.9522 455,126.5C 446.917,169.584 422.083,198.084 380.5,212C 350.849,219.779 322.849,215.945 296.5,200.5C 295.5,218.821 295.167,237.155 295.5,255.5C 318.169,255.667 340.836,255.5 363.5,255C 379.167,239.333 394.833,223.667 410.5,208C 425.844,207.833 441.178,207.333 456.5,206.5C 465.113,191.131 477.446,187.297 493.5,195C 504.243,204.791 506.41,216.291 500,229.5C 491.866,239.366 481.699,242.199 469.5,238C 463.639,234.972 459.306,230.472 456.5,224.5C 444.18,223.334 431.847,223.167 419.5,224C 403.833,239.667 388.167,255.333 372.5,271C 346.835,271.5 321.169,271.667 295.5,271.5C 295.5,276.833 295.5,282.167 295.5,287.5C 349.171,287.833 402.837,287.5 456.5,286.5C 465.113,271.131 477.446,267.297 493.5,275C 504.243,284.791 506.41,296.291 500,309.5C 491.043,319.804 480.21,322.304 467.5,317C 462.589,313.922 458.922,309.756 456.5,304.5C 402.837,303.5 349.171,303.167 295.5,303.5C 295.5,308.833 295.5,314.167 295.5,319.5C 321.169,319.333 346.835,319.5 372.5,320C 388.167,335.667 403.833,351.333 419.5,367C 431.847,367.833 444.18,367.666 456.5,366.5C 465.113,351.131 477.446,347.297 493.5,355C 503.366,363.134 506.199,373.301 502,385.5C 495.662,397.417 485.828,401.917 472.5,399C 465.118,396.453 459.785,391.62 456.5,384.5C 441.178,383.667 425.844,383.167 410.5,383C 394.833,367.333 379.167,351.667 363.5,336C 340.836,335.5 318.169,335.333 295.5,335.5C 295.667,381.168 295.5,426.835 295,472.5C 290.833,488.667 280.667,498.833 264.5,503C 189.167,503.667 113.833,503.667 38.5,503C 22.3333,498.833 12.1667,488.667 8,472.5C 7.33333,327.833 7.33333,183.167 8,38.5C 12.3489,22.3186 22.5156,11.9852 38.5,7.5 Z M 47.5,23.5 C 118.865,23.0193 190.198,23.5193 261.5,25C 268.362,27.1961 273.362,31.5294 276.5,38C 267.341,47.82 260.341,58.9866 255.5,71.5C 178.167,71.5 100.833,71.5 23.5,71.5C 23.3336,63.4931 23.5003,55.4931 24,47.5C 26.0286,33.6393 33.862,25.6393 47.5,23.5 Z M 347.5,24.5 C 350.187,24.3359 352.854,24.5026 355.5,25C 362.102,29.3706 366.935,35.2039 370,42.5C 371.807,46.7561 373.307,51.0894 374.5,55.5C 359.167,55.5 343.833,55.5 328.5,55.5C 331.546,43.0596 337.88,32.7262 347.5,24.5 Z M 317.5,30.5 C 318.376,30.3691 319.043,30.7025 319.5,31.5C 315.368,39.0932 312.368,47.0932 310.5,55.5C 301.827,55.6664 293.16,55.4998 284.5,55C 294.142,44.862 305.142,36.6953 317.5,30.5 Z M 383.5,30.5 C 396.928,36.0854 408.594,44.2521 418.5,55C 409.84,55.4998 401.173,55.6664 392.5,55.5C 390.342,46.8539 387.342,38.5206 383.5,30.5 Z M 273.5,71.5 C 284.52,71.1679 295.52,71.5012 306.5,72.5C 304.403,82.7111 303.403,93.0445 303.5,103.5C 290.5,103.5 277.5,103.5 264.5,103.5C 265.636,92.2859 268.636,81.6193 273.5,71.5 Z M 323.5,71.5 C 342.167,71.5 360.833,71.5 379.5,71.5C 381.159,82.1028 382.159,92.7694 382.5,103.5C 361.833,103.5 341.167,103.5 320.5,103.5C 320.767,92.76 321.767,82.0933 323.5,71.5 Z M 396.5,71.5 C 407.52,71.1679 418.52,71.5012 429.5,72.5C 434.52,82.2458 437.52,92.5792 438.5,103.5C 425.5,103.5 412.5,103.5 399.5,103.5C 399.524,92.7183 398.524,82.0516 396.5,71.5 Z M 23.5,87.5 C 98.8333,87.5 174.167,87.5 249.5,87.5C 241.905,125.867 251.738,158.867 279,186.5C 279.984,270.197 279.65,353.864 278,437.5C 274.295,448.204 266.795,454.037 255.5,455C 186.167,455.667 116.833,455.667 47.5,455C 33.6667,453.167 25.8333,445.333 24,431.5C 23.5,316.834 23.3333,202.167 23.5,87.5 Z M 264.5,119.5 C 277.5,119.5 290.5,119.5 303.5,119.5C 303.403,129.956 304.403,140.289 306.5,150.5C 295.5,151.833 284.5,151.833 273.5,150.5C 268.48,140.754 265.48,130.421 264.5,119.5 Z M 320.5,119.5 C 341.167,119.5 361.833,119.5 382.5,119.5C 382.159,130.231 381.159,140.897 379.5,151.5C 360.833,151.5 342.167,151.5 323.5,151.5C 321.767,140.907 320.767,130.24 320.5,119.5 Z M 399.5,119.5 C 412.5,119.5 425.5,119.5 438.5,119.5C 437.52,130.422 434.52,140.756 429.5,150.5C 418.5,151.833 407.5,151.833 396.5,150.5C 398.597,140.289 399.597,129.956 399.5,119.5 Z M 133.5,136.5 C 169.994,134.829 192.161,151.829 200,187.5C 220.213,179.79 235.213,185.457 245,204.5C 249.771,223.119 243.604,236.619 226.5,245C 222.886,245.945 219.219,246.612 215.5,247C 172.833,247.667 130.167,247.667 87.5,247C 71.8185,245.589 61.6519,237.423 57,222.5C 54.4608,208.422 58.9608,197.255 70.5,189C 76.3879,186.317 82.3879,184.15 88.5,182.5C 94.1433,157.858 109.143,142.525 133.5,136.5 Z M 285.5,167.5 C 293.833,167.5 302.167,167.5 310.5,167.5C 312.368,175.907 315.368,183.907 319.5,191.5C 306.577,187.416 295.411,180.083 286,169.5C 285.536,168.906 285.369,168.239 285.5,167.5 Z M 328.5,167.5 C 343.833,167.5 359.167,167.5 374.5,167.5C 371.594,178.91 365.928,188.743 357.5,197C 353.5,199 349.5,199 345.5,197C 337.072,188.743 331.406,178.91 328.5,167.5 Z M 392.5,167.5 C 400.86,167.169 409.193,167.502 417.5,168.5C 408.134,179.61 396.801,187.276 383.5,191.5C 387.632,183.907 390.632,175.907 392.5,167.5 Z M 476.5,208.5 C 485.85,208.365 488.517,212.532 484.5,221C 475.956,224.322 472.123,221.489 473,212.5C 473.69,210.65 474.856,209.316 476.5,208.5 Z M 476.5,288.5 C 485.85,288.365 488.517,292.532 484.5,301C 475.956,304.322 472.123,301.489 473,292.5C 473.69,290.65 474.856,289.316 476.5,288.5 Z M 147.5,360.5 C 153.523,359.197 157.189,361.53 158.5,367.5C 157.189,373.643 153.523,375.809 147.5,374C 142.221,369.503 142.221,365.003 147.5,360.5 Z M 476.5,368.5 C 485.85,368.365 488.517,372.532 484.5,381C 475.956,384.322 472.123,381.489 473,372.5C 473.69,370.65 474.856,369.316 476.5,368.5 Z M 24.5,465.5 C 28.9225,467.81 33.5892,469.644 38.5,471C 113.833,471.667 189.167,471.667 264.5,471C 269.054,469.724 273.387,467.891 277.5,465.5C 278.27,469.395 277.437,473.062 275,476.5C 270.131,483.018 263.631,486.518 255.5,487C 186.167,487.667 116.833,487.667 47.5,487C 34.4827,485.481 26.816,478.314 24.5,465.5 Z"/></g>
<g><path style="opacity:0.892" d="M 43.5,39.5 C 54.8598,38.71 58.1931,43.5434 53.5,54C 42.9641,57.997 38.4641,54.497 40,43.5C 40.6897,41.6498 41.8564,40.3164 43.5,39.5 Z"/></g>
<g><path style="opacity:1"     d="M 103.5,39.5 C 135.5,39.5 167.5,39.5 199.5,39.5C 199.5,44.8333 199.5,50.1667 199.5,55.5C 167.5,55.5 135.5,55.5 103.5,55.5C 103.5,50.1667 103.5,44.8333 103.5,39.5 Z"/></g>
<g><path style="opacity:0.946" d="M 131.5,119.5 C 162.546,116.279 187.046,127.279 205,152.5C 207.735,157.299 209.902,162.299 211.5,167.5C 236.535,166.709 253.369,178.042 262,201.5C 267.609,225.691 260.109,244.524 239.5,258C 235.05,260.261 230.383,261.928 225.5,263C 176.167,263.667 126.833,263.667 77.5,263C 49.0794,254.346 36.5794,235.18 40,205.5C 42.6412,194.053 48.4745,184.553 57.5,177C 63.2851,173.692 69.1185,170.525 75,167.5C 85.1732,141.15 104.007,125.15 131.5,119.5 Z M 133.5,136.5 C 109.143,142.525 94.1433,157.858 88.5,182.5C 82.3879,184.15 76.3879,186.317 70.5,189C 58.9608,197.255 54.4608,208.422 57,222.5C 61.6519,237.423 71.8185,245.589 87.5,247C 130.167,247.667 172.833,247.667 215.5,247C 219.219,246.612 222.886,245.945 226.5,245C 243.604,236.619 249.771,223.119 245,204.5C 235.213,185.457 220.213,179.79 200,187.5C 192.161,151.829 169.994,134.829 133.5,136.5 Z"/></g>
<g><path style="opacity:0.921" d="M 137.5,279.5 C 161.641,276.869 183.641,282.369 203.5,296C 207.314,298.647 210.647,301.813 213.5,305.5C 209.849,309.652 206.016,313.652 202,317.5C 179.574,296.547 153.741,291.047 124.5,301C 115.241,304.933 107.075,310.433 100,317.5C 96.3333,313.833 92.6667,310.167 89,306.5C 90.2365,303.224 92.4032,300.391 95.5,298C 108.15,288.622 122.15,282.456 137.5,279.5 Z"/></g>
<g><path style="opacity:0.914" d="M 140.5,311.5 C 159.394,309.01 175.894,314.01 190,326.5C 190.667,327.5 190.667,328.5 190,329.5C 186.621,333.216 182.954,336.549 179,339.5C 160.233,323.718 141.399,323.718 122.5,339.5C 118.348,335.849 114.348,332.016 110.5,328C 118.982,319.595 128.982,314.095 140.5,311.5 Z"/></g>
<g><path style="opacity:0.929" d="M 143.5,343.5 C 165.13,341.302 175.63,350.969 175,372.5C 170.009,387.754 159.509,393.92 143.5,391C 127.159,383.317 122.659,371.151 130,354.5C 133.336,349.269 137.836,345.602 143.5,343.5 Z M 147.5,360.5 C 142.221,365.003 142.221,369.503 147.5,374C 153.523,375.809 157.189,373.643 158.5,367.5C 157.189,361.53 153.523,359.197 147.5,360.5 Z"/></g>
<g><path style="opacity:1"     d="M 119.5,423.5 C 146.167,423.5 172.833,423.5 199.5,423.5C 199.5,428.833 199.5,434.167 199.5,439.5C 172.833,439.5 146.167,439.5 119.5,439.5C 119.5,434.167 119.5,428.833 119.5,423.5 Z"/></g>
</svg>
