<svg xmlns="http://www.w3.org/2000/svg" version="1.1" xmlns:xlink="http://www.w3.org/1999/xlink"  x="0" y="0" viewBox="0 0 512 512" style="enable-background:new 0 0 512 512" xml:space="preserve"><g><path d="M76.258 132.08a6.006 6.006 0 0 0 2.226 3.2l58.924 43.154v36.961l-20.257 20.257a14.511 14.511 0 0 0-1.889 18.37l12.1 18.448a144.691 144.691 0 0 0-10.1 24.357l-21.588 4.487a14.51 14.51 0 0 0-11.654 14.324V364.4a14.51 14.51 0 0 0 11.653 14.325l21.585 4.486a144.685 144.685 0 0 0 10.1 24.361l-12.1 18.446a14.51 14.51 0 0 0 1.889 18.369l34.48 34.48a14.5 14.5 0 0 0 18.373 1.89l18.448-12.1a144.755 144.755 0 0 0 24.359 10.1l4.487 21.583A14.509 14.509 0 0 0 231.619 512h48.763a14.509 14.509 0 0 0 14.324-11.653l4.487-21.585a144.851 144.851 0 0 0 24.361-10.1L342 480.757a14.506 14.506 0 0 0 18.369-1.889l34.481-34.48a14.51 14.51 0 0 0 1.889-18.369l-12.1-18.448a144.638 144.638 0 0 0 10.105-24.359l21.583-4.486A14.51 14.51 0 0 0 427.98 364.4v-48.762a14.509 14.509 0 0 0-11.653-14.325l-21.585-4.487a144.724 144.724 0 0 0-10.1-24.36l12.1-18.446a14.51 14.51 0 0 0-1.889-18.369l-20.258-20.258v-36.96l58.925-43.154a6.006 6.006 0 0 0 2.226-3.2l26.374-92.736a24.087 24.087 0 0 0-15.726-29.572l-1.808-.591A24 24 0 0 0 414.8 22.79l-31.19 74.286-82.283 34.735h-90.655l-82.283-34.735L97.2 22.79A24 24 0 0 0 67.414 9.18l-1.808.591a24.088 24.088 0 0 0-15.727 29.572ZM386.7 247.439l-14.06 21.444a6 6 0 0 0-.22 6.218 132.632 132.632 0 0 1 11.82 28.506 6 6 0 0 0 4.552 4.239l25.093 5.216a2.547 2.547 0 0 1 2.1 2.576V364.4a2.548 2.548 0 0 1-2.094 2.576l-25.091 5.216a6 6 0 0 0-4.552 4.24 132.585 132.585 0 0 1-11.824 28.5 6 6 0 0 0 .22 6.218L386.7 432.6a2.547 2.547 0 0 1-.339 3.3l-34.481 34.481a2.546 2.546 0 0 1-3.3.34l-21.444-14.061a6 6 0 0 0-6.217-.221 132.642 132.642 0 0 1-28.508 11.821 6 6 0 0 0-4.237 4.551l-5.216 25.089a2.547 2.547 0 0 1-2.576 2.1h-48.763a2.548 2.548 0 0 1-2.577-2.1l-5.216-25.091a6 6 0 0 0-4.238-4.551 132.575 132.575 0 0 1-28.5-11.825 6 6 0 0 0-6.218.221l-21.447 14.064a2.544 2.544 0 0 1-3.3-.34L125.636 435.9a2.546 2.546 0 0 1-.339-3.3l14.063-21.444a6 6 0 0 0 .22-6.218 132.652 132.652 0 0 1-11.82-28.507 6 6 0 0 0-4.552-4.238l-25.093-5.216a2.548 2.548 0 0 1-2.095-2.577v-48.762a2.547 2.547 0 0 1 2.094-2.576l25.1-5.217a6 6 0 0 0 4.552-4.239 132.615 132.615 0 0 1 11.82-28.5 6 6 0 0 0-.22-6.217L125.3 247.44a2.549 2.549 0 0 1 .339-3.3l34.48-34.48a2.55 2.55 0 0 1 3.3-.34l21.444 14.063a6 6 0 0 0 6.217.22 132.647 132.647 0 0 1 28.507-11.823 6 6 0 0 0 4.238-4.551l5.216-25.09a2.548 2.548 0 0 1 2.577-2.1h48.763a2.548 2.548 0 0 1 2.576 2.095l5.216 25.091a6 6 0 0 0 4.238 4.551 132.622 132.622 0 0 1 28.5 11.824 6 6 0 0 0 6.218-.22l21.447-14.064a2.548 2.548 0 0 1 3.3.34l34.48 34.48a2.548 2.548 0 0 1 .344 3.303ZM69.337 21.176l1.808-.591a12.078 12.078 0 0 1 14.99 6.85l32.136 76.541a6 6 0 0 0 3.2 3.2l85.654 36.158a5.99 5.99 0 0 0 2.333.473h93.086a5.99 5.99 0 0 0 2.333-.473l85.653-36.154a6 6 0 0 0 3.2-3.2l32.136-76.541a12.079 12.079 0 0 1 14.99-6.85l1.808.591a12.123 12.123 0 0 1 7.915 14.884l-25.814 90.755-59.718 43.734a6 6 0 0 0-2.455 4.841v28l-2.223-2.223a14.507 14.507 0 0 0-18.369-1.89l-18.448 12.1a144.672 144.672 0 0 0-24.359-10.1l-4.487-21.583a14.51 14.51 0 0 0-14.324-11.652h-48.763a14.51 14.51 0 0 0-14.325 11.653l-4.487 21.582a144.765 144.765 0 0 0-24.361 10.1L170 199.282a14.507 14.507 0 0 0-18.369 1.888l-2.224 2.224v-28a6 6 0 0 0-2.455-4.841l-59.716-43.739L61.421 36.06a12.124 12.124 0 0 1 7.916-14.884ZM256 0a58.17 58.17 0 1 0 58.17 58.17A58.236 58.236 0 0 0 256 0Zm0 104.34a46.17 46.17 0 1 1 46.17-46.17A46.223 46.223 0 0 1 256 104.34Zm0 140.643a95.036 95.036 0 1 0 95.036 95.037A95.145 95.145 0 0 0 256 244.983Zm-13.618 176.936V365.8a6 6 0 0 0-6-6h-21.419L256 295.318l41.038 64.482h-21.42a6 6 0 0 0-6 6v56.115a82.192 82.192 0 0 1-27.236 0Zm39.236-2.926V371.8h26.35a6 6 0 0 0 5.061-9.221l-51.967-81.662a6 6 0 0 0-10.124 0l-51.967 81.662a6 6 0 0 0 5.061 9.221h26.35v47.189a83.036 83.036 0 1 1 51.236 0Z" opacity="1"></path></g></svg>