<?xml version="1.0" encoding="UTF-8"?>
<!DOCTYPE svg PUBLIC "-//W3C//DTD SVG 1.1//EN" "http://www.w3.org/Graphics/SVG/1.1/DTD/svg11.dtd">
<svg xmlns="http://www.w3.org/2000/svg" version="1.1" viewBox="0 0 512 512" style="shape-rendering:geometricPrecision; text-rendering:geometricPrecision; image-rendering:optimizeQuality; fill-rule:evenodd; clip-rule:evenodd" xmlns:xlink="http://www.w3.org/1999/xlink">
<g><path style="opacity:0.94"  d="M 235.5,7.5 C 249.598,7.0351 263.598,7.5351 277.5,9C 278.717,10.6477 279.55,12.481 280,14.5C 280.339,21.5648 281.172,28.5648 282.5,35.5C 285.04,36.4021 287.54,37.4021 290,38.5C 296.267,34.6102 302.1,30.1102 307.5,25C 311.952,22.7776 315.952,23.4443 319.5,27C 327,34.8333 334.5,42.6667 342,50.5C 343.888,54.8611 343.222,58.8611 340,62.5C 336.096,66.6478 332.429,70.9811 329,75.5C 329.19,78.5851 330.024,81.5851 331.5,84.5C 338.435,85.8281 345.435,86.6615 352.5,87C 355.494,87.4057 357.661,88.9057 359,91.5C 359.964,105.594 359.631,119.594 358,133.5C 356.352,134.717 354.519,135.55 352.5,136C 345.422,136.249 338.422,137.083 331.5,138.5C 330.598,141.04 329.598,143.54 328.5,146C 332.874,151.906 337.374,157.739 342,163.5C 343.85,166.537 343.85,169.537 342,172.5C 333.5,181 325,189.5 316.5,198C 312.139,199.888 308.139,199.222 304.5,196C 300.352,192.096 296.019,188.429 291.5,185C 288.415,185.19 285.415,186.024 282.5,187.5C 281.172,194.435 280.339,201.435 280,208.5C 279.594,211.494 278.094,213.661 275.5,215C 261.406,215.964 247.406,215.631 233.5,214C 232.283,212.352 231.45,210.519 231,208.5C 230.661,201.435 229.828,194.435 228.5,187.5C 225.96,186.598 223.46,185.598 221,184.5C 215.094,188.874 209.261,193.374 203.5,198C 200.463,199.85 197.463,199.85 194.5,198C 186,189.5 177.5,181 169,172.5C 167.112,168.139 167.778,164.139 171,160.5C 174.904,156.352 178.571,152.019 182,147.5C 181.81,144.415 180.976,141.415 179.5,138.5C 172.565,137.172 165.565,136.339 158.5,136C 155.506,135.594 153.339,134.094 152,131.5C 151.036,117.406 151.369,103.406 153,89.5C 154.648,88.283 156.481,87.4497 158.5,87C 165.565,86.6615 172.565,85.8281 179.5,84.5C 180.402,81.9602 181.402,79.4602 182.5,77C 178.61,70.7331 174.11,64.8997 169,59.5C 166.778,55.0484 167.444,51.0484 171,47.5C 179.136,40.3645 186.97,32.8645 194.5,25C 198.861,23.1115 202.861,23.7782 206.5,27C 210.648,30.9041 214.981,34.5708 219.5,38C 222.585,37.8098 225.585,36.9765 228.5,35.5C 229.828,28.5648 230.661,21.5648 231,14.5C 231.53,11.415 233.03,9.08167 235.5,7.5 Z M 247.5,23.5 C 252.833,23.5 258.167,23.5 263.5,23.5C 264.003,30.8685 264.836,38.2019 266,45.5C 266.833,47.6667 268.333,49.1667 270.5,50C 277.558,52.5382 284.558,55.0382 291.5,57.5C 293.634,57.4847 295.634,56.9847 297.5,56C 302.061,51.396 307.061,47.7293 312.5,45C 316.016,48.3486 319.349,51.8486 322.5,55.5C 318.856,60.3121 315.022,64.9788 311,69.5C 310.015,71.3659 309.515,73.3659 309.5,75.5C 312.412,83.0628 315.246,90.7295 318,98.5C 318.903,99.7014 320.069,100.535 321.5,101C 328.816,102.054 336.149,102.887 343.5,103.5C 343.5,108.833 343.5,114.167 343.5,119.5C 336.149,120.113 328.816,120.946 321.5,122C 319.333,122.833 317.833,124.333 317,126.5C 314.775,133.679 312.275,140.679 309.5,147.5C 309.515,149.634 310.015,151.634 311,153.5C 314.667,157.833 318.333,162.167 322,166.5C 319.554,171.133 316.054,175.133 311.5,178.5C 306.688,174.856 302.021,171.022 297.5,167C 295.634,166.015 293.634,165.515 291.5,165.5C 283.892,168.296 276.225,171.129 268.5,174C 266.226,176.344 265.059,179.178 265,182.5C 264.555,188.18 264.055,193.846 263.5,199.5C 258.167,199.5 252.833,199.5 247.5,199.5C 246.997,192.131 246.164,184.798 245,177.5C 244.167,175.333 242.667,173.833 240.5,173C 233.442,170.462 226.442,167.962 219.5,165.5C 217.366,165.515 215.366,166.015 213.5,167C 209.167,170.667 204.833,174.333 200.5,178C 195.867,175.554 191.867,172.054 188.5,167.5C 192.144,162.688 195.978,158.021 200,153.5C 200.985,151.634 201.485,149.634 201.5,147.5C 198.704,139.892 195.871,132.225 193,124.5C 190.656,122.226 187.822,121.059 184.5,121C 178.811,120.627 173.145,120.127 167.5,119.5C 167.5,114.167 167.5,108.833 167.5,103.5C 174.861,102.946 182.194,102.113 189.5,101C 191.667,100.167 193.167,98.6667 194,96.5C 196.538,89.4419 199.038,82.4419 201.5,75.5C 201.485,73.3659 200.985,71.3659 200,69.5C 195.396,64.9389 191.729,59.9389 189,54.5C 192.349,50.9842 195.849,47.6508 199.5,44.5C 204.312,48.1444 208.979,51.9777 213.5,56C 215.366,56.9847 217.366,57.4847 219.5,57.5C 227.108,54.7041 234.775,51.8708 242.5,49C 244.774,46.6557 245.941,43.8224 246,40.5C 246.445,34.8202 246.945,29.1535 247.5,23.5 Z M 248.5,80.5 C 274.976,79.4758 287.476,92.1425 286,118.5C 281.45,133.949 271.117,142.282 255,143.5C 232.733,139.974 222.733,126.974 225,104.5C 228.349,91.9853 236.182,83.9853 248.5,80.5 Z"/></g>
<g><path style="opacity:0.933" d="M 245.5,63.5 C 275.16,60.5645 294.326,73.2311 303,101.5C 306.421,131.18 293.921,150.346 265.5,159C 235.82,162.421 216.654,149.921 208,121.5C 204.699,91.7349 217.199,72.4016 245.5,63.5 Z M 248.5,80.5 C 236.182,83.9853 228.349,91.9853 225,104.5C 222.733,126.974 232.733,139.974 255,143.5C 271.117,142.282 281.45,133.949 286,118.5C 287.476,92.1425 274.976,79.4758 248.5,80.5 Z"/></g>
<g><path style="opacity:0.991" d="M 38.5,71.5 C 76.1667,71.5 113.833,71.5 151.5,71.5C 151.5,76.8333 151.5,82.1667 151.5,87.5C 116.832,87.3333 82.1651,87.5 47.5,88C 33.35,89.4833 25.5167,97.3166 24,111.5C 23.5,183.499 23.3333,255.499 23.5,327.5C 178.167,327.5 332.833,327.5 487.5,327.5C 487.667,255.499 487.5,183.499 487,111.5C 485.483,97.3166 477.65,89.4833 463.5,88C 428.835,87.5 394.168,87.3333 359.5,87.5C 359.5,82.1667 359.5,76.8333 359.5,71.5C 397.168,71.3333 434.835,71.5 472.5,72C 488.667,76.1667 498.833,86.3333 503,102.5C 503.667,193.833 503.667,285.167 503,376.5C 498.833,392.667 488.667,402.833 472.5,407C 418.834,407.5 365.168,407.667 311.5,407.5C 311.5,418.167 311.5,428.833 311.5,439.5C 319.507,439.334 327.507,439.5 335.5,440C 348,443.167 355.833,451 359,463.5C 359.96,476.262 359.627,488.929 358,501.5C 357.25,502.126 356.416,502.626 355.5,503C 288.833,503.667 222.167,503.667 155.5,503C 154.584,502.626 153.75,502.126 153,501.5C 151.373,488.929 151.04,476.262 152,463.5C 155.167,451 163,443.167 175.5,440C 183.493,439.5 191.493,439.334 199.5,439.5C 199.5,428.833 199.5,418.167 199.5,407.5C 145.832,407.667 92.1656,407.5 38.5,407C 22.3333,402.833 12.1667,392.667 8,376.5C 7.33333,285.167 7.33333,193.833 8,102.5C 12.3489,86.3186 22.5156,75.9852 38.5,71.5 Z M 248.5,80.5 C 236.182,83.9853 228.349,91.9853 225,104.5C 222.733,126.974 232.733,139.974 255,143.5C 271.117,142.282 281.45,133.949 286,118.5C 287.476,92.1425 274.976,79.4758 248.5,80.5 Z M 263.5,247.5 C 269.925,247.13 276.258,247.63 282.5,249C 286.696,251.981 287.529,255.814 285,260.5C 284.25,261.126 283.416,261.626 282.5,262C 276.258,263.37 269.925,263.87 263.5,263.5C 263.5,258.167 263.5,252.833 263.5,247.5 Z M 207.5,248.5 C 216.143,247.314 221.31,250.981 223,259.5C 223.499,263.486 223.666,267.486 223.5,271.5C 215.5,271.5 207.5,271.5 199.5,271.5C 199.229,266.087 199.729,260.754 201,255.5C 202.694,252.642 204.861,250.309 207.5,248.5 Z M 23.5,343.5 C 178.167,343.5 332.833,343.5 487.5,343.5C 487.666,351.507 487.5,359.507 487,367.5C 486.037,378.795 480.204,386.295 469.5,390C 398.197,391.157 326.863,391.657 255.5,391.5C 184.137,391.657 112.803,391.157 41.5,390C 30.8293,386.322 24.9959,378.822 24,367.5C 23.5003,359.507 23.3336,351.507 23.5,343.5 Z M 215.5,407.5 C 242.167,407.5 268.833,407.5 295.5,407.5C 295.5,418.167 295.5,428.833 295.5,439.5C 268.833,439.5 242.167,439.5 215.5,439.5C 215.5,428.833 215.5,418.167 215.5,407.5 Z M 183.5,455.5 C 231.501,455.333 279.501,455.5 327.5,456C 336.667,457.167 341.833,462.333 343,471.5C 343.499,476.823 343.666,482.156 343.5,487.5C 284.833,487.5 226.167,487.5 167.5,487.5C 167.212,480.437 167.712,473.437 169,466.5C 171.821,460.023 176.655,456.356 183.5,455.5 Z"/></g>
<g><path style="opacity:0.975" d="M 203.5,231.5 C 219.278,228.806 230.778,234.473 238,248.5C 239.466,269.433 239.966,290.433 239.5,311.5C 234.167,311.5 228.833,311.5 223.5,311.5C 223.5,303.5 223.5,295.5 223.5,287.5C 215.5,287.5 207.5,287.5 199.5,287.5C 199.5,295.5 199.5,303.5 199.5,311.5C 194.167,311.5 188.833,311.5 183.5,311.5C 183.333,291.497 183.5,271.497 184,251.5C 187.351,241.65 193.851,234.983 203.5,231.5 Z M 207.5,248.5 C 204.861,250.309 202.694,252.642 201,255.5C 199.729,260.754 199.229,266.087 199.5,271.5C 207.5,271.5 215.5,271.5 223.5,271.5C 223.666,267.486 223.499,263.486 223,259.5C 221.31,250.981 216.143,247.314 207.5,248.5 Z"/></g>
<g><path style="opacity:0.976" d="M 251.5,231.5 C 263.171,231.333 274.838,231.5 286.5,232C 301.758,238.356 306.925,249.523 302,265.5C 298.686,272.149 293.519,276.649 286.5,279C 278.841,279.5 271.174,279.666 263.5,279.5C 263.5,290.167 263.5,300.833 263.5,311.5C 258.167,311.5 252.833,311.5 247.5,311.5C 247.333,286.164 247.5,260.831 248,235.5C 248.69,233.65 249.856,232.316 251.5,231.5 Z M 263.5,247.5 C 263.5,252.833 263.5,258.167 263.5,263.5C 269.925,263.87 276.258,263.37 282.5,262C 283.416,261.626 284.25,261.126 285,260.5C 287.529,255.814 286.696,251.981 282.5,249C 276.258,247.63 269.925,247.13 263.5,247.5 Z"/></g>
<g><path style="opacity:1" d="M 311.5,231.5 C 316.833,231.5 322.167,231.5 327.5,231.5C 327.5,258.167 327.5,284.833 327.5,311.5C 322.167,311.5 316.833,311.5 311.5,311.5C 311.5,284.833 311.5,258.167 311.5,231.5 Z"/></g>
<g><path style="opacity:1" d="M 215.5,359.5 C 242.167,359.5 268.833,359.5 295.5,359.5C 295.5,364.833 295.5,370.167 295.5,375.5C 268.833,375.5 242.167,375.5 215.5,375.5C 215.5,370.167 215.5,364.833 215.5,359.5 Z"/></g>
</svg>
