<?xml version="1.0" encoding="UTF-8"?>
<!DOCTYPE svg PUBLIC "-//W3C//DTD SVG 1.1//EN" "http://www.w3.org/Graphics/SVG/1.1/DTD/svg11.dtd">
<svg xmlns="http://www.w3.org/2000/svg" version="1.1" viewBox="0 0 512 512" style="shape-rendering:geometricPrecision; text-rendering:geometricPrecision; image-rendering:optimizeQuality; fill-rule:evenodd; clip-rule:evenodd" xmlns:xlink="http://www.w3.org/1999/xlink">
<g><path style="opacity:0.964" d="M 511.5,261.5 C 511.5,270.833 511.5,280.167 511.5,289.5C 502.999,330.671 478.333,356.671 437.5,367.5C 436.334,356.181 436.168,344.848 437,333.5C 467.531,321.119 481.198,298.452 478,265.5C 472.167,238.333 455.667,221.833 428.5,216C 414.171,215.5 399.837,215.333 385.5,215.5C 385.667,201.163 385.5,186.829 385,172.5C 379.878,147.423 365.045,131.256 340.5,124C 328.013,120.903 315.68,121.57 303.5,126C 293.378,130.561 283.378,135.394 273.5,140.5C 265.765,129.375 258.265,118.042 251,106.5C 222.113,75.2549 187.946,67.7549 148.5,84C 113.862,103.775 98.695,133.608 103,173.5C 105.421,184.684 107.921,195.851 110.5,207C 110.167,207.833 109.833,208.667 109.5,209.5C 95.7158,212.529 82.0491,216.029 68.5,220C 38.2248,236.062 27.0582,260.895 35,294.5C 44.4308,318.474 61.9308,332.307 87.5,336C 111.498,336.5 135.498,336.667 159.5,336.5C 159.5,347.5 159.5,358.5 159.5,369.5C 135.164,369.667 110.831,369.5 86.5,369C 38.8059,362.8 9.80587,336.3 -0.5,289.5C -0.5,280.167 -0.5,270.833 -0.5,261.5C 7.60749,221.057 31.6075,195.39 71.5,184.5C 62.9977,137.167 76.9977,98.0001 113.5,67C 145.212,43.6568 180.212,36.9902 218.5,47C 247.012,55.8509 269.512,72.6842 286,97.5C 330.551,80.3044 368.551,89.6378 400,125.5C 412.472,142.417 418.639,161.417 418.5,182.5C 469.244,185.692 500.244,212.025 511.5,261.5 Z"/></g>
<g><path style="opacity:0.976" d="M 283.5,233.5 C 312.883,232.565 341.883,235.398 370.5,242C 381.056,244.447 390.723,248.78 399.5,255C 407.79,263.603 407.123,271.603 397.5,279C 377.152,289.505 355.485,295.505 332.5,297C 294.99,301.005 257.99,298.338 221.5,289C 211.242,286.122 202.075,281.289 194,274.5C 189.35,265.704 191.184,258.538 199.5,253C 215.429,244.431 232.429,239.098 250.5,237C 261.625,235.559 272.625,234.393 283.5,233.5 Z"/></g>
<g><path style="opacity:0.98"  d="M 191.5,308.5 C 262.488,340.499 333.488,340.499 404.5,308.5C 405.666,330.159 405.833,351.826 405,373.5C 372.95,390.212 338.783,398.212 302.5,397.5C 263.818,397.731 226.984,389.731 192,373.5C 191.5,351.836 191.333,330.169 191.5,308.5 Z"/></g>
<g><path style="opacity:0.98"  d="M 191.5,404.5 C 262.488,436.499 333.488,436.499 404.5,404.5C 405.666,424.825 405.833,445.158 405,465.5C 404.31,468.196 402.81,470.363 400.5,472C 369.582,486.885 336.916,494.051 302.5,493.5C 266.461,493.525 231.794,486.692 198.5,473C 195.829,471.75 193.663,469.917 192,467.5C 191.5,446.503 191.333,425.503 191.5,404.5 Z"/></g>
</svg>
