<?xml version="1.0" encoding="UTF-8"?>
<!DOCTYPE svg PUBLIC "-//W3C//DTD SVG 1.1//EN" "http://www.w3.org/Graphics/SVG/1.1/DTD/svg11.dtd">
<svg xmlns="http://www.w3.org/2000/svg" version="1.1" viewBox="0 0 512 512" style="shape-rendering:geometricPrecision; text-rendering:geometricPrecision; image-rendering:optimizeQuality; fill-rule:evenodd; clip-rule:evenodd" xmlns:xlink="http://www.w3.org/1999/xlink">
<g><path style="opacity:0.944" d="M 294.5,7.5 C 334.869,3.88483 372.035,12.8848 406,34.5C 404.947,30.2909 405.614,26.2909 408,22.5C 413.28,19.3257 417.947,19.9924 422,24.5C 425.27,35.4761 428.437,46.4761 431.5,57.5C 430.961,62.4556 428.294,65.289 423.5,66C 412.481,66.5138 401.481,66.8471 390.5,67C 384.905,64.646 383.072,60.4793 385,54.5C 386.167,53.3333 387.333,52.1667 388.5,51C 391.833,50.6667 395.167,50.3333 398.5,50C 351.709,20.6797 302.709,16.3464 251.5,37C 198.757,62.4377 168.257,104.271 160,162.5C 156.777,197.27 164.11,229.603 182,259.5C 181.567,269.637 176.734,272.47 167.5,268C 151.802,242.404 143.469,214.571 142.5,184.5C 117.5,184.5 92.5,184.5 67.5,184.5C 67.5,240.5 67.5,296.5 67.5,352.5C 171.833,352.5 276.167,352.5 380.5,352.5C 380.666,346.824 380.499,341.157 380,335.5C 332.052,355.026 284.552,353.86 237.5,332C 231.418,328.877 225.585,325.377 220,321.5C 220.996,325.554 220.662,329.554 219,333.5C 214.018,337.588 209.351,337.254 205,332.5C 200.944,320.684 197.944,308.684 196,296.5C 196.398,293.768 197.898,291.935 200.5,291C 212.807,289.616 225.14,289.283 237.5,290C 242.069,292.541 243.569,296.375 242,301.5C 238.439,305.469 233.939,307.302 228.5,307C 279.856,338.255 332.523,340.588 386.5,314C 445.741,278.353 472.241,225.853 466,156.5C 463.001,136.178 456.335,117.178 446,99.5C 445.352,90.1425 449.519,86.6425 458.5,89C 471.778,108.823 479.945,130.657 483,154.5C 489.885,217.361 469.551,269.361 422,310.5C 421.667,336.167 421.333,361.833 421,387.5C 417.346,402.487 408.18,412.32 393.5,417C 359.535,418.458 325.535,418.958 291.5,418.5C 291.5,428.167 291.5,437.833 291.5,447.5C 305.837,447.333 320.171,447.5 334.5,448C 346.88,450.051 355.38,456.884 360,468.5C 360.667,478.833 360.667,489.167 360,499.5C 359.626,500.416 359.126,501.25 358.5,502C 313.749,503.162 268.916,503.662 224,503.5C 179.084,503.662 134.251,503.162 89.5,502C 88.8742,501.25 88.3742,500.416 88,499.5C 87.3333,489.167 87.3333,478.833 88,468.5C 92.6196,456.884 101.12,450.051 113.5,448C 127.829,447.5 142.163,447.333 156.5,447.5C 156.5,437.833 156.5,428.167 156.5,418.5C 124.498,418.667 92.4983,418.5 60.5,418C 42.6785,415.18 31.5119,405.013 27,387.5C 26.3333,316.5 26.3333,245.5 27,174.5C 30.2817,158.551 39.7817,148.384 55.5,144C 85.5056,143.833 115.506,143.333 145.5,142.5C 166.408,65.5852 216.075,20.5852 294.5,7.5 Z M 373.5,220.5 C 358.917,241.214 338.75,251.881 313,252.5C 273.206,249.37 248.872,228.37 240,189.5C 236.815,151.685 252.315,124.851 286.5,109C 323.399,97.5142 353.232,107.348 376,138.5C 388.844,160.171 390.844,182.838 382,206.5C 379.894,211.73 377.061,216.397 373.5,220.5 Z M 352.5,151.5 C 354.167,151.5 355.833,151.5 357.5,151.5C 357.5,169.833 357.5,188.167 357.5,206.5C 355.833,206.5 354.167,206.5 352.5,206.5C 352.5,188.167 352.5,169.833 352.5,151.5 Z M 58.5,160.5 C 86.8353,160.333 115.169,160.5 143.5,161C 142.577,163.041 142.244,165.208 142.5,167.5C 114.831,167.333 87.1647,167.5 59.5,168C 56.087,169.077 53.587,171.244 52,174.5C 50.3445,237.109 50.0111,299.776 51,362.5C 51.3459,364.848 52.5125,366.681 54.5,368C 166.444,369.66 278.444,369.994 390.5,369C 393.573,368.261 395.74,366.428 397,363.5C 397.333,351.5 397.667,339.5 398,327.5C 399.828,325.919 401.828,324.585 404,323.5C 404.967,345.231 404.633,366.897 403,388.5C 399.817,395.679 394.317,399.846 386.5,401C 278.167,401.667 169.833,401.667 61.5,401C 52.5207,399.353 46.6874,394.186 44,385.5C 43.3333,315.833 43.3333,246.167 44,176.5C 45.9194,168.419 50.7528,163.085 58.5,160.5 Z M 310.5,174.5 C 312.5,174.5 314.5,174.5 316.5,174.5C 316.5,185.167 316.5,195.833 316.5,206.5C 314.5,206.5 312.5,206.5 310.5,206.5C 310.5,195.833 310.5,185.167 310.5,174.5 Z M 269.5,197.5 C 271.167,197.5 272.833,197.5 274.5,197.5C 274.5,200.5 274.5,203.5 274.5,206.5C 272.833,206.5 271.167,206.5 269.5,206.5C 269.5,203.5 269.5,200.5 269.5,197.5 Z M 173.5,418.5 C 207.167,418.5 240.833,418.5 274.5,418.5C 274.5,428.167 274.5,437.833 274.5,447.5C 240.833,447.5 207.167,447.5 173.5,447.5C 173.5,437.833 173.5,428.167 173.5,418.5 Z M 115.5,464.5 C 187.834,464.333 260.167,464.5 332.5,465C 337.188,465.92 340.688,468.42 343,472.5C 343.499,477.489 343.666,482.489 343.5,487.5C 263.833,487.5 184.167,487.5 104.5,487.5C 104.334,482.489 104.501,477.489 105,472.5C 107.539,468.49 111.039,465.824 115.5,464.5 Z"/></g>
<g><path style="opacity:0.932" d="M 292.5,43.5 C 306.504,43.3334 320.504,43.5001 334.5,44C 335.667,45.1667 336.833,46.3333 338,47.5C 340.229,53.6233 342.729,59.6233 345.5,65.5C 353.53,67.7878 361.197,70.9545 368.5,75C 374.784,74.2091 380.784,72.2091 386.5,69C 389.964,68.1834 393.298,68.5167 396.5,70C 405.697,78.863 414.531,88.0297 423,97.5C 423.667,99.5 423.667,101.5 423,103.5C 420.5,109.167 418,114.833 415.5,120.5C 419.53,128.393 422.864,136.559 425.5,145C 431.938,148.435 438.604,151.602 445.5,154.5C 446.584,155.665 447.417,156.998 448,158.5C 448.667,171.833 448.667,185.167 448,198.5C 447.535,199.931 446.701,201.097 445.5,202C 438.983,204.837 432.483,207.671 426,210.5C 423.378,219.199 419.878,227.533 415.5,235.5C 418,241.167 420.5,246.833 423,252.5C 423.755,255.303 423.422,257.97 422,260.5C 413.167,269.333 404.333,278.167 395.5,287C 393.246,288.15 390.913,288.484 388.5,288C 382.725,285.362 376.891,282.862 371,280.5C 362.625,285.124 353.792,288.457 344.5,290.5C 342.734,298.197 339.734,305.364 335.5,312C 321.903,313.612 308.236,313.945 294.5,313C 292.152,312.654 290.319,311.487 289,309.5C 286.496,303.316 283.996,297.15 281.5,291C 273.176,288.447 265.176,285.114 257.5,281C 250.95,282.428 244.617,284.761 238.5,288C 236.029,288.706 233.695,288.373 231.5,287C 222.333,277.833 213.167,268.667 204,259.5C 204.281,251.07 206.781,243.236 211.5,236C 207.154,227.806 203.487,219.306 200.5,210.5C 194.243,207.578 187.91,204.744 181.5,202C 180.299,201.097 179.465,199.931 179,198.5C 178.333,184.833 178.333,171.167 179,157.5C 179.465,156.069 180.299,154.903 181.5,154C 188.221,151.553 194.721,148.72 201,145.5C 203.269,136.796 206.769,128.629 211.5,121C 208.871,115.575 206.371,110.075 204,104.5C 203.21,101.366 203.543,98.366 205,95.5C 213.863,86.3027 223.03,77.4694 232.5,69C 240.93,69.2808 248.764,71.7808 256,76.5C 263.609,71.781 271.776,68.281 280.5,66C 283.779,59.2727 286.945,52.4393 290,45.5C 290.995,44.9341 291.828,44.2674 292.5,43.5 Z M 301.5,60.5 C 309.174,60.3336 316.841,60.5003 324.5,61C 326.892,67.1179 329.559,73.1179 332.5,79C 344.979,82.9078 356.979,87.9078 368.5,94C 369.833,94.6667 371.167,94.6667 372.5,94C 377.956,91.0912 383.622,89.0912 389.5,88C 394.682,93.0147 399.682,98.1814 404.5,103.5C 401.473,109.088 399.139,114.921 397.5,121C 403.292,133.092 408.126,145.592 412,158.5C 418.042,162.237 424.542,164.904 431.5,166.5C 431.831,174.196 431.497,181.862 430.5,189.5C 425.873,191.431 421.206,193.265 416.5,195C 414.714,195.785 413.214,196.951 412,198.5C 408.692,210.095 404.025,221.095 398,231.5C 397.333,233.833 397.333,236.167 398,238.5C 400.626,243.724 402.626,249.057 404,254.5C 398.985,259.682 393.819,264.682 388.5,269.5C 382.684,266.588 376.684,264.255 370.5,262.5C 358.887,267.797 346.887,272.297 334.5,276C 333.333,277.167 332.167,278.333 331,279.5C 328.963,285.071 326.796,290.571 324.5,296C 317.167,296.667 309.833,296.667 302.5,296C 300.146,290.124 297.646,284.29 295,278.5C 294.097,277.299 292.931,276.465 291.5,276C 279.493,272.168 267.826,267.668 256.5,262.5C 250.087,264.138 243.921,266.472 238,269.5C 233,264.5 228,259.5 223,254.5C 224.37,248.729 226.37,243.062 229,237.5C 229.667,235.833 229.667,234.167 229,232.5C 222.776,221.835 218.11,210.502 215,198.5C 213.786,196.951 212.286,195.785 210.5,195C 205.722,193.444 201.055,191.61 196.5,189.5C 195.503,181.862 195.169,174.196 195.5,166.5C 200.908,164.967 206.241,163.134 211.5,161C 213.726,159.773 215.226,157.939 216,155.5C 217.131,151.106 218.465,146.773 220,142.5C 223.195,135.449 226.362,128.449 229.5,121.5C 226.992,114.848 224.825,108.181 223,101.5C 228,96.5 233,91.5 238,86.5C 243.949,89.6504 250.116,92.3171 256.5,94.5C 262.585,91.9587 268.585,89.1254 274.5,86C 280.882,83.9285 287.215,81.7618 293.5,79.5C 297.329,73.6876 299.995,67.3542 301.5,60.5 Z M 373.5,220.5 C 377.061,216.397 379.894,211.73 382,206.5C 390.844,182.838 388.844,160.171 376,138.5C 353.232,107.348 323.399,97.5142 286.5,109C 252.315,124.851 236.815,151.685 240,189.5C 248.872,228.37 273.206,249.37 313,252.5C 338.75,251.881 358.917,241.214 373.5,220.5 Z M 352.5,151.5 C 352.5,169.833 352.5,188.167 352.5,206.5C 354.167,206.5 355.833,206.5 357.5,206.5C 357.5,188.167 357.5,169.833 357.5,151.5C 355.833,151.5 354.167,151.5 352.5,151.5 Z M 310.5,174.5 C 310.5,185.167 310.5,195.833 310.5,206.5C 312.5,206.5 314.5,206.5 316.5,206.5C 316.5,195.833 316.5,185.167 316.5,174.5C 314.5,174.5 312.5,174.5 310.5,174.5 Z M 269.5,197.5 C 269.5,200.5 269.5,203.5 269.5,206.5C 271.167,206.5 272.833,206.5 274.5,206.5C 274.5,203.5 274.5,200.5 274.5,197.5C 272.833,197.5 271.167,197.5 269.5,197.5 Z"/></g>
<g><path style="opacity:0.931" d="M 299.5,87.5 C 339.386,83.7126 370.219,98.3793 392,131.5C 410.03,166.206 408.363,199.873 387,232.5C 356.347,268.539 318.847,278.039 274.5,261C 231.262,236.678 215.096,200.178 226,151.5C 238.306,116.019 262.806,94.6859 299.5,87.5 Z M 373.5,220.5 C 377.061,216.397 379.894,211.73 382,206.5C 390.844,182.838 388.844,160.171 376,138.5C 353.232,107.348 323.399,97.5142 286.5,109C 252.315,124.851 236.815,151.685 240,189.5C 248.872,228.37 273.206,249.37 313,252.5C 338.75,251.881 358.917,241.214 373.5,220.5 Z M 352.5,151.5 C 352.5,169.833 352.5,188.167 352.5,206.5C 354.167,206.5 355.833,206.5 357.5,206.5C 357.5,188.167 357.5,169.833 357.5,151.5C 355.833,151.5 354.167,151.5 352.5,151.5 Z M 310.5,174.5 C 310.5,185.167 310.5,195.833 310.5,206.5C 312.5,206.5 314.5,206.5 316.5,206.5C 316.5,195.833 316.5,185.167 316.5,174.5C 314.5,174.5 312.5,174.5 310.5,174.5 Z M 269.5,197.5 C 269.5,200.5 269.5,203.5 269.5,206.5C 271.167,206.5 272.833,206.5 274.5,206.5C 274.5,203.5 274.5,200.5 274.5,197.5C 272.833,197.5 271.167,197.5 269.5,197.5 Z"/></g>
<g><path style="opacity:0.923" d="M 305.5,117.5 C 312.175,117.334 318.842,117.5 325.5,118C 327.329,118.273 328.829,119.107 330,120.5C 331.504,124.039 331.837,127.705 331,131.5C 329.822,136.543 328.489,141.543 327,146.5C 322.041,151.816 317.041,151.816 312,146.5C 300.167,155.667 288.333,164.833 276.5,174C 265.992,175.828 262.159,171.662 265,161.5C 277.075,151.547 289.242,141.713 301.5,132C 299.496,129.159 298.996,125.993 300,122.5C 301.107,119.887 302.94,118.22 305.5,117.5 Z"/></g>
<g><path style="opacity:0.942" d="M 373.5,220.5 C 371.86,221.32 370.193,222.153 368.5,223C 359.5,223.667 350.5,223.667 341.5,223C 338.943,222.315 337.109,220.815 336,218.5C 335.333,192.167 335.333,165.833 336,139.5C 336.833,137.333 338.333,135.833 340.5,135C 350.167,134.333 359.833,134.333 369.5,135C 371.667,135.833 373.167,137.333 374,139.5C 374.816,166.542 374.649,193.542 373.5,220.5 Z M 352.5,151.5 C 352.5,169.833 352.5,188.167 352.5,206.5C 354.167,206.5 355.833,206.5 357.5,206.5C 357.5,188.167 357.5,169.833 357.5,151.5C 355.833,151.5 354.167,151.5 352.5,151.5 Z"/></g>
<g><path style="opacity:0.931" d="M 300.5,157.5 C 310.233,157.109 319.9,157.609 329.5,159C 330.701,159.903 331.535,161.069 332,162.5C 333.625,180.101 333.959,197.767 333,215.5C 332.934,218.276 331.768,220.442 329.5,222C 318.833,224 308.167,224 297.5,222C 295.951,220.786 294.785,219.286 294,217.5C 293.333,199.5 293.333,181.5 294,163.5C 295.436,160.558 297.603,158.558 300.5,157.5 Z M 310.5,174.5 C 310.5,185.167 310.5,195.833 310.5,206.5C 312.5,206.5 314.5,206.5 316.5,206.5C 316.5,195.833 316.5,185.167 316.5,174.5C 314.5,174.5 312.5,174.5 310.5,174.5 Z"/></g>
<g><path style="opacity:0.942" d="M 257.5,180.5 C 267.172,180.334 276.839,180.5 286.5,181C 287.931,181.465 289.097,182.299 290,183.5C 291.6,194.761 291.933,206.094 291,217.5C 290.215,219.286 289.049,220.786 287.5,222C 277.908,223.587 268.242,223.92 258.5,223C 256.671,222.727 255.171,221.893 254,220.5C 252.375,208.596 252.042,196.596 253,184.5C 254.397,182.93 255.897,181.596 257.5,180.5 Z M 269.5,197.5 C 269.5,200.5 269.5,203.5 269.5,206.5C 271.167,206.5 272.833,206.5 274.5,206.5C 274.5,203.5 274.5,200.5 274.5,197.5C 272.833,197.5 271.167,197.5 269.5,197.5 Z"/></g>
</svg>
