<?xml version="1.0" encoding="UTF-8"?>
<!DOCTYPE svg PUBLIC "-//W3C//DTD SVG 1.1//EN" "http://www.w3.org/Graphics/SVG/1.1/DTD/svg11.dtd">
<svg xmlns="http://www.w3.org/2000/svg" version="1.1" viewBox="0 0 512 512" style="shape-rendering:geometricPrecision; text-rendering:geometricPrecision; image-rendering:optimizeQuality; fill-rule:evenodd; clip-rule:evenodd" xmlns:xlink="http://www.w3.org/1999/xlink">
<g><path style="opacity:0.944" d="M 109.5,-0.5 C 177.167,-0.5 244.833,-0.5 312.5,-0.5C 315.952,2.36822 318.452,6.03489 320,10.5C 334.333,42.5 348.667,74.5 363,106.5C 379.849,123.852 393.349,143.519 403.5,165.5C 431.827,166.333 460.161,166.833 488.5,167C 500.022,169.026 507.688,175.526 511.5,186.5C 511.5,232.5 511.5,278.5 511.5,324.5C 507.688,335.474 500.022,341.974 488.5,344C 460.161,344.167 431.827,344.667 403.5,345.5C 393.349,367.481 379.849,387.148 363,404.5C 347.333,439.167 331.667,473.833 316,508.5C 314.855,509.636 313.688,510.636 312.5,511.5C 244.833,511.5 177.167,511.5 109.5,511.5C 107.832,509.66 106.332,507.66 105,505.5C 90,471.833 75,438.167 60,404.5C 25.5679,368.633 5.40126,325.967 -0.5,276.5C -0.5,262.5 -0.5,248.5 -0.5,234.5C 5.40126,185.033 25.5679,142.367 60,106.5C 75,72.8333 90,39.1667 105,5.5C 106.332,3.34004 107.832,1.34004 109.5,-0.5 Z M 328.5,77.5 C 263.682,38.2802 196.016,32.7802 125.5,61C 114.326,66.0837 103.659,71.917 93.5,78.5C 102.085,58.1625 111.085,37.9959 120.5,18C 181.169,17.1667 241.836,17.3334 302.5,18.5C 311.564,38.037 320.23,57.7036 328.5,77.5 Z M 190.5,62.5 C 194.5,62.5 198.5,62.5 202.5,62.5C 202.121,67.2973 202.621,71.964 204,76.5C 209.356,80.7707 214.356,80.4374 219,75.5C 220.367,71.3004 220.867,66.9671 220.5,62.5C 266.793,64.8647 307.127,81.3647 341.5,112C 338.628,114.537 336.128,117.37 334,120.5C 332.167,130.667 336.333,134.833 346.5,133C 349.63,130.872 352.463,128.372 355,125.5C 365.895,137.616 375.062,150.95 382.5,165.5C 369.513,166.666 356.513,166.833 343.5,166C 300.214,108.053 242.88,86.3866 171.5,101C 106.914,120.586 67.7473,163.419 54,229.5C 45.7237,299.1 70.5571,353.266 128.5,392C 169.531,415.545 212.864,420.879 258.5,408C 293.917,396.468 322.25,375.468 343.5,345C 356.513,344.167 369.513,344.334 382.5,345.5C 375.062,360.05 365.895,373.384 355,385.5C 352.463,382.628 349.63,380.128 346.5,378C 336.333,376.167 332.167,380.333 334,390.5C 336.128,393.63 338.628,396.463 341.5,399C 307.127,429.635 266.793,446.135 220.5,448.5C 220.867,444.033 220.367,439.7 219,435.5C 214.356,430.563 209.356,430.229 204,434.5C 202.621,439.036 202.121,443.703 202.5,448.5C 156.153,446.315 115.82,429.815 81.5,399C 84.372,396.463 86.872,393.63 89,390.5C 90.4475,380.614 86.2809,376.447 76.5,378C 73.3699,380.128 70.5366,382.628 68,385.5C 37.5941,351.169 20.7607,311.002 17.5,265C 21.8333,264.667 26.1667,264.333 30.5,264C 37.1667,258.333 37.1667,252.667 30.5,247C 26.1667,246.667 21.8333,246.333 17.5,246C 20.7607,199.998 37.5941,159.831 68,125.5C 70.5366,128.372 73.3699,130.872 76.5,133C 87.5649,134.065 91.3983,129.231 88,118.5C 85.8333,116.333 83.6667,114.167 81.5,112C 112.671,84.217 149.005,67.717 190.5,62.5 Z M 203.5,114.5 C 250.443,113.48 289.109,130.646 319.5,166C 306.5,166.667 293.5,166.667 280.5,166C 257.598,160.024 234.598,154.524 211.5,149.5C 186.026,155.035 160.693,161.202 135.5,168C 133.951,169.214 132.785,170.714 132,172.5C 131.333,211.833 131.333,251.167 132,290.5C 136.329,314.654 149.163,332.821 170.5,345C 183.12,353.15 196.787,358.65 211.5,361.5C 226.054,358.259 239.72,352.759 252.5,345C 274.833,344.333 297.167,344.333 319.5,345C 284.222,385.431 239.889,401.764 186.5,394C 129.418,380.917 92.2511,346.417 75,290.5C 62.5832,231.413 79.4165,182.579 125.5,144C 148.725,126.759 174.725,116.926 203.5,114.5 Z M 207.5,168.5 C 229.269,172.317 250.769,177.317 272,183.5C 272.667,218.833 272.667,254.167 272,289.5C 268.082,304.827 259.582,316.993 246.5,326C 235.497,333.251 223.663,338.751 211,342.5C 188.078,336.227 169.745,323.56 156,304.5C 153.739,300.05 152.072,295.383 151,290.5C 150.333,254.833 150.333,219.167 151,183.5C 169.944,178.557 188.777,173.557 207.5,168.5 Z M 291.5,185.5 C 357.583,185.007 423.583,185.507 489.5,187C 491.049,188.214 492.215,189.714 493,191.5C 493.989,234.917 493.656,278.25 492,321.5C 490.786,323.049 489.286,324.215 487.5,325C 416.833,325.667 346.167,325.667 275.5,325C 284.545,314.545 289.712,302.378 291,288.5C 291.5,254.168 291.667,219.835 291.5,185.5 Z M 93.5,432.5 C 159.254,473.069 227.92,478.569 299.5,449C 309.326,443.977 318.993,438.811 328.5,433.5C 320.23,453.296 311.564,472.963 302.5,492.5C 241.836,493.667 181.169,493.833 120.5,493C 111.085,473.004 102.085,452.837 93.5,432.5 Z"/></g>
<g><path style="opacity:0.932" d="M 207.5,185.5 C 221.977,187.495 236.31,190.329 250.5,194C 255.155,196.897 256.655,201.063 255,206.5C 253.2,210.235 250.2,211.902 246,211.5C 234.439,209.488 222.939,207.154 211.5,204.5C 201.459,206.475 191.459,208.642 181.5,211C 173.456,213.731 168.456,211.064 166.5,203C 166.668,199.156 168.335,196.156 171.5,194C 183.702,191.464 195.702,188.631 207.5,185.5 Z"/></g>
<g><path style="opacity:0.921" d="M 324.5,210.5 C 354.835,210.333 385.168,210.5 415.5,211C 422.502,212.827 425.002,217.327 423,224.5C 421.457,226.378 419.624,227.878 417.5,229C 385.833,229.667 354.167,229.667 322.5,229C 316.234,225.003 315.067,219.837 319,213.5C 320.876,212.391 322.709,211.391 324.5,210.5 Z"/></g>
<g><path style="opacity:0.957" d="M 322.5,246.5 C 342.836,246.333 363.169,246.5 383.5,247C 390.167,252.667 390.167,258.333 383.5,264C 363.167,264.667 342.833,264.667 322.5,264C 314.581,258.173 314.581,252.34 322.5,246.5 Z"/></g>
<g><path style="opacity:0.911" d="M 322.5,281.5 C 336.504,281.333 350.504,281.5 364.5,282C 370.092,284.402 371.925,288.569 370,294.5C 368.62,297.883 366.12,299.716 362.5,300C 349.833,300.667 337.167,300.667 324.5,300C 317.335,297.499 315.168,292.665 318,285.5C 319.397,283.93 320.897,282.596 322.5,281.5 Z"/></g>
<g><path style="opacity:0.921" d="M 393.5,281.5 C 416.169,281.333 438.836,281.5 461.5,282C 467.092,284.402 468.925,288.569 467,294.5C 465.74,297.428 463.573,299.261 460.5,300C 438.833,300.667 417.167,300.667 395.5,300C 387.783,297.73 385.617,292.897 389,285.5C 390.397,283.93 391.897,282.596 393.5,281.5 Z"/></g>
<g><path style="opacity:0.925" d="M 177.5,287.5 C 180.978,287.184 184.312,287.684 187.5,289C 193.94,296.302 201.774,301.469 211,304.5C 220.85,301.154 229.35,295.654 236.5,288C 247.354,286.516 251.521,291.016 249,301.5C 238.786,312.859 226.286,320.526 211.5,324.5C 197.504,320.669 185.337,313.669 175,303.5C 171.182,297.409 172.015,292.075 177.5,287.5 Z"/></g>
</svg>
