<svg xmlns="http://www.w3.org/2000/svg" version="1.1" xmlns:xlink="http://www.w3.org/1999/xlink" viewBox="0 0 512 512" style="enable-background:new 0 0 512 512" xml:space="preserve">
  <g>
    <path d="M256 249.55c26.74 0 48.49-21.75 48.49-48.49s-21.75-48.49-48.49-48.49-48.49 21.75-48.49 48.49 21.75 48.49 48.49 48.49zm0-84.98c20.12 0 36.49 16.37 36.49 36.49s-16.37 36.49-36.49 36.49-36.49-16.37-36.49-36.49 16.37-36.49 36.49-36.49zm238.4-121c-.4-.27-.82-.49-1.25-.66l-.03-.01c-.01 0-.01 0-.02-.01l-71.79-27.5a5.986 5.986 0 0 0-4.29 0l-71.79 27.5c-.01 0-.01 0-.02.01l-.03.01c-.44.17-.86.39-1.25.66a5.995 5.995 0 0 0-2.6 4.94v83.73a5.99 5.99 0 0 0 3.85 5.6l67.98 26.04v204.71h-46.7V324c0-10.55-8.58-19.13-19.13-19.13h-16.68c-8.97-29.39-37.09-47.45-74.65-47.45s-65.68 18.05-74.65 47.45h-16.68c-10.55 0-19.13 8.58-19.13 19.13v44.61h-46.7V163.89l67.98-26.04a6 6 0 0 0 3.85-5.6V48.52c0-1.98-.97-3.82-2.6-4.94-.4-.27-.82-.49-1.25-.66l-.03-.01c-.01 0-.01 0-.02-.01L94.98 15.4a5.986 5.986 0 0 0-4.29 0L18.9 42.89c-.01 0-.01 0-.02.01l-.03.01c-.44.17-.86.39-1.25.66a5.995 5.995 0 0 0-2.6 4.94v83.73a5.99 5.99 0 0 0 3.85 5.6l67.98 26.04v210.71c0 3.31 2.69 6 6 6h52.7v64.53h-10.89c-3.31 0-6 2.69-6 6v19.93c0 14.3 11.63 25.93 25.93 25.93h202.85c14.3 0 25.93-11.63 25.93-25.93v-19.93c0-3.31-2.69-6-6-6h-10.9v-64.53h52.7c3.31 0 6-2.69 6-6v-210.7l67.98-26.04a6 6 0 0 0 3.85-5.6V48.52a5.93 5.93 0 0 0-2.58-4.95zm-335.73 84.55-59.83 22.92V80.16l59.83-22.92zM92.83 27.42l55.06 21.09-55.06 21.1-55.06-21.09zM27 57.24l59.83 22.92v70.88L27 128.12zm229 212.18c30.88 0 53.47 13.1 61.99 35.45H194.01c8.52-22.35 31.11-35.45 61.99-35.45zm115.36 201.65c0 7.68-6.25 13.93-13.93 13.93H154.58c-7.68 0-13.93-6.25-13.93-13.93v-13.93h230.71zm-213.82-25.94V324c0-3.93 3.2-7.13 7.13-7.13h182.66c3.93 0 7.13 3.2 7.13 7.13v121.14H157.54zM419.17 27.42l55.06 21.09-55.06 21.09-55.07-21.08zm-65.84 29.82 59.83 22.92v70.88l-59.83-22.92zM485 128.12l-59.83 22.92V80.16L485 57.24zM235.38 356.44 210.82 381l24.56 24.56a6 6 0 0 1-4.24 10.24c-1.53 0-3.07-.59-4.24-1.76l-28.8-28.8a6 6 0 0 1 0-8.48l28.8-28.8c2.34-2.34 6.14-2.34 8.48 0s2.34 6.14 0 8.48zm32.92-9.96-13.69 71.31a6.008 6.008 0 0 1-5.89 4.87c-.38 0-.76-.04-1.14-.11-3.25-.62-5.39-3.77-4.76-7.02l13.69-71.31c.62-3.25 3.77-5.38 7.02-4.76 3.26.62 5.39 3.76 4.77 7.02zm45.61 30.28a6 6 0 0 1 0 8.48l-28.8 28.8a5.991 5.991 0 0 1-8.48 0 6 6 0 0 1 0-8.48L301.18 381l-24.56-24.56a6 6 0 0 1 0-8.48 6 6 0 0 1 8.48 0z"/>
  </g>
</svg>
