<?xml version="1.0" encoding="UTF-8"?>
<!DOCTYPE svg PUBLIC "-//W3C//DTD SVG 1.1//EN" "http://www.w3.org/Graphics/SVG/1.1/DTD/svg11.dtd">
<svg xmlns="http://www.w3.org/2000/svg" version="1.1" viewBox="0 0 512 512" style="shape-rendering:geometricPrecision; text-rendering:geometricPrecision; image-rendering:optimizeQuality; fill-rule:evenodd; clip-rule:evenodd" xmlns:xlink="http://www.w3.org/1999/xlink">
<g><path style="opacity:0.934" d="M 214.5,0.5 C 260.093,-3.68141 303.093,4.81859 343.5,26C 382.369,50.8573 406.536,86.0239 416,131.5C 421.022,158.292 422.689,185.292 421,212.5C 422.115,216.729 423.781,220.729 426,224.5C 435.157,236.147 443.823,248.147 452,260.5C 458.712,271.631 462.378,283.631 463,296.5C 462.215,298.286 461.049,299.786 459.5,301C 451.892,302.822 444.226,304.322 436.5,305.5C 436.666,315.839 436.5,326.172 436,336.5C 435.215,338.286 434.049,339.786 432.5,341C 428.91,342.53 425.243,343.864 421.5,345C 425.762,348.717 429.928,352.55 434,356.5C 434.667,360.5 434.667,364.5 434,368.5C 429.701,376.814 425.367,385.147 421,393.5C 417.929,402.046 415.262,410.712 413,419.5C 408.931,424.285 403.764,427.119 397.5,428C 391.167,428.667 384.833,428.667 378.5,428C 360.571,424.048 342.571,420.548 324.5,417.5C 312.094,417.771 308.26,423.771 313,435.5C 319.008,451.189 324.008,467.189 328,483.5C 329.353,490.792 329.686,498.125 329,505.5C 328.535,506.931 327.701,508.097 326.5,509C 288.25,510.161 249.916,510.661 211.5,510.5C 173.833,510.333 136.167,510.167 98.5,510C 95.733,508.317 94.0663,505.817 93.5,502.5C 98.95,482.648 105.117,462.981 112,443.5C 121.656,413.576 125.989,382.909 125,351.5C 67.3411,303.931 42.0077,242.598 49,167.5C 55.5462,108.868 82.7129,62.7011 130.5,29C 156.509,13.3863 184.509,3.88631 214.5,0.5 Z M 234.5,16.5 C 263.165,16.3331 290.832,21.4998 317.5,32C 361.152,52.4087 388.319,86.242 399,133.5C 404.089,160.287 405.756,187.287 404,214.5C 405.763,223.691 409.43,232.025 415,239.5C 427.744,253.155 437.577,268.655 444.5,286C 439.029,287.861 433.362,289.194 427.5,290C 424.966,290.516 422.8,291.683 421,293.5C 419.71,304.737 419.043,316.07 419,327.5C 415.063,329.144 411.23,330.977 407.5,333C 400.587,339.063 399.753,345.896 405,353.5C 408.867,357.702 413.033,361.535 417.5,365C 407.94,378.669 401.273,393.669 397.5,410C 391.947,411.57 386.281,411.903 380.5,411C 366.731,408.474 353.064,405.474 339.5,402C 330.139,400.102 320.805,400.102 311.5,402C 297.729,408.038 292.229,418.538 295,433.5C 298.727,447.015 303.06,460.348 308,473.5C 309.748,479.988 311.248,486.488 312.5,493C 246.152,493.187 179.818,493.687 113.5,494.5C 118.362,478.415 123.528,462.415 129,446.5C 139.732,412.579 143.732,377.912 141,342.5C 77.7517,291.443 54.085,225.776 70,145.5C 93.8872,63.1196 148.721,20.1196 234.5,16.5 Z M 233.5,67.5 C 234.833,67.5 236.167,67.5 237.5,67.5C 237.833,82.1818 237.499,96.8485 236.5,111.5C 206.17,116.665 185.67,133.665 175,162.5C 165.518,198.393 175.685,227.227 205.5,249C 215.37,255.012 226.036,258.512 237.5,259.5C 237.5,274.5 237.5,289.5 237.5,304.5C 236.167,304.5 234.833,304.5 233.5,304.5C 234.081,297.939 233.248,291.605 231,285.5C 216.276,281.813 202.442,275.98 189.5,268C 186.833,267.333 184.167,267.333 181.5,268C 178,271.5 174.5,275 171,278.5C 164.985,272.652 159.152,266.652 153.5,260.5C 156.484,257.015 159.651,253.682 163,250.5C 163.923,248.966 164.423,247.299 164.5,245.5C 160.928,237.412 157.095,229.412 153,221.5C 151.021,215.584 149.354,209.584 148,203.5C 146.773,201.274 144.939,199.774 142.5,199C 137.511,198.501 132.511,198.334 127.5,198.5C 127.5,190.167 127.5,181.833 127.5,173.5C 132.179,173.666 136.845,173.499 141.5,173C 143.848,172.654 145.681,171.487 147,169.5C 150.485,155.201 156.152,141.868 164,129.5C 164.841,125.88 164.174,122.546 162,119.5C 159.167,116.667 156.333,113.833 153.5,111C 159.333,105.167 165.167,99.3333 171,93.5C 174.167,96.6667 177.333,99.8333 180.5,103C 183.366,104.457 186.366,104.79 189.5,104C 201.418,96.1355 214.418,90.8022 228.5,88C 231.268,86.238 232.768,83.738 233,80.5C 233.499,76.1794 233.666,71.8461 233.5,67.5 Z"/></g>
<g><path style="opacity:0.956" d="M 300.5,36.5 C 320.973,39.4824 329.14,51.1491 325,71.5C 318.981,84.4293 308.815,89.9293 294.5,88C 290.219,94.6146 285.553,100.948 280.5,107C 271.84,107.5 263.173,107.666 254.5,107.5C 254.5,115.167 254.5,122.833 254.5,130.5C 264.506,130.666 274.506,130.5 284.5,130C 292.081,125.96 299.581,121.793 307,117.5C 307.131,100.039 315.798,90.0389 333,87.5C 353.158,90.8134 361.158,102.48 357,122.5C 348.945,137.634 336.778,142.134 320.5,136C 318.91,134.954 317.41,133.787 316,132.5C 307.247,137.46 298.413,142.294 289.5,147C 277.838,147.5 266.171,147.667 254.5,147.5C 254.5,157.5 254.5,167.5 254.5,177.5C 272.503,177.667 290.503,177.5 308.5,177C 315.666,162.754 326.999,157.754 342.5,162C 356.017,168.865 360.851,179.699 357,194.5C 350.447,208.358 339.614,213.525 324.5,210C 316.576,207.577 311.576,202.41 309.5,194.5C 291.167,194.5 272.833,194.5 254.5,194.5C 254.5,204.5 254.5,214.5 254.5,224.5C 266.171,224.333 277.838,224.5 289.5,225C 298.413,229.706 307.247,234.54 316,239.5C 329.762,229.58 342.428,230.913 354,243.5C 361.322,256.794 359.489,268.628 348.5,279C 334.836,286.442 322.669,284.608 312,273.5C 308.611,267.277 306.777,260.61 306.5,253.5C 299.5,249.667 292.5,245.833 285.5,242C 275.172,241.5 264.839,241.334 254.5,241.5C 254.5,249.167 254.5,256.833 254.5,264.5C 263.554,264.194 272.554,264.528 281.5,265.5C 286.028,271.528 290.361,277.695 294.5,284C 313.272,282.268 323.938,290.768 326.5,309.5C 323.307,329.773 311.64,337.606 291.5,333C 279.104,327.044 273.938,317.211 276,303.5C 276.739,299.938 278.239,296.772 280.5,294C 277.543,289.92 274.71,285.753 272,281.5C 266.259,280.525 260.425,280.192 254.5,280.5C 254.667,292.171 254.5,303.838 254,315.5C 252.833,318 251,319.833 248.5,321C 238.733,321.947 229.066,321.613 219.5,320C 218.667,319.167 217.833,318.333 217,317.5C 216.831,311.141 216.331,304.807 215.5,298.5C 205.682,295.59 196.349,291.59 187.5,286.5C 183.348,290.151 179.348,293.984 175.5,298C 172.5,300 169.5,300 166.5,298C 154.97,286.804 143.803,275.304 133,263.5C 132.245,260.697 132.578,258.03 134,255.5C 137.882,251.954 141.382,248.121 144.5,244C 139.352,235.053 135.685,225.553 133.5,215.5C 127.491,215.666 121.491,215.499 115.5,215C 114.069,214.535 112.903,213.701 112,212.5C 110.86,203.596 110.36,194.596 110.5,185.5C 110.667,177.167 110.833,168.833 111,160.5C 112.167,159.333 113.333,158.167 114.5,157C 120.825,156.5 127.158,156.334 133.5,156.5C 135.695,146.413 139.361,136.913 144.5,128C 140.68,123.511 136.847,119.011 133,114.5C 132.21,111.366 132.543,108.366 134,105.5C 144.5,95 155,84.5 165.5,74C 168.077,72.7496 170.743,72.4163 173.5,73C 178.632,76.4666 183.466,80.2999 188,84.5C 196.947,79.3518 206.447,75.6851 216.5,73.5C 216.334,67.1579 216.5,60.8246 217,54.5C 217.833,53.6667 218.667,52.8333 219.5,52C 229.4,50.3846 239.4,50.0513 249.5,51C 251.726,52.2273 253.226,54.0607 254,56.5C 254.5,67.8284 254.667,79.1618 254.5,90.5C 260.537,90.8293 266.537,90.4959 272.5,89.5C 275.043,85.5794 277.71,81.7461 280.5,78C 272.304,64.0226 274.304,51.6893 286.5,41C 291.002,38.5532 295.669,37.0532 300.5,36.5 Z M 233.5,67.5 C 233.666,71.8461 233.499,76.1794 233,80.5C 232.768,83.738 231.268,86.238 228.5,88C 214.418,90.8022 201.418,96.1355 189.5,104C 186.366,104.79 183.366,104.457 180.5,103C 177.333,99.8333 174.167,96.6667 171,93.5C 165.167,99.3333 159.333,105.167 153.5,111C 156.333,113.833 159.167,116.667 162,119.5C 164.174,122.546 164.841,125.88 164,129.5C 156.152,141.868 150.485,155.201 147,169.5C 145.681,171.487 143.848,172.654 141.5,173C 136.845,173.499 132.179,173.666 127.5,173.5C 127.5,181.833 127.5,190.167 127.5,198.5C 132.511,198.334 137.511,198.501 142.5,199C 144.939,199.774 146.773,201.274 148,203.5C 149.354,209.584 151.021,215.584 153,221.5C 157.095,229.412 160.928,237.412 164.5,245.5C 164.423,247.299 163.923,248.966 163,250.5C 159.651,253.682 156.484,257.015 153.5,260.5C 159.152,266.652 164.985,272.652 171,278.5C 174.5,275 178,271.5 181.5,268C 184.167,267.333 186.833,267.333 189.5,268C 202.442,275.98 216.276,281.813 231,285.5C 233.248,291.605 234.081,297.939 233.5,304.5C 234.833,304.5 236.167,304.5 237.5,304.5C 237.5,289.5 237.5,274.5 237.5,259.5C 226.036,258.512 215.37,255.012 205.5,249C 175.685,227.227 165.518,198.393 175,162.5C 185.67,133.665 206.17,116.665 236.5,111.5C 237.499,96.8485 237.833,82.1818 237.5,67.5C 236.167,67.5 234.833,67.5 233.5,67.5 Z"/></g>
</svg>
